%
T1C.016F095S3
X012Y014
X013Y015
X011Y015
X012Y016
X011Y017
X01324Y0178
X012Y018
X013Y019
X011Y019
X012Y02
X01108Y0208
X011Y022
X012Y023
X013Y024
X011Y024
X012Y025
X013Y026
X011Y026
X012Y027
X011Y028
X013Y028
X012Y029
X013Y03
X011Y03
X012Y031
X011Y032
X013Y032
X012Y033
X013Y034
X011Y034
X012Y035
X011Y036
X013Y036
X012Y037
X013Y038
X011Y038
X012Y039
X013Y0435
X012Y044
X013Y045
X011Y045
X012Y046
X011Y047
X013Y047
X012Y048
X011Y049
X013Y049
X012Y05
X013Y051
X011Y051
X012Y052
X011Y053
X013Y053
X012Y054
X013Y055
X011Y055
X012Y056
X011Y057
X013Y057
X012Y058
X013Y059
X011Y059
X012Y06
X013Y061
X01096Y061
X015Y063
X014Y062
X015Y061
X014Y06
X015Y059
X014Y058
X015Y057
X014Y056
X015Y055
X014Y054
X015Y053
X014Y052
X015Y051
X014Y05
X015Y049
X014Y048
X015Y047
X014Y046
X0155Y0445
X014Y044
X015Y043
X014Y042
X0157Y0403
X0135Y0395
X0144Y0389
X014Y037
X01423Y03598
X014Y035
X01532Y03478
X015Y034
X014Y033
X01515Y0317
X014Y031
X015Y03
X014Y029
X015Y028
X014Y027
X015Y026
X014Y025
X015Y024
X014Y023
X01593Y02236
X015Y022
X01564Y02092
X01444Y02044
X014Y014
X015Y013
X014Y012
X015Y011
X017Y011
X018Y012
X016Y012
X017Y013
X01792Y01301
X016Y014
X016Y023
X017Y024
X01788Y02418
X016Y025
X018Y025
X017Y026
X016Y027
X017Y028
X016Y029
X01692Y02918
X0165Y0292
X016Y033
X017Y034
X016Y035
X017Y036
X0163Y0389
X0182Y0434
X0182Y0442
X017Y047
X016Y048
X018Y048
X017Y049
X016Y05
X018Y05
X017Y051
X016Y052
X018Y052
X017Y053
X016Y054
X018Y054
X017Y055
X018Y056
X016Y056
X017Y057
X016Y058
X018Y058
X017Y059
X016Y06
X018Y06
X017Y061
X016Y062
X018Y062
X017Y063
X018Y064
X016Y064
X02Y064
X0195Y0635
X019Y0625
X019Y061
X02Y06
X019Y059
X02Y058
X019Y057
X02Y056
X019Y055
X02Y054
X019Y053
X02Y052
X019Y051
X02Y05
X019Y049
X0205Y047
X019Y047
X0195Y046
X02Y0435
X02Y0425
X019485Y0418
X0209Y0403
X0209Y0397
X0209Y0391
X019523Y03892
X02Y038
X0208Y0378
X0205Y035
X0205Y034
X02044Y0334
X019Y0314
X0186Y0301
X0195Y028
X0205Y0275
X019Y026
X02052Y02253
X01849Y02247
X01863Y01645
X019Y011
X022Y011
X023Y012
X021Y012
X022Y01264
X02284Y02032
X02212Y02104
X023Y022
X02228Y02321
X023Y024
X021Y025
X022Y025
X023Y026
X021Y026
X02194Y0314
X02176Y0328
X02343Y03422
X02326Y037006
X0214Y0378
X0215Y0393
X0214Y0403
X0214Y0407
X0214Y0411
X02158Y04276
X02237Y04323
X0215Y0435
X0225Y0455
X021Y046
X0225Y0465
X021Y051
X022Y052
X021Y053
X023Y053
X022Y054
X021Y055
X023Y055
X022Y056
X023Y057
X021Y057
X022Y058
X023Y059
X021Y059
X022Y06
X021Y0635
X023Y0635
X022Y064
X024Y064
X025Y063
X025Y061
X024Y06
X025Y059
X024Y058
X025Y057
X024Y056
X025Y055
X024Y054
X025Y053
X024Y052
X025Y051
X024Y05
X025Y049
X024Y048
X025Y047
X024Y046
X025Y045
X0253Y0442
X0245Y0435
X02487Y0425
X02447Y03702
X02485Y03673
X02586Y03552
X025Y035
X02554Y03452
X0245Y034
X025Y033
X024Y032
X025Y0315
X0255Y0295
X024Y0275
X0255Y0275
X025Y026
X024Y025
X025Y024
X02498Y02335
X02401Y02334
X025125Y02176
X02425Y02176
X02464Y01984
X02512Y01791
X02392Y01252
X025Y012
X024Y011
X02716Y01072
X02728Y0118
X02632Y01252
X02812Y01264
X02637Y02164
X02809Y02335
X02596Y02335
X027Y024
X026Y025
X028Y02536
X02746Y02596
X027Y0275
X0265Y0285
X027Y0295
X027Y0315
X026Y032
X027Y033
X026Y034
X027Y035
X02632Y0354
X02696Y03786
X026955Y03828
X027Y039
X0277Y0403
X028Y0407
X0283Y0411
X026Y042
X028Y042
X02695Y04337
X026Y044
X028Y044
X027Y045
X028Y046
X026Y046
X027Y047
X028Y048
X026Y048
X027Y049
X028Y05
X026Y05
X027Y051
X028Y052
X026Y052
X027Y053
X028Y054
X026Y054
X027Y055
X026Y056
X028Y056
X027Y057
X028Y058
X026Y058
X027Y059
X028Y06
X026Y06
X027Y061
X028Y062
X026Y062
X027Y063
X026Y064
X028Y064
X03Y064
X029Y063
X03Y062
X029Y061
X03Y06
X029Y059
X03Y058
X029Y057
X03Y056
X029Y055
X03Y054
X029Y053
X03Y052
X029Y051
X03Y05
X029Y049
X03Y048
X029Y047
X03Y046
X029Y045
X03Y044
X02902Y04337
X03Y042
X029Y041
X03Y04
X029Y039
X03Y037
X029Y036
X03Y035
X029Y034
X03Y033
X029Y032
X03Y03
X029Y029
X03Y028
X029Y0275
X02866Y02596
X029Y024
X02962Y02338
X03064Y0232
X02944Y02128
X0285Y0205
X0305Y0205
X0305Y019
X03052Y01755
X02872Y01755
X02896Y0118
X0304Y01168
X03028Y01072
X03208Y01168
X0316Y01264
X033Y016
X033Y018
X033Y02
X033Y024
X031Y024
X033Y0275
X031Y0275
X032Y028
X033Y029
X031Y029
X032Y03
X032Y0315
X031Y032
X032Y033
X031Y034
X033Y034
X03328Y03457
X032Y035
X0321Y03581
X031Y036
X032Y037
X0325Y0389
X031Y039
X031Y041
X032Y042
X03299Y04337
X031Y04337
X032Y044
X031Y045
X032Y046
X033Y047
X031Y047
X032Y048
X031Y049
X033Y049
X032Y05
X033Y051
X031Y051
X032Y052
X033Y053
X031Y053
X032Y054
X033Y055
X031Y055
X032Y056
X033Y057
X031Y057
X032Y058
X033Y059
X031Y059
X032Y06
X031Y061
X033Y061
X032Y062
X033Y063
X031Y063
X032Y064
X034Y064
X035Y063
X034Y062
X035Y061
X034Y06
X035Y059
X034Y058
X035Y057
X034Y056
X035Y055
X034Y054
X035Y053
X034Y052
X035Y051
X034Y05
X035Y049
X034Y048
X035Y047
X0338Y0403
X0344Y0389
X03411Y03608
X034Y035
X03568Y03406
X03568Y03236
X03346Y0317
X034Y03
X0355Y03
X03503Y0292
X0346Y0292
X035Y0285
X034Y028
X035Y0275
X035Y024
X034Y0205
X035Y02
X034Y019
X035Y018
X034Y017
X035Y016
X03496Y01264
X034Y01168
X03424Y01072
X03796Y0106
X03688Y01168
X03688Y0124
X03808Y01252
X037Y016
X036Y017
X038Y017
X038Y019
X036Y019
X037Y02
X036Y0205
X038Y0205
X037Y024
X037Y028
X0367Y0301
X0371Y0315
X037643Y03892
X0376Y041795
X0363Y0434
X038Y0435
X0363Y0442
X038Y046
X036Y046
X037Y047
X036Y048
X038Y0485
X037Y049
X038Y05
X036Y05
X037Y051
X038Y052
X036Y052
X037Y053
X036Y054
X038Y054
X037Y055
X036Y056
X038Y056
X037Y057
X036Y058
X038Y058
X037Y059
X038Y06
X036Y06
X037Y061
X036Y062
X0375Y0625
X037Y0635
X036Y064
X038Y064
X04Y064
X039Y0635
X04Y06
X039Y059
X04Y058
X039Y057
X04Y056
X039Y055
X04Y054
X039Y053
X04Y052
X039Y051
X039Y047
X0405Y0465
X0405Y0455
X039Y0455
X0395Y0435
X04047Y04319
X04011Y04136
X0397Y0411
X0396Y0407
X0395Y0403
X0389Y0403
X0392Y0397
X0396Y0393
X039Y0391
X0389Y0378
X0395Y0378
X0385Y035
X0385Y0335
X03928Y03274
X04013Y0313
X0385Y0275
X039Y024
X04Y0205
X039Y02
X0385Y018
X04Y017
X039Y016
X04Y01264
X039Y012
X04288Y01084
X041Y012
X043Y012
X04192Y01264
X041Y016
X043Y016
X042Y019
X043Y019
X043Y02
X041Y02
X042Y0205
X041Y024
X043Y024
X042Y0275
X043Y028
X043Y03
X043Y0315
X042Y032
X043Y033
X043Y035
X04291Y03535
X04135Y03635
X043035Y0366
X042675Y03686
X04136Y037006
X04303Y03827
X0426Y0383
X043Y0425
X043Y0435
X0434Y0442
X043Y045
X043Y047
X042Y048
X043Y049
X042Y05
X043Y051
X042Y052
X043Y053
X041Y053
X042Y054
X041Y055
X043Y055
X042Y056
X043Y057
X041Y057
X042Y058
X043Y059
X041Y059
X042Y06
X043Y061
X043Y063
X041Y0635
X042Y064
X044Y064
X045Y063
X044Y062
X045Y061
X044Y06
X045Y059
X044Y058
X045Y057
X044Y056
X045Y055
X044Y054
X045Y053
X044Y052
X045Y051
X044Y05
X045Y049
X044Y048
X045Y047
X044Y046
X045Y045
X044Y044
X04496Y04332
X044Y042
X0459Y0403
X0445Y0393
X045Y039
X044Y0389
X04459Y0375
X045Y03453
X044Y034
X045Y033
X044Y032
X045Y0315
X045Y03
X044Y029
X045Y028
X045Y024
X045Y02
X045125Y018365
X04408Y01264
X045Y012
X04624Y01084
X048Y011
X047Y012
X04612Y01288
X048Y013
X04708Y01384
X046Y01936
X0484Y02056
X04672Y02056
X047Y024
X04696Y026
X04756Y0274
X048Y028
X047Y029
X048Y03
X048Y0315
X047Y032
X048Y033
X047Y034
X048Y035
X0462Y0407
X0475Y041
X0465Y0411
X048Y042
X046Y042
X04703Y04332
X046Y044
X048Y044
X047Y045
X048Y046
X046Y046
X047Y047
X046Y048
X048Y048
X047Y049
X046Y05
X048Y05
X047Y051
X046Y052
X048Y052
X047Y053
X048Y054
X046Y054
X047Y055
X046Y056
X048Y056
X047Y057
X048Y058
X046Y058
X047Y059
X046Y06
X048Y06
X047Y061
X046Y062
X047Y063
X046Y064
X049Y061
X05Y06
X049Y059
X05Y058
X049Y057
X05Y056
X049Y055
X05Y054
X049Y053
X05Y052
X049Y051
X05Y05
X049Y049
X05Y048
X049Y047
X05Y046
X049Y045
X05Y044
X04899Y04332
X0495Y0425
X0505Y0415
X0485Y041
X0502Y0408
X05Y036
X049Y034
X05Y033
X049Y032
X05Y0315
X05Y03
X049Y029
X049Y024
X05032Y02056
X05056Y01936
X049Y01936
X049Y012
X05Y011
X052Y011
X053Y012
X05276Y01263
X053Y014
X0515Y01429
X052Y015
X05284Y02056
X05268Y02277
X052Y0275
X053Y028
X051Y028
X052Y029
X0531Y02916
X0527Y0292
X0515Y03
X05148Y0317
X05184Y03362
X05103Y03375
X05148Y03481
X0521Y03483
X0525Y0389
X0519Y0403
X05102Y04332
X052Y044
X051Y045
X053Y047
X051Y047
X052Y048
X053Y049
X051Y049
X052Y05
X053Y051
X051Y051
X052Y052
X053Y053
X051Y053
X052Y054
X053Y055
X051Y055
X052Y056
X053Y057
X051Y057
X052Y058
X053Y059
X051Y059
X052Y06
X053Y061
X051Y061
X052Y062
X053Y063
X052Y064
X054Y064
X055Y063
X054Y062
X055Y061
X054Y06
X055Y059
X054Y058
X055Y057
X054Y056
X055Y055
X054Y054
X055Y053
X054Y052
X055Y051
X054Y05
X055Y049
X054Y048
X055Y047
X054Y046
X0544Y0442
X0544Y0434
X055605Y0418
X05572Y038997
X0535Y0345
X05363Y03306
X0552Y0315
X0548Y0302
X055Y0285
X05484Y0239
X05548Y0232
X05476Y02032
X054Y02
X05584Y01924
X055Y019
X054Y013
X055Y012
X054Y011
X056Y011
X058Y011
X05632Y01696
X0574Y01756
X056Y018
X0577Y01804
X057Y019
X0574Y0236
X05752Y0244
X056Y0275
X0583Y0313
X05698Y0325
X0565Y0335
X0565Y0355
X057Y0378
X0576Y0378
X0571Y0391
X0577Y0393
X0571Y0397
X0576Y0403
X0571Y0403
X0576Y0407
X0577Y0411
X05802Y04135
X0565Y042
X0575Y0435
X056Y0435
X0575Y046
X056Y046
X057Y047
X056Y05
X057Y051
X058Y052
X056Y052
X057Y053
X056Y054
X058Y054
X057Y055
X058Y056
X056Y056
X057Y057
X056Y058
X058Y058
X057Y059
X058Y06
X056Y06
X057Y0635
X056Y064
X058Y064
X06Y064
X059Y0635
X06Y06
X059Y059
X06Y058
X059Y057
X06Y056
X059Y055
X06Y054
X059Y053
X06Y052
X06Y05
X059Y047
X059Y0455
X06046Y04325
X0586Y04311
X0606Y0383
X06095Y03827
X06071Y03729
X05946Y037006
X060275Y035
X059Y033
X06Y0275
X06014Y02488
X06044Y02442
X0596Y0236
X0596Y0231
X0596Y0226
X05896Y02
X06079Y01998
X0609Y0196
X059Y019
X0603Y01804
X06Y01756
X05848Y01696
X06029Y01654
X05848Y01312
X06052Y013
X06Y011
X062Y011
X06105Y01122
X06234Y01501
X06273Y01533
X06228Y01566
X062199Y016628
X0634Y01837
X062026Y018656
X06328Y0189
X0612Y01924
X0611Y0236
X0611Y0241
X0626Y0246
X062Y028
X063Y029
X062Y03
X062Y0315
X063Y032
X061Y032
X062Y033
X063Y034
X061Y034
X062Y035
X06111Y03705
X0621Y0389
X0626Y0393
X0625Y042
X06107Y0425
X0624Y04373
X06146Y0442
X061Y045
X063Y045
X062Y046
X063Y047
X061Y047
X062Y048
X063Y049
X061Y049
X062Y05
X063Y051
X061Y051
X062Y052
X061Y053
X063Y053
X062Y054
X061Y055
X063Y055
X062Y056
X061Y057
X063Y057
X062Y058
X061Y059
X063Y059
X062Y06
X063Y061
X062Y062
X063Y063
X061Y0635
X062Y064
X064Y064
X065Y063
X064Y062
X065Y061
X064Y06
X065Y059
X064Y058
X065Y057
X064Y056
X065Y055
X064Y054
X065Y053
X064Y052
X065Y051
X064Y05
X065Y049
X064Y048
X065Y047
X064Y046
X065Y045
X064Y044
X06441Y04285
X0648Y04198
X06378Y04197
X065135Y0411
X0644Y0407
X0655Y0405
X0641Y0403
X0635Y039
X0635Y0275
X06496Y02416
X0649Y0236
X06556Y022265
X06388Y02
X06484Y0184
X06568Y01756
X06544Y01708
X06358Y01666
X06488Y01576
X06556Y01552
X064Y011
X066Y011
X068Y011
X06724Y01168
X06664Y01216
X06616Y0124
X06712Y01276
X067885Y01276
X06664Y01564
X06776Y01604
X06801Y01653
X06841Y01696
X0679Y0172
X06628Y01756
X0679Y0177
X0684Y0177
X0672Y0189
X0678Y02
X06844Y022265
X06844Y022935
X06604Y0256
X06748Y02572
X06652Y026
X067Y0275
X06639Y02782
X066Y0285
X067Y029
X066Y03
X066Y0315
X067Y032
X066Y033
X067Y034
X066Y035
X067Y036
X066Y037
X066Y039
X06796Y0397
X06664Y04055
X06609Y04109
X068Y04135
X067Y043
X06712Y04383
X068Y044
X066Y044
X067Y045
X066Y046
X068Y046
X067Y047
X068Y048
X066Y048
X067Y049
X066Y05
X068Y05
X067Y051
X066Y052
X068Y052
X067Y053
X066Y054
X068Y054
X067Y055
X066Y056
X068Y056
X067Y057
X068Y058
X066Y058
X067Y059
X068Y06
X066Y06
X067Y061
X068Y062
X066Y062
X067Y063
X068Y064
X066Y064
X07Y064
X069Y063
X07Y062
X069Y061
X07Y06
X069Y059
X07Y058
X069Y057
X07Y056
X069Y055
X07Y054
X069Y053
X07Y052
X069Y051
X07Y05
X069Y049
X07Y048
X069Y047
X069Y045
X07Y044
X069Y043
X06965Y04078
X06855Y04056
X07Y0403
X0686Y0389
X0706Y0389
X06856Y03788
X06966Y03481
X07012Y0346
X0695Y034
X0701Y03371
X06912Y03291
X070165Y03231
X0709Y0292
X07Y0285
X07Y0275
X06916Y02547
X06885Y02532
X06916Y0198
X06952Y01974
X0688Y01828
X06928Y01828
X06976Y018229
X06882Y01776
X06976Y01744
X06892Y01732
X06962Y01636
X06889Y01635
X07006Y01627
X06928Y01624
X07072Y0154
X07Y011
X072Y011
X07204Y01192
X07164Y01276
X07336Y01408
X07324Y01492
X07185Y01504
X073Y01996
X07255Y02003
X0715Y0225
X0725Y0238
X0715Y024
X071Y0275
X0715Y0285
X0713Y02919
X0729Y0302
X0733Y03142
X07171Y03333
X0715Y0355
X0719Y04135
X0725Y0434
X0725Y0442
X07303Y04486
X072Y046
X071Y047
X073Y047
X072Y048
X071Y049
X073Y049
X072Y05
X071Y051
X073Y051
X072Y052
X073Y053
X071Y053
X072Y054
X073Y055
X071Y055
X072Y056
X073Y057
X071Y057
X072Y058
X073Y059
X071Y059
X072Y06
X073Y061
X071Y061
X072Y062
X071Y063
X073Y063
X072Y064
X074Y064
X075Y0635
X074Y06
X075Y059
X074Y058
X075Y057
X074Y056
X075Y055
X074Y054
X075Y053
X074Y052
X075Y051
X074Y05
X075Y047
X0755Y046
X074Y046
X0745Y0435
X0755Y0435
X07372Y041675
X0758Y0411
X0758Y0407
X0752Y0403
X0757Y0403
X0758Y0398
X0752Y0397
X0752Y0393
X073883Y03892
X0757Y0378
X0751Y0378
X075Y035
X07492Y0328
X0735Y0285
X0735Y0275
X075Y0275
X0738Y0266
X075Y0255
X0755Y024
X0748Y01984
X07564Y019
X07408Y01888
X07576Y01672
X07384Y01456
X07432Y01384
X07384Y01324
X0748Y01312
X07408Y01252
X07732Y01396
X077Y015
X0778Y01564
X0767Y01792
X078Y02
X0765Y022
X078Y022
X078Y027
X07624Y03124
X0775Y0325
X07756Y037006
X07776Y03735
X07823Y03762
X07613Y04126
X0767Y043
X07717Y0448
X077Y0465
X078Y048
X078Y05
X077Y051
X078Y052
X076Y052
X077Y053
X076Y054
X078Y054
X077Y055
X076Y056
X078Y056
X077Y057
X076Y058
X078Y058
X077Y059
X076Y06
X078Y06
X077Y0635
X076Y064
X078Y064
X08Y064
X079Y0635
X08Y062
X08Y06
X079Y059
X08Y058
X079Y057
X08Y056
X079Y055
X08Y054
X079Y053
X08Y052
X079Y051
X08Y05
X079Y049
X08Y048
X079Y047
X08Y046
X079Y0455
X0796Y0442
X0805Y044
X079Y0435
X07917Y042505
X0805Y042
X0787Y0383
X0791Y03828
X08046Y03647
X0808Y0357
X0795Y035
X079Y034
X08Y033
X079Y032
X0785Y031
X08Y031
X079Y03
X08Y029
X079Y0275
X08Y027
X0805Y0255
X08Y024
X0795Y022
X08Y02
X0795Y019
X079885Y0184
X08Y016
X079Y015
X07984Y01432
X083Y012
X081925Y01636
X082Y018
X083Y019
X0824Y0249
X0818Y025
X0827Y026
X0815Y0265
X081Y028
X081Y03
X081Y032
X081Y034
X0815Y039
X0821Y0403
X0824Y0407
X0827Y0411
X082Y042
X081Y043
X083Y043
X082Y044
X083Y045
X081Y045
X082Y046
X081Y047
X083Y047
X082Y048
X083Y049
X081Y049
X082Y05
X083Y051
X081Y051
X082Y052
X083Y053
X081Y053
X082Y054
X083Y055
X081Y055
X082Y056
X083Y057
X081Y057
X082Y058
X083Y059
X081Y059
X082Y06
X081Y061
X083Y061
X082Y062
X083Y063
X081Y063
X082Y064
X084Y064
X08476Y06292
X084Y062
X085Y061
X084Y06
X085Y059
X084Y058
X085Y057
X084Y056
X085Y055
X084Y054
X085Y053
X084Y052
X085Y051
X084Y05
X085Y049
X084Y048
X085Y047
X084Y046
X085Y045
X084Y044
X085Y043
X084Y042
X084Y04
X085Y039
X084Y038
X085Y037
X084Y036
X085Y035
X084Y034
X085Y033
X084Y032
X085Y031
X084Y03
X085Y029
X084Y028
X085Y027
X084Y026
X085Y025
X0845Y016
X085Y014
X084Y013
X0845Y012
X084Y011
X087Y015
X088Y016
X087Y017
X086Y018
X088Y018
X087Y0185
X087Y025
X086Y026
X088Y026
X087Y027
X088Y028
X086Y028
X087Y029
X086Y03
X088Y03
X087Y031
X088Y032
X086Y032
X087Y033
X086Y034
X088Y034
X087Y035
X086Y036
X088Y036
X087Y037
X088Y038
X086Y038
X087Y039
X086Y044
X088Y044
X087Y045
X086Y046
X088Y046
X087Y047
X088Y048
X086Y048
X087Y049
X088Y05
X086Y05
X087Y051
X088Y052
X086Y052
X087Y053
X088Y054
X086Y054
X087Y055
X086Y056
X088Y056
X087Y057
X088Y058
X086Y058
X087Y059
X086Y06
X088Y06
X087Y061
T2C.01969F095S3
X051623Y015861
X051623Y016861
X051623Y019389
X051623Y020389
T3C.02F197S55
X0181Y0266
X0149Y0408
X0181Y0408
X0233Y0448
X0183Y0452
X0365Y0452
X0362Y0408
X033Y0408
X0362Y0266
X04425Y0226
X0482Y0266
X0501Y0266
X0511Y0408
X0415Y0448
X0546Y0452
X0595Y0448
X0543Y0408
X0543Y0266
X0567Y0215
X0619Y0215
X07312Y0155
X06598Y0215
X0706Y0215
X0724Y0266
X06844Y0308
X06856Y0383
X0724Y0408
X0692Y0408
X0727Y0452
X0776Y0448
X0742Y0215
X0754Y0215
X076Y0155
T4C.0315F197S55
X036635Y018125
X039627Y018125
T5C.0315F197S55
X083139Y016572G85X083139Y015628
X0856Y016572G85X0856Y015628
X083848Y018069G85X084793Y018069
T6C.035F197S55
X0202Y02823
X0222Y02823
X0212Y02823
X0232Y02823
X0222Y02923
X0202Y02923
X0212Y02923
X0232Y02923
X021Y0479
X022Y0479
X023Y0479
X0222Y06163
X0232Y06163
X0202Y06163
X0212Y06163
X0232Y06263
X0222Y06263
X0202Y06263
X0212Y06263
X0242Y06263
X0383Y06263
X0242Y06163
X0383Y06163
X0383Y02923
X0242Y02923
X0383Y02823
X0242Y02823
X0393Y02823
X0403Y02823
X0423Y02823
X0413Y02823
X0403Y02923
X0393Y02923
X0423Y02923
X0413Y02923
X0391Y0479
X0401Y0479
X0411Y0479
X0403Y06163
X0413Y06163
X0423Y06163
X0393Y06163
X0413Y06263
X0393Y06263
X0423Y06263
X0403Y06263
X0564Y06263
X0574Y06263
X0584Y06263
X0564Y06163
X0574Y06163
X0584Y06163
X0572Y0479
X0582Y0479
X0574Y02923
X0564Y02923
X0584Y02923
X0574Y02823
X0564Y02823
X0584Y02823
X063625Y014625
X063625Y015625
X0594Y02823
X0604Y02823
X0604Y02923
X0594Y02923
X0592Y0479
X0604Y06163
X0594Y06163
X0594Y06263
X0604Y06263
X0745Y06263
X0755Y06263
X0755Y06163
X0745Y06163
X0753Y0479
X0745Y02923
X0755Y02923
X0755Y02823
X0745Y02823
X07495Y0115
X07395Y0115
X07295Y0115
X080925Y01125
X0786Y0165
X0786Y0175
X0775Y02823
X0765Y02823
X0785Y02823
X0775Y02923
X0785Y02923
X0765Y02923
X0773Y0479
X0763Y0479
X0765Y06163
X0775Y06163
X0785Y06163
X0765Y06263
X0785Y06263
X0775Y06263
X081925Y01125
T7C.036F197S55
X015087Y0183
X0143Y0183
X0143Y019284
X015087Y019284
T8C.037F197S55
X021625Y032
X021625Y034
X03975Y034
X057875Y034
X03975Y032
X057875Y032
X0686Y0121
X0706Y0121
X075875Y032
X075875Y034
T9C.04F139S55
X020233Y015125
X019233Y015125
X020233Y016125
X019233Y016125
X020233Y017125
X019233Y017125
X020233Y018125
X019233Y018125
X020233Y019125
X019233Y019125
X020233Y020125
X019233Y020125
X020233Y021125
X019233Y021125
X0153Y0416
X0153Y0456
X0334Y0456
X0334Y0416
X0515Y0416
X0696Y0416
X0696Y0456
X0515Y0456
X07682Y013311
X0791Y013311
X07682Y012406
X0791Y012406
X0791Y0115
X07682Y0115
T10C.041F139S55
X0806Y0209
X0806Y0219
X0806Y0229
T11C.04724F139S55
X057396Y013633
X057396Y016625
X059404Y016625
X059404Y013633
T12C.091F066S55
X013237Y016422
X013237Y021162
T13C.12598F035S794
X0876Y0219
T14C.12598F035S794
X01943Y013401
X01943Y022849
X05132Y022849
X05132Y013401
T15C.126F035S794
X012Y012
X012Y0415
X012Y0631
X0494Y0631
X0485Y0375
X0494Y0145
X0868Y012
X0868Y0415
X0868Y0631
M30
