*
*
G04 PADS 9.5 Build Number: 522968 generated Gerber (RS-274-X) file*
G04 PC Version=2.1*
*
%IN "(Layout) NuGang Program"*%
*
%MOIN*%
*
%FSLAX35Y35*%
*
*
*
*
G04 PC Standard Apertures*
*
*
G04 Thermal Relief Aperture macro.*
%AMTER*
1,1,$1,0,0*
1,0,$1-$2,0,0*
21,0,$3,$4,0,0,45*
21,0,$3,$4,0,0,135*
%
*
*
G04 Annular Aperture macro.*
%AMANN*
1,1,$1,0,0*
1,0,$2,0,0*
%
*
*
G04 Odd Aperture macro.*
%AMODD*
1,1,$1,0,0*
1,0,$1-0.005,0,0*
%
*
*
G04 PC Custom Aperture Macros*
*
*
*
*
*
*
G04 PC Aperture Table*
*
%ADD021C,0.008*%
%ADD022C,0.006*%
%ADD049C,0.001*%
%ADD054R,0.03937X0.05512*%
%ADD055R,0.05512X0.03937*%
%ADD056R,0.06X0.1*%
%ADD058R,0.05X0.05*%
%ADD061R,0.04X0.05*%
%ADD062R,0.05X0.04*%
%ADD063R,0.012X0.067*%
%ADD064R,0.067X0.012*%
%ADD065O,0.07874X0.013*%
%ADD067R,0.62992X0.43307*%
%ADD068R,0.039X0.047*%
%ADD069O,0.074X0.024*%
%ADD072R,0.047X0.039*%
%ADD075R,0.055X0.04*%
%ADD076R,0.04X0.055*%
%ADD077R,0.075X0.05*%
%ADD078O,0.065X0.025*%
*
*
*
*
G04 PC Circuitry*
G04 Layer Name (Layout) NuGang Program - circuitry*
%LPD*%
*
*
G04 PC Custom Flashes*
G04 Layer Name (Layout) NuGang Program - flashes*
%LPD*%
*
*
G04 PC Circuitry*
G04 Layer Name (Layout) NuGang Program - circuitry*
%LPD*%
*
G54D21*
G01X175800Y425600D02*
X166400D01*
Y419200*
X175800*
Y425600*
X166600Y419200D02*
Y425600D01*
X167000Y419200D02*
Y425600D01*
X167400Y419200D02*
Y425600D01*
X167800Y419200D02*
Y425600D01*
X168200Y419200D02*
Y425600D01*
X168600Y419200D02*
Y425600D01*
X169000Y419200D02*
Y425600D01*
X169400Y419200D02*
Y425600D01*
X169800Y419200D02*
Y425600D01*
X170200Y419200D02*
Y425600D01*
X170600Y419200D02*
Y425600D01*
X171000Y419200D02*
Y425600D01*
X171400Y419200D02*
Y425600D01*
X171800Y419200D02*
Y425600D01*
X172200Y419200D02*
Y425600D01*
X172600Y419200D02*
Y425600D01*
X173000Y419200D02*
Y425600D01*
X173400Y419200D02*
Y425600D01*
X173800Y419200D02*
Y425600D01*
X174200Y419200D02*
Y425600D01*
X174600Y419200D02*
Y425600D01*
X175000Y419200D02*
Y425600D01*
X175400Y419200D02*
Y425600D01*
X175700Y405600D02*
X166300D01*
Y399300*
X175700*
Y405600*
X166600Y399300D02*
Y405600D01*
X167000Y399300D02*
Y405600D01*
X167400Y399300D02*
Y405600D01*
X167800Y399300D02*
Y405600D01*
X168200Y399300D02*
Y405600D01*
X168600Y399300D02*
Y405600D01*
X169000Y399300D02*
Y405600D01*
X169400Y399300D02*
Y405600D01*
X169800Y399300D02*
Y405600D01*
X170200Y399300D02*
Y405600D01*
X170600Y399300D02*
Y405600D01*
X171000Y399300D02*
Y405600D01*
X171400Y399300D02*
Y405600D01*
X171800Y399300D02*
Y405600D01*
X172200Y399300D02*
Y405600D01*
X172600Y399300D02*
Y405600D01*
X173000Y399300D02*
Y405600D01*
X173400Y399300D02*
Y405600D01*
X173800Y399300D02*
Y405600D01*
X174200Y399300D02*
Y405600D01*
X174600Y399300D02*
Y405600D01*
X175000Y399300D02*
Y405600D01*
X175400Y399300D02*
Y405600D01*
X356800Y425600D02*
X347400D01*
Y419200*
X356800*
Y425600*
X347600Y419200D02*
Y425600D01*
X348000Y419200D02*
Y425600D01*
X348400Y419200D02*
Y425600D01*
X348800Y419200D02*
Y425600D01*
X349200Y419200D02*
Y425600D01*
X349600Y419200D02*
Y425600D01*
X350000Y419200D02*
Y425600D01*
X350400Y419200D02*
Y425600D01*
X350800Y419200D02*
Y425600D01*
X351200Y419200D02*
Y425600D01*
X351600Y419200D02*
Y425600D01*
X352000Y419200D02*
Y425600D01*
X352400Y419200D02*
Y425600D01*
X352800Y419200D02*
Y425600D01*
X353200Y419200D02*
Y425600D01*
X353600Y419200D02*
Y425600D01*
X354000Y419200D02*
Y425600D01*
X354400Y419200D02*
Y425600D01*
X354800Y419200D02*
Y425600D01*
X355200Y419200D02*
Y425600D01*
X355600Y419200D02*
Y425600D01*
X356000Y419200D02*
Y425600D01*
X356400Y419200D02*
Y425600D01*
X356700Y405600D02*
X347300D01*
Y399300*
X356700*
Y405600*
X347600Y399300D02*
Y405600D01*
X348000Y399300D02*
Y405600D01*
X348400Y399300D02*
Y405600D01*
X348800Y399300D02*
Y405600D01*
X349200Y399300D02*
Y405600D01*
X349600Y399300D02*
Y405600D01*
X350000Y399300D02*
Y405600D01*
X350400Y399300D02*
Y405600D01*
X350800Y399300D02*
Y405600D01*
X351200Y399300D02*
Y405600D01*
X351600Y399300D02*
Y405600D01*
X352000Y399300D02*
Y405600D01*
X352400Y399300D02*
Y405600D01*
X352800Y399300D02*
Y405600D01*
X353200Y399300D02*
Y405600D01*
X353600Y399300D02*
Y405600D01*
X354000Y399300D02*
Y405600D01*
X354400Y399300D02*
Y405600D01*
X354800Y399300D02*
Y405600D01*
X355200Y399300D02*
Y405600D01*
X355600Y399300D02*
Y405600D01*
X356000Y399300D02*
Y405600D01*
X356400Y399300D02*
Y405600D01*
X537800Y425600D02*
X528400D01*
Y419200*
X537800*
Y425600*
X528600Y419200D02*
Y425600D01*
X529000Y419200D02*
Y425600D01*
X529400Y419200D02*
Y425600D01*
X529800Y419200D02*
Y425600D01*
X530200Y419200D02*
Y425600D01*
X530600Y419200D02*
Y425600D01*
X531000Y419200D02*
Y425600D01*
X531400Y419200D02*
Y425600D01*
X531800Y419200D02*
Y425600D01*
X532200Y419200D02*
Y425600D01*
X532600Y419200D02*
Y425600D01*
X533000Y419200D02*
Y425600D01*
X533400Y419200D02*
Y425600D01*
X533800Y419200D02*
Y425600D01*
X534200Y419200D02*
Y425600D01*
X534600Y419200D02*
Y425600D01*
X535000Y419200D02*
Y425600D01*
X535400Y419200D02*
Y425600D01*
X535800Y419200D02*
Y425600D01*
X536200Y419200D02*
Y425600D01*
X536600Y419200D02*
Y425600D01*
X537000Y419200D02*
Y425600D01*
X537400Y419200D02*
Y425600D01*
X537700Y405600D02*
X528300D01*
Y399300*
X537700*
Y405600*
X528600Y399300D02*
Y405600D01*
X529000Y399300D02*
Y405600D01*
X529400Y399300D02*
Y405600D01*
X529800Y399300D02*
Y405600D01*
X530200Y399300D02*
Y405600D01*
X530600Y399300D02*
Y405600D01*
X531000Y399300D02*
Y405600D01*
X531400Y399300D02*
Y405600D01*
X531800Y399300D02*
Y405600D01*
X532200Y399300D02*
Y405600D01*
X532600Y399300D02*
Y405600D01*
X533000Y399300D02*
Y405600D01*
X533400Y399300D02*
Y405600D01*
X533800Y399300D02*
Y405600D01*
X534200Y399300D02*
Y405600D01*
X534600Y399300D02*
Y405600D01*
X535000Y399300D02*
Y405600D01*
X535400Y399300D02*
Y405600D01*
X535800Y399300D02*
Y405600D01*
X536200Y399300D02*
Y405600D01*
X536600Y399300D02*
Y405600D01*
X537000Y399300D02*
Y405600D01*
X537400Y399300D02*
Y405600D01*
X718800Y425600D02*
X709400D01*
Y419200*
X718800*
Y425600*
X709600Y419200D02*
Y425600D01*
X710000Y419200D02*
Y425600D01*
X710400Y419200D02*
Y425600D01*
X710800Y419200D02*
Y425600D01*
X711200Y419200D02*
Y425600D01*
X711600Y419200D02*
Y425600D01*
X712000Y419200D02*
Y425600D01*
X712400Y419200D02*
Y425600D01*
X712800Y419200D02*
Y425600D01*
X713200Y419200D02*
Y425600D01*
X713600Y419200D02*
Y425600D01*
X714000Y419200D02*
Y425600D01*
X714400Y419200D02*
Y425600D01*
X714800Y419200D02*
Y425600D01*
X715200Y419200D02*
Y425600D01*
X715600Y419200D02*
Y425600D01*
X716000Y419200D02*
Y425600D01*
X716400Y419200D02*
Y425600D01*
X716800Y419200D02*
Y425600D01*
X717200Y419200D02*
Y425600D01*
X717600Y419200D02*
Y425600D01*
X718000Y419200D02*
Y425600D01*
X718400Y419200D02*
Y425600D01*
X718700Y405600D02*
X709300D01*
Y399300*
X718700*
Y405600*
X709600Y399300D02*
Y405600D01*
X710000Y399300D02*
Y405600D01*
X710400Y399300D02*
Y405600D01*
X710800Y399300D02*
Y405600D01*
X711200Y399300D02*
Y405600D01*
X711600Y399300D02*
Y405600D01*
X712000Y399300D02*
Y405600D01*
X712400Y399300D02*
Y405600D01*
X712800Y399300D02*
Y405600D01*
X713200Y399300D02*
Y405600D01*
X713600Y399300D02*
Y405600D01*
X714000Y399300D02*
Y405600D01*
X714400Y399300D02*
Y405600D01*
X714800Y399300D02*
Y405600D01*
X715200Y399300D02*
Y405600D01*
X715600Y399300D02*
Y405600D01*
X716000Y399300D02*
Y405600D01*
X716400Y399300D02*
Y405600D01*
X716800Y399300D02*
Y405600D01*
X717200Y399300D02*
Y405600D01*
X717600Y399300D02*
Y405600D01*
X718000Y399300D02*
Y405600D01*
X718400Y399300D02*
Y405600D01*
G54D22*
X100000Y100000D02*
X888000D01*
Y651000*
X100000*
Y100000*
G54D49*
G54D54*
X659596Y183750D03*
X652904D03*
X249596Y155500D03*
X242904D03*
X774654Y258000D03*
X781346D03*
X690346Y138000D03*
X683654D03*
X355346Y389000D03*
X348654D03*
X346346Y317000D03*
X339654D03*
X536346Y389000D03*
X529654D03*
X527346Y317000D03*
X520654D03*
X717346Y389000D03*
X710654D03*
X708346Y317000D03*
X701654D03*
X699654Y138000D03*
X706346D03*
X174346Y389000D03*
X167654D03*
X165346Y317000D03*
X158654D03*
G54D55*
X550000Y407654D03*
Y414346D03*
X731000Y407654D03*
Y414346D03*
X179200Y137654D03*
Y144346D03*
X251250Y210846D03*
Y204154D03*
X188000Y407654D03*
Y414346D03*
X369000Y407654D03*
Y414346D03*
X721250Y193346D03*
Y186654D03*
X242500Y210846D03*
Y204154D03*
X725000Y222654D03*
Y229346D03*
X690000Y222654D03*
Y229346D03*
X451250Y170404D03*
Y177096D03*
G54D56*
X771000Y245000D03*
X785000D03*
G54D58*
X171000Y422000D03*
Y402000D03*
X352000Y422000D03*
Y402000D03*
X533000Y422000D03*
Y402000D03*
X714000Y422000D03*
Y402000D03*
G54D61*
X167250Y210000D03*
X175250D03*
X734000Y223000D03*
X742000D03*
X699000D03*
X707000D03*
X237000Y435000D03*
X229000D03*
X175000Y452000D03*
X167000D03*
X175000Y380000D03*
X167000D03*
X199000Y372000D03*
X207000D03*
X199000Y364000D03*
X207000D03*
X281500Y175500D03*
X273500D03*
X149000Y398000D03*
X157000D03*
X356000Y452000D03*
X348000D03*
X356000Y380000D03*
X348000D03*
X330000Y398000D03*
X338000D03*
X418000Y435000D03*
X410000D03*
X380000Y372000D03*
X388000D03*
X380000Y364000D03*
X388000D03*
X599000Y435000D03*
X591000D03*
X281500Y191750D03*
X273500D03*
X537000Y452000D03*
X529000D03*
X537000Y380000D03*
X529000D03*
X561000Y372000D03*
X569000D03*
X561000Y364000D03*
X569000D03*
X511000Y398000D03*
X519000D03*
X718000Y452000D03*
X710000D03*
X718000Y380000D03*
X710000D03*
X692000Y398000D03*
X700000D03*
X281500Y184250D03*
X273500D03*
X780000Y435000D03*
X772000D03*
X742000Y372000D03*
X750000D03*
X742000Y364000D03*
X750000D03*
X706000Y202000D03*
X698000D03*
X167250Y201250D03*
X175250D03*
X167250Y192500D03*
X175250D03*
X653500Y146250D03*
X661500D03*
X724000Y255000D03*
X716000D03*
X221000Y357000D03*
X229000D03*
X402000D03*
X410000D03*
X583000D03*
X591000D03*
X764000D03*
X772000D03*
X726500Y163750D03*
X718500D03*
X726500Y155000D03*
X718500D03*
X167100Y183000D03*
X175100D03*
G54D62*
X767000Y165000D03*
Y173000D03*
X730000Y194000D03*
Y186000D03*
X442500Y169750D03*
Y177750D03*
X179700Y156500D03*
Y164500D03*
G54D63*
X751173Y384874D03*
X753142D03*
X755110D03*
X757079D03*
X759047D03*
X761016D03*
X762984D03*
X764953D03*
X766921D03*
X768890D03*
X770858D03*
X772827D03*
Y419126D03*
X770858D03*
X768890D03*
X766921D03*
X764953D03*
X762984D03*
X761016D03*
X759047D03*
X757079D03*
X755110D03*
X753142D03*
X751173D03*
X678173Y154874D03*
X680142D03*
X682110D03*
X684079D03*
X686047D03*
X688016D03*
X689984D03*
X691953D03*
X693921D03*
X695890D03*
X697858D03*
X699827D03*
Y189126D03*
X697858D03*
X695890D03*
X693921D03*
X691953D03*
X689984D03*
X688016D03*
X686047D03*
X684079D03*
X682110D03*
X680142D03*
X678173D03*
X208173Y384874D03*
X210142D03*
X212110D03*
X214079D03*
X216047D03*
X218016D03*
X219984D03*
X221953D03*
X223921D03*
X225890D03*
X227858D03*
X229827D03*
Y419126D03*
X227858D03*
X225890D03*
X223921D03*
X221953D03*
X219984D03*
X218016D03*
X216047D03*
X214079D03*
X212110D03*
X210142D03*
X208173D03*
X389173Y384874D03*
X391142D03*
X393110D03*
X395079D03*
X397047D03*
X399016D03*
X400984D03*
X402953D03*
X404921D03*
X406890D03*
X408858D03*
X410827D03*
Y419126D03*
X408858D03*
X406890D03*
X404921D03*
X402953D03*
X400984D03*
X399016D03*
X397047D03*
X395079D03*
X393110D03*
X391142D03*
X389173D03*
X570173Y384874D03*
X572142D03*
X574110D03*
X576079D03*
X578047D03*
X580016D03*
X581984D03*
X583953D03*
X585921D03*
X587890D03*
X589858D03*
X591827D03*
Y419126D03*
X589858D03*
X587890D03*
X585921D03*
X583953D03*
X581984D03*
X580016D03*
X578047D03*
X576079D03*
X574110D03*
X572142D03*
X570173D03*
G54D64*
X779126Y391173D03*
Y393142D03*
Y395110D03*
Y397079D03*
Y399047D03*
Y401016D03*
Y402984D03*
Y404953D03*
Y406921D03*
Y408890D03*
Y410858D03*
Y412827D03*
X744874D03*
Y410858D03*
Y408890D03*
Y406921D03*
Y404953D03*
Y402984D03*
Y401016D03*
Y399047D03*
Y397079D03*
Y395110D03*
Y393142D03*
Y391173D03*
X706126Y161173D03*
Y163142D03*
Y165110D03*
Y167079D03*
Y169047D03*
Y171016D03*
Y172984D03*
Y174953D03*
Y176921D03*
Y178890D03*
Y180858D03*
Y182827D03*
X671874D03*
Y180858D03*
Y178890D03*
Y176921D03*
Y174953D03*
Y172984D03*
Y171016D03*
Y169047D03*
Y167079D03*
Y165110D03*
Y163142D03*
Y161173D03*
X236126Y391173D03*
Y393142D03*
Y395110D03*
Y397079D03*
Y399047D03*
Y401016D03*
Y402984D03*
Y404953D03*
Y406921D03*
Y408890D03*
Y410858D03*
Y412827D03*
X201874D03*
Y410858D03*
Y408890D03*
Y406921D03*
Y404953D03*
Y402984D03*
Y401016D03*
Y399047D03*
Y397079D03*
Y395110D03*
Y393142D03*
Y391173D03*
X417126D03*
Y393142D03*
Y395110D03*
Y397079D03*
Y399047D03*
Y401016D03*
Y402984D03*
Y404953D03*
Y406921D03*
Y408890D03*
Y410858D03*
Y412827D03*
X382874D03*
Y410858D03*
Y408890D03*
Y406921D03*
Y404953D03*
Y402984D03*
Y401016D03*
Y399047D03*
Y397079D03*
Y395110D03*
Y393142D03*
Y391173D03*
X598126D03*
Y393142D03*
Y395110D03*
Y397079D03*
Y399047D03*
Y401016D03*
Y402984D03*
Y404953D03*
Y406921D03*
Y408890D03*
Y410858D03*
Y412827D03*
X563874D03*
Y410858D03*
Y408890D03*
Y406921D03*
Y404953D03*
Y402984D03*
Y401016D03*
Y399047D03*
Y397079D03*
Y395110D03*
Y393142D03*
Y391173D03*
G54D65*
X261250Y163750D03*
Y166309D03*
Y168868D03*
Y171427D03*
Y173986D03*
Y176545D03*
Y179104D03*
Y181663D03*
Y184222D03*
Y186781D03*
Y189341D03*
Y191900D03*
Y194459D03*
Y197018D03*
X232116D03*
Y194459D03*
Y191900D03*
Y189341D03*
Y186781D03*
Y184222D03*
Y181663D03*
Y179104D03*
Y176545D03*
Y173986D03*
Y171427D03*
Y168868D03*
Y166309D03*
Y163750D03*
G54D67*
X855850Y219067D03*
G54D68*
X488000Y257000D03*
X495480D03*
X491740Y266370D03*
X699000Y231000D03*
X706480D03*
X702740Y240370D03*
X734000Y231000D03*
X741480D03*
X737740Y240370D03*
G54D69*
X589300Y221000D03*
Y226000D03*
Y231000D03*
Y236000D03*
Y241000D03*
Y246000D03*
Y251000D03*
X566700D03*
Y246000D03*
Y241000D03*
Y236000D03*
Y231000D03*
Y226000D03*
Y221000D03*
X641300D03*
Y226000D03*
Y231000D03*
Y236000D03*
Y241000D03*
Y246000D03*
Y251000D03*
X618700D03*
Y246000D03*
Y241000D03*
Y236000D03*
Y231000D03*
Y226000D03*
Y221000D03*
G54D72*
X433750Y170000D03*
Y177480D03*
X424380Y173740D03*
G54D75*
X175650Y434300D03*
Y441700D03*
X166350Y438000D03*
X356650Y434300D03*
Y441700D03*
X347350Y438000D03*
X537650Y434300D03*
Y441700D03*
X528350Y438000D03*
X718650Y434300D03*
Y441700D03*
X709350Y438000D03*
G54D76*
X699700Y388650D03*
X692300D03*
X696000Y379350D03*
X518700Y388650D03*
X511300D03*
X515000Y379350D03*
X337700Y388650D03*
X330300D03*
X334000Y379350D03*
X156700Y388650D03*
X149300D03*
X153000Y379350D03*
G54D77*
X153200Y355100D03*
Y367600D03*
X332800Y352900D03*
Y365400D03*
X514800Y353800D03*
Y366300D03*
X696600Y354800D03*
Y367300D03*
X702800Y252200D03*
Y264700D03*
G54D78*
X238449Y370400D03*
Y365400D03*
Y360400D03*
Y355400D03*
X269551D03*
Y360400D03*
Y365400D03*
Y370400D03*
X419949Y368500D03*
Y363500D03*
Y358500D03*
Y353500D03*
X451051D03*
Y358500D03*
Y363500D03*
Y368500D03*
X602749Y369700D03*
Y364700D03*
Y359700D03*
Y354700D03*
X633851D03*
Y359700D03*
Y364700D03*
Y369700D03*
X783749Y371300D03*
Y366300D03*
Y361300D03*
Y356300D03*
X814851D03*
Y361300D03*
Y366300D03*
Y371300D03*
X616949Y132500D03*
Y127500D03*
Y122500D03*
Y117500D03*
X648051D03*
Y122500D03*
Y127500D03*
Y132500D03*
X0Y0D02*
M02*
