*
*
G04 PADS 9.5 Build Number: 522968 generated Gerber (RS-274-X) file*
G04 PC Version=2.1*
*
%IN "(Layout) NuGang Program"*%
*
%MOIN*%
*
%FSLAX35Y35*%
*
*
*
*
G04 PC Standard Apertures*
*
*
G04 Thermal Relief Aperture macro.*
%AMTER*
1,1,$1,0,0*
1,0,$1-$2,0,0*
21,0,$3,$4,0,0,45*
21,0,$3,$4,0,0,135*
%
*
*
G04 Annular Aperture macro.*
%AMANN*
1,1,$1,0,0*
1,0,$2,0,0*
%
*
*
G04 Odd Aperture macro.*
%AMODD*
1,1,$1,0,0*
1,0,$1-0.005,0,0*
%
*
*
G04 PC Custom Aperture Macros*
*
*
*
*
*
*
G04 PC Aperture Table*
*
%ADD022C,0.006*%
%ADD049C,0.001*%
%ADD079C,0.04*%
*
*
*
*
G04 PC Circuitry*
G04 Layer Name (Layout) NuGang Program - circuitry*
%LPD*%
*
*
G04 PC Custom Flashes*
G04 Layer Name (Layout) NuGang Program - flashes*
%LPD*%
*
*
G04 PC Circuitry*
G04 Layer Name (Layout) NuGang Program - circuitry*
%LPD*%
*
G54D22*
G01X100000Y100000D02*
X888000D01*
Y651000*
X100000*
Y100000*
G54D49*
G54D79*
X814836Y566975D02*
Y527600D01*
Y566975D02*
X795745Y527600D01*
Y566975D02*
Y527600D01*
X783473Y553850D02*
Y535100D01*
X782109Y529475*
X779382Y527600*
X775291*
X772564Y529475*
X768473Y535100*
Y553850D02*
Y527600D01*
X735745Y557600D02*
X737109Y561350D01*
X739836Y565100*
X742564Y566975*
X748018*
X750745Y565100*
X753473Y561350*
X754836Y557600*
X756200Y551975*
Y542600*
X754836Y536975*
X753473Y533225*
X750745Y529475*
X748018Y527600*
X742564*
X739836Y529475*
X737109Y533225*
X735745Y536975*
Y542600*
X742564D02*
X735745D01*
X707109Y553850D02*
Y527600D01*
Y548225D02*
X709836Y551975D01*
X712564Y553850*
X716655*
X719382Y551975*
X722109Y548225*
X723473Y542600*
Y538850*
X722109Y533225*
X719382Y529475*
X716655Y527600*
X712564*
X709836Y529475*
X707109Y533225*
X694836Y553850D02*
Y527600D01*
Y546350D02*
X690745Y551975D01*
X688018Y553850*
X683927*
X681200Y551975*
X679836Y546350*
Y527600*
X651200Y553850D02*
Y523850D01*
X652564Y518225*
X653927Y516350*
X656655Y514475*
X660745*
X663473Y516350*
X651200Y548225D02*
X653927Y551975D01*
X656655Y553850*
X660745*
X663473Y551975*
X666200Y548225*
X667564Y542600*
Y538850*
X666200Y533225*
X663473Y529475*
X660745Y527600*
X656655*
X653927Y529475*
X651200Y533225*
X607564Y566975D02*
Y527600D01*
Y566975D02*
X595291D01*
X591200Y565100*
X589836Y563225*
X588473Y559475*
Y553850*
X589836Y550100*
X591200Y548225*
X595291Y546350*
X607564*
X576200Y553850D02*
Y527600D01*
Y542600D02*
X574836Y548225D01*
X572109Y551975*
X569382Y553850*
X565291*
X546200D02*
X548927Y551975D01*
X551655Y548225*
X553018Y542600*
Y538850*
X551655Y533225*
X548927Y529475*
X546200Y527600*
X542109*
X539382Y529475*
X536655Y533225*
X535291Y538850*
Y542600*
X536655Y548225*
X539382Y551975*
X542109Y553850*
X546200*
X506655D02*
Y523850D01*
X508018Y518225*
X509382Y516350*
X512109Y514475*
X516200*
X518927Y516350*
X506655Y548225D02*
X509382Y551975D01*
X512109Y553850*
X516200*
X518927Y551975*
X521655Y548225*
X523018Y542600*
Y538850*
X521655Y533225*
X518927Y529475*
X516200Y527600*
X512109*
X509382Y529475*
X506655Y533225*
X494382Y553850D02*
Y527600D01*
Y542600D02*
X493018Y548225D01*
X490291Y551975*
X487564Y553850*
X483473*
X454836D02*
Y527600D01*
Y548225D02*
X457564Y551975D01*
X460291Y553850*
X464382*
X467109Y551975*
X469836Y548225*
X471200Y542600*
Y538850*
X469836Y533225*
X467109Y529475*
X464382Y527600*
X460291*
X457564Y529475*
X454836Y533225*
X442564Y553850D02*
Y527600D01*
Y546350D02*
X438473Y551975D01*
X435745Y553850*
X431655*
X428927Y551975*
X427564Y546350*
Y527600*
Y546350D02*
X423473Y551975D01*
X420745Y553850*
X416655*
X413927Y551975*
X412564Y546350*
Y527600*
X400291Y553850D02*
Y527600D01*
Y546350D02*
X396200Y551975D01*
X393473Y553850*
X389382*
X386655Y551975*
X385291Y546350*
Y527600*
Y546350D02*
X381200Y551975D01*
X378473Y553850*
X374382*
X371655Y551975*
X370291Y546350*
Y527600*
X358018Y542600D02*
X341655D01*
Y546350*
X343018Y550100*
X344382Y551975*
X347109Y553850*
X351200*
X353927Y551975*
X356655Y548225*
X358018Y542600*
Y538850*
X356655Y533225*
X353927Y529475*
X351200Y527600*
X347109*
X344382Y529475*
X341655Y533225*
X329382Y553850D02*
Y527600D01*
Y542600D02*
X328018Y548225D01*
X325291Y551975*
X322564Y553850*
X318473*
X303473Y529475D02*
X304836Y527600D01*
X306200Y529475*
X304836Y531350*
X303473Y529475*
Y525725*
X304836Y521975*
X306200Y520100*
X259836Y566975D02*
X248927Y527600D01*
X238018Y566975D02*
X248927Y527600D01*
X223018Y566975D02*
X208018D01*
X216200Y551975*
X212109*
X209382Y550100*
X208018Y548225*
X206655Y542600*
Y538850*
X208018Y533225*
X210745Y529475*
X214836Y527600*
X218927*
X223018Y529475*
X224382Y531350*
X225745Y535100*
X193018Y531350D02*
X194382Y529475D01*
X193018Y527600*
X191655Y529475*
X193018Y531350*
X171200Y566975D02*
X175291Y565100D01*
X178018Y559475*
X179382Y550100*
Y544475*
X178018Y535100*
X175291Y529475*
X171200Y527600*
X168473*
X164382Y529475*
X161655Y535100*
X160291Y544475*
Y550100*
X161655Y559475*
X164382Y565100*
X168473Y566975*
X171200*
X0Y0D02*
M02*
