*
*
G04 PADS 9.5 Build Number: 522968 generated Gerber (RS-274-X) file*
G04 PC Version=2.1*
*
%IN "(Layout) NuGang Program"*%
*
%MOIN*%
*
%FSLAX35Y35*%
*
*
*
*
G04 PC Standard Apertures*
*
*
G04 Thermal Relief Aperture macro.*
%AMTER*
1,1,$1,0,0*
1,0,$1-$2,0,0*
21,0,$3,$4,0,0,45*
21,0,$3,$4,0,0,135*
%
*
*
G04 Annular Aperture macro.*
%AMANN*
1,1,$1,0,0*
1,0,$2,0,0*
%
*
*
G04 Odd Aperture macro.*
%AMODD*
1,1,$1,0,0*
1,0,$1-0.005,0,0*
%
*
*
G04 PC Custom Aperture Macros*
*
*
*
*
*
*
G04 PC Aperture Table*
*
%ADD040C,0.07*%
%ADD041R,0.07X0.07*%
%ADD049C,0.001*%
%ADD085C,0.14*%
%ADD086O,0.08087X0.19898*%
%ADD087O,0.19898X0.08087*%
%ADD093C,0.075*%
%ADD094C,0.17*%
%ADD098C,0.08087*%
%ADD099C,0.29*%
%ADD101C,0.02969*%
%ADD102C,0.13598*%
*
*
*
*
G04 PC Circuitry*
G04 Layer Name (Layout) NuGang Program - circuitry*
%LPD*%
*
*
G04 PC Custom Flashes*
G04 Layer Name (Layout) NuGang Program - flashes*
%LPD*%
*
*
G04 PC Circuitry*
G04 Layer Name (Layout) NuGang Program - circuitry*
%LPD*%
*
G54D40*
G01X150874Y192843D03*
X143000D03*
Y183000D03*
X242000Y282300D03*
X232000Y292300D03*
Y282300D03*
X222000Y292300D03*
Y282300D03*
X212000Y292300D03*
Y282300D03*
X202000Y292300D03*
Y282300D03*
X819250Y112500D03*
X423000Y282300D03*
X413000Y292300D03*
Y282300D03*
X403000Y292300D03*
Y282300D03*
X393000Y292300D03*
Y282300D03*
X383000Y292300D03*
Y282300D03*
X604000D03*
X594000Y292300D03*
Y282300D03*
X584000Y292300D03*
Y282300D03*
X574000Y292300D03*
Y282300D03*
X564000Y292300D03*
Y282300D03*
X785000D03*
X775000Y292300D03*
Y282300D03*
X765000Y292300D03*
Y282300D03*
X755000Y292300D03*
Y282300D03*
X745000Y292300D03*
Y282300D03*
X202000Y626300D03*
X212000Y616300D03*
Y626300D03*
X222000Y616300D03*
Y626300D03*
X232000Y616300D03*
Y626300D03*
X242000Y616300D03*
Y626300D03*
X383000D03*
X393000Y616300D03*
Y626300D03*
X403000Y616300D03*
Y626300D03*
X413000Y616300D03*
Y626300D03*
X423000Y616300D03*
Y626300D03*
X564000D03*
X574000Y616300D03*
Y626300D03*
X584000Y616300D03*
Y626300D03*
X594000Y616300D03*
Y626300D03*
X604000Y616300D03*
Y626300D03*
X745000D03*
X755000Y616300D03*
Y626300D03*
X765000Y616300D03*
Y626300D03*
X775000Y616300D03*
Y626300D03*
X785000Y616300D03*
Y626300D03*
X739500Y115000D03*
X749500D03*
X153000Y456000D03*
Y416000D03*
X334000Y456000D03*
Y416000D03*
X515000Y456000D03*
Y416000D03*
X696000Y456000D03*
Y416000D03*
X636250Y146250D03*
X786000Y165000D03*
X791000Y115000D03*
Y124055D03*
Y133110D03*
X768205D03*
Y124055D03*
Y115000D03*
X686000Y121000D03*
X706000D03*
X396270Y181250D03*
X366348D03*
X220000Y479000D03*
X230000D03*
X401000D03*
X411000D03*
X582000D03*
X592000D03*
X763000D03*
X773000D03*
X192333Y151250D03*
X202333Y161250D03*
X192333D03*
X202333Y171250D03*
X192333D03*
X202333Y181250D03*
X192333D03*
X202333Y191250D03*
X192333D03*
X202333Y201250D03*
X192333D03*
X202333Y211250D03*
X192333D03*
X216250Y340000D03*
Y320000D03*
X397500Y340000D03*
Y320000D03*
X578750Y340000D03*
Y320000D03*
X758750Y340000D03*
Y320000D03*
G54D41*
X150874Y183000D03*
X242000Y292300D03*
X809250Y112500D03*
X423000Y292300D03*
X604000D03*
X785000D03*
X202000Y616300D03*
X383000D03*
X564000D03*
X745000D03*
X729500Y115000D03*
X636250Y156250D03*
X786000Y175000D03*
X210000Y479000D03*
X391000D03*
X572000D03*
X753000D03*
X202333Y151250D03*
G54D49*
G54D85*
X132370Y164220D03*
Y211622D03*
G54D86*
X831394Y161000D03*
X856000D03*
G54D87*
X843205Y180685D03*
G54D93*
X806000Y229000D03*
Y219000D03*
Y209000D03*
G54D94*
X876000Y219000D03*
G54D98*
X573961Y166250D03*
Y136329D03*
X594039D03*
Y166250D03*
G54D99*
X120000Y631000D03*
X868000D03*
X485000Y375000D03*
X868000Y120000D03*
X120000D03*
X494000Y631000D03*
X120000Y415000D03*
X868000D03*
X494000Y145000D03*
G54D101*
X516230Y203888D03*
Y193888D03*
Y168612D03*
Y158612D03*
G54D102*
X194301Y228494D03*
Y134006D03*
X513199D03*
Y228494D03*
X0Y0D02*
M02*
