*
*
G04 PADS 9.5 Build Number: 522968 generated Gerber (RS-274-X) file*
G04 PC Version=2.1*
*
%IN "ICP Gang Adapter, M058S"*%
*
%MOIN*%
*
%FSLAX35Y35*%
*
*
*
*
G04 PC Standard Apertures*
*
*
G04 Thermal Relief Aperture macro.*
%AMTER*
1,1,$1,0,0*
1,0,$1-$2,0,0*
21,0,$3,$4,0,0,45*
21,0,$3,$4,0,0,135*
%
*
*
G04 Annular Aperture macro.*
%AMANN*
1,1,$1,0,0*
1,0,$2,0,0*
%
*
*
G04 Odd Aperture macro.*
%AMODD*
1,1,$1,0,0*
1,0,$1-0.005,0,0*
%
*
*
G04 PC Custom Aperture Macros*
*
*
*
*
*
*
G04 PC Aperture Table*
*
%ADD016C,0.01*%
%ADD032C,0.06*%
%ADD033R,0.06X0.06*%
%ADD034C,0.05*%
%ADD035C,0.12*%
%ADD037C,0.015*%
%ADD049C,0.001*%
%ADD051C,0.024*%
%ADD052C,0.03*%
%ADD056R,0.05X0.05*%
*
*
*
*
G04 PC Circuitry*
G04 Layer Name ICP Gang Adapter, M058S - circuitry*
%LPD*%
*
*
G04 PC Custom Flashes*
G04 Layer Name ICP Gang Adapter, M058S - flashes*
%LPD*%
*
*
G04 PC Circuitry*
G04 Layer Name ICP Gang Adapter, M058S - circuitry*
%LPD*%
*
G54D16*
G01X194000Y179000D02*
X250000D01*
X375000D02*
X431000D01*
X556000D02*
X612000D01*
X793000D02*
X737000D01*
X797000Y169000D02*
G75*
G03X797000I-4000J0D01*
G01X741000D02*
G03X741000I-4000J0D01*
G01X809424Y260063D02*
G03X809424I-7400J0D01*
G01Y334867D02*
G03X809424I-7400J0D01*
G01X734620Y260063D02*
G03X734620I-7400J0D01*
G01Y334867D02*
G03X734620I-7400J0D01*
G01X616000Y169000D02*
G03X616000I-4000J0D01*
G01X560000D02*
G03X560000I-4000J0D01*
G01X628424Y260063D02*
G03X628424I-7400J0D01*
G01Y334867D02*
G03X628424I-7400J0D01*
G01X553620Y260063D02*
G03X553620I-7400J0D01*
G01Y334867D02*
G03X553620I-7400J0D01*
G01X435000Y169000D02*
G03X435000I-4000J0D01*
G01X379000D02*
G03X379000I-4000J0D01*
G01X447424Y260063D02*
G03X447424I-7400J0D01*
G01Y334867D02*
G03X447424I-7400J0D01*
G01X372620Y260063D02*
G03X372620I-7400J0D01*
G01Y334867D02*
G03X372620I-7400J0D01*
G01X254000Y169000D02*
G03X254000I-4000J0D01*
G01X266424Y260063D02*
G03X266424I-7400J0D01*
G01Y334867D02*
G03X266424I-7400J0D01*
G01X191620Y260063D02*
G03X191620I-7400J0D01*
G01Y334867D02*
G03X191620I-7400J0D01*
G01X885000Y105214D02*
Y486786D01*
G03X884854Y487139I-500J-0*
G01X881939Y490054*
G03X881586Y490200I-353J-354*
G01X107614*
G03X107261Y490054I0J-500*
G01X104346Y487139*
G03X104200Y486786I354J-353*
G01Y105214*
G03X104346Y104861I500J0*
G01X107261Y101946*
G03X107614Y101800I353J354*
G01X881586*
G03X881939Y101946I-0J500*
G01X884854Y104861*
G03X885000Y105214I-354J353*
G01X780500Y124987D02*
G03X785018Y129500I4500J13D01*
G01X780500Y124987D02*
G03Y125000I-500J-1D01*
Y125013I-500J14*
G01X784982Y129500D02*
G03X780500Y125013I18J-4500D01*
G01X784982Y129500D02*
G03X785000I-2J500D01*
X785018I20J500*
G01X789500Y138000D02*
Y132000D01*
X788000Y130500D02*
G03X789500Y132000I0J1500D01*
G01X788000Y130500D02*
X785020D01*
G03X785000I0J-500*
X784980I-20J-500*
G01X782000*
X780500Y132000D02*
G03X782000Y130500I1500J0D01*
G01X780500Y132000D02*
Y134980D01*
G03Y135000I-500J-0*
Y135020I-500J20*
G01Y138000*
X782000Y139500D02*
G03X780500Y138000I0J-1500D01*
G01X782000Y139500D02*
X788000D01*
X789500Y138000D02*
G03X788000Y139500I-1500J0D01*
G01X797000Y169000D02*
G03X797000I-4000J0D01*
G01X779500Y125000D02*
G03Y124987I500J-14D01*
G01X770500D02*
G03X779500I4500J13D01*
G01X770500D02*
G03Y125000I-500J-1D01*
Y125013I-500J14*
G01X774987Y129500D02*
G03X770500Y125013I13J-4500D01*
G01X774987Y129500D02*
G03X775000I-1J500D01*
X775013I14J500*
G01X779500Y125013D02*
G03X775013Y129500I-4500J-13D01*
G01X779500Y125013D02*
G03Y125000I500J1D01*
G01Y135000D02*
G03Y134982I500J-20D01*
G01X775013Y130500D02*
G03X779500Y134982I-13J4500D01*
G01X775013Y130500D02*
G03X775000I1J-500D01*
X774987I-14J-500*
G01X770500Y134987D02*
G03X774987Y130500I4500J13D01*
G01X770500Y134987D02*
G03Y135000I-500J-1D01*
Y135013I-500J14*
G01X779500Y135018D02*
G03X770500Y135013I-4500J-18D01*
G01X779500Y135018D02*
G03Y135000I500J2D01*
G01X769500Y125000D02*
G03Y124987I500J-14D01*
G01X766168Y120654D02*
G03X769500Y124987I-1168J4346D01*
G01X766168Y120654D02*
G03X766026Y120591I130J-483D01*
G01X762698Y118440*
G03X762616Y118373I272J-420*
G01X758021Y113779*
X755900Y112900D02*
G03X758021Y113779I0J3000D01*
G01X755900Y112900D02*
X593100D01*
X590979Y113779D02*
G03X593100Y112900I2121J2121D01*
G01X590979Y113779D02*
X586384Y118373D01*
G03X586302Y118440I-354J-353*
G01X583835Y120034*
G03X583210Y119968I-271J-420*
G01X576921Y113679*
X574800Y112800D02*
G03X576921Y113679I0J3000D01*
G01X574800Y112800D02*
X412200D01*
X410079Y113679D02*
G03X412200Y112800I2121J2121D01*
G01X410079Y113679D02*
X405384Y118373D01*
G03X405302Y118440I-354J-353*
G01X403271Y119752*
G03X402729I-271J-420*
G01X400698Y118440*
G03X400616Y118373I272J-420*
G01X396221Y113979*
X394100Y113100D02*
G03X396221Y113979I0J3000D01*
G01X394100Y113100D02*
X230900D01*
X228779Y113979D02*
G03X230900Y113100I2121J2121D01*
G01X228779Y113979D02*
X224384Y118373D01*
G03X224302Y118440I-354J-353*
G01X220974Y120591*
G03X220832Y120654I-272J-420*
G01X217500Y124987D02*
G03X220832Y120654I4500J13D01*
G01X217500Y124987D02*
G03Y125000I-500J-1D01*
Y125013I-500J14*
G01X221987Y129500D02*
G03X217500Y125013I13J-4500D01*
G01X221987Y129500D02*
G03X222000I-1J500D01*
X222013I14J500*
G01X226346Y126168D02*
G03X222013Y129500I-4346J-1168D01*
G01X226346Y126168D02*
G03X226409Y126026I483J130D01*
G01X226663Y125634*
G03X227574Y125815I420J271*
G01X231987Y129500D02*
G03X227574Y125815I13J-4500D01*
G01X231987Y129500D02*
G03X232000I-1J500D01*
X232013I14J500*
G01X236500Y125013D02*
G03X232013Y129500I-4500J-13D01*
G01X236500Y125013D02*
G03Y125000I500J1D01*
Y124987I500J-14*
G01X231955Y120500D02*
G03X236500Y124987I45J4500D01*
G01X231955Y120500D02*
G03X231596Y119647I-5J-500D01*
G01X231996Y119246*
G03X232350Y119100I354J354*
G01X392650*
G03X393004Y119246I0J500*
G01X393404Y119647*
G03X393045Y120500I-354J353*
G01X388500Y124987D02*
G03X393045Y120500I4500J13D01*
G01X388500Y124987D02*
G03Y125000I-500J-1D01*
Y125013I-500J14*
G01X392987Y129500D02*
G03X388500Y125013I13J-4500D01*
G01X392987Y129500D02*
G03X393000I-1J500D01*
X393013I14J500*
G01X397426Y125815D02*
G03X393013Y129500I-4426J-815D01*
G01X397426Y125815D02*
G03X398337Y125634I491J90D01*
G01X398591Y126026*
G03X398654Y126168I-420J272*
G01X402987Y129500D02*
G03X398654Y126168I13J-4500D01*
G01X402987Y129500D02*
G03X403000I-1J500D01*
X403013I14J500*
G01X407346Y126168D02*
G03X403013Y129500I-4346J-1168D01*
G01X407346Y126168D02*
G03X407409Y126026I483J130D01*
G01X407663Y125634*
G03X408574Y125815I420J271*
G01X412987Y129500D02*
G03X408574Y125815I13J-4500D01*
G01X412987Y129500D02*
G03X413000I-1J500D01*
X413013I14J500*
G01X417500Y125013D02*
G03X413013Y129500I-4500J-13D01*
G01X417500Y125013D02*
G03Y125000I500J1D01*
Y124987I500J-14*
G01X412955Y120500D02*
G03X417500Y124987I45J4500D01*
G01X412955Y120500D02*
G03X412596Y119647I-5J-500D01*
G01X413296Y118946*
G03X413650Y118800I354J354*
G01X573350*
G03X573704Y118946I0J500*
G01X574404Y119647*
G03X574045Y120500I-354J353*
G01X569500Y124987D02*
G03X574045Y120500I4500J13D01*
G01X569500Y124987D02*
G03Y125000I-500J-1D01*
Y125013I-500J14*
G01X573987Y129500D02*
G03X569500Y125013I13J-4500D01*
G01X573987Y129500D02*
G03X574000I-1J500D01*
X574013I14J500*
G01X578500Y125013D02*
G03X574013Y129500I-4500J-13D01*
G01X578500Y125013D02*
G03Y125000I500J1D01*
Y124987I500J-14*
G01Y124955D02*
G03Y124987I-4500J45D01*
G01Y124955D02*
G03X579353Y124596I500J-5D01*
G01X579354*
G03X579500Y124955I-354J354*
G01Y124987D02*
G03Y124955I4500J13D01*
G01Y124987D02*
G03Y125000I-500J-1D01*
Y125013I-500J14*
G01X583987Y129500D02*
G03X579500Y125013I13J-4500D01*
G01X583987Y129500D02*
G03X584000I-1J500D01*
X584013I14J500*
G01X588346Y126168D02*
G03X584013Y129500I-4346J-1168D01*
G01X588346Y126168D02*
G03X588409Y126026I483J130D01*
G01X588663Y125634*
G03X589574Y125815I420J271*
G01X593987Y129500D02*
G03X589574Y125815I13J-4500D01*
G01X593987Y129500D02*
G03X594000I-1J500D01*
X594013I14J500*
G01X598500Y125013D02*
G03X594013Y129500I-4500J-13D01*
G01X598500Y125013D02*
G03Y125000I500J1D01*
Y124987I500J-14*
G01X593955Y120500D02*
G03X598500Y124987I45J4500D01*
G01X593955Y120500D02*
G03X593596Y119647I-5J-500D01*
G01X594196Y119046*
G03X594550Y118900I354J354*
G01X754450*
G03X754804Y119046I0J500*
G01X755404Y119647*
G03X755045Y120500I-354J353*
G01X750500Y124987D02*
G03X755045Y120500I4500J13D01*
G01X750500Y124987D02*
G03Y125000I-500J-1D01*
Y125013I-500J14*
G01X754987Y129500D02*
G03X750500Y125013I13J-4500D01*
G01X754987Y129500D02*
G03X755000I-1J500D01*
X755013I14J500*
G01X759426Y125815D02*
G03X755013Y129500I-4426J-815D01*
G01X759426Y125815D02*
G03X760337Y125634I491J90D01*
G01X760591Y126026*
G03X760654Y126168I-420J272*
G01X764987Y129500D02*
G03X760654Y126168I13J-4500D01*
G01X764987Y129500D02*
G03X765000I-1J500D01*
X765013I14J500*
G01X769500Y125013D02*
G03X765013Y129500I-4500J-13D01*
G01X769500Y125013D02*
G03Y125000I500J1D01*
G01Y135000D02*
G03Y134987I500J-14D01*
G01X765013Y130500D02*
G03X769500Y134987I-13J4500D01*
G01X765013Y130500D02*
G03X765000I1J-500D01*
X764987I-14J-500*
G01X760654Y133832D02*
G03X764987Y130500I4346J1168D01*
G01X760654Y133832D02*
G03X760591Y133974I-483J-130D01*
G01X760337Y134366*
G03X759426Y134185I-420J-271*
G01X755013Y130500D02*
G03X759426Y134185I-13J4500D01*
G01X755013Y130500D02*
G03X755000I1J-500D01*
X754987I-14J-500*
G01X750500Y134987D02*
G03X754987Y130500I4500J13D01*
G01X750500Y134987D02*
G03Y135000I-500J-1D01*
Y135013I-500J14*
G01X755045Y139500D02*
G03X750500Y135013I-45J-4500D01*
G01X755045Y139500D02*
G03X755404Y140353I5J500D01*
G01X754404Y141354*
G03X754050Y141500I-354J-354*
G01X706200*
X656900*
X655355Y141929D02*
G03X656900Y141500I1545J2571D01*
G01X655355Y141929D02*
G03X655097Y142000I-258J-429D01*
G01X595450*
G03X595096Y141854I-0J-500*
G01X593596Y140353*
G03X593955Y139500I354J-353*
G01X598500Y135018D02*
G03X593955Y139500I-4500J-18D01*
G01X598500Y135018D02*
G03Y135000I500J2D01*
Y134982I500J-20*
G01X594013Y130500D02*
G03X598500Y134982I-13J4500D01*
G01X594013Y130500D02*
G03X594000I1J-500D01*
X593987I-14J-500*
G01X589574Y134185D02*
G03X593987Y130500I4426J815D01*
G01X589574Y134185D02*
G03X588663Y134366I-491J-90D01*
G01X588409Y133974*
G03X588346Y133832I420J-272*
G01X584013Y130500D02*
G03X588346Y133832I-13J4500D01*
G01X584013Y130500D02*
G03X584000I1J-500D01*
X583987I-14J-500*
G01X579654Y133832D02*
G03X583987Y130500I4346J1168D01*
G01X579654Y133832D02*
G03X579591Y133974I-483J-130D01*
G01X579337Y134366*
G03X578426Y134185I-420J-271*
G01X574013Y130500D02*
G03X578426Y134185I-13J4500D01*
G01X574013Y130500D02*
G03X574000I1J-500D01*
X573987I-14J-500*
G01X569500Y134987D02*
G03X573987Y130500I4500J13D01*
G01X569500Y134987D02*
G03Y135000I-500J-1D01*
Y135013I-500J14*
G01X574045Y139500D02*
G03X569500Y135013I-45J-4500D01*
G01X574045Y139500D02*
G03X574404Y140353I5J500D01*
G01X572804Y141954*
G03X572450Y142100I-354J-354*
G01X414550*
G03X414196Y141954I-0J-500*
G01X412596Y140353*
G03X412955Y139500I354J-353*
G01X417500Y135018D02*
G03X412955Y139500I-4500J-18D01*
G01X417500Y135018D02*
G03Y135000I500J2D01*
Y134982I500J-20*
G01X413013Y130500D02*
G03X417500Y134982I-13J4500D01*
G01X413013Y130500D02*
G03X413000I1J-500D01*
X412987I-14J-500*
G01X408574Y134185D02*
G03X412987Y130500I4426J815D01*
G01X408574Y134185D02*
G03X407663Y134366I-491J-90D01*
G01X407409Y133974*
G03X407346Y133832I420J-272*
G01X403013Y130500D02*
G03X407346Y133832I-13J4500D01*
G01X403013Y130500D02*
G03X403000I1J-500D01*
X402987I-14J-500*
G01X398654Y133832D02*
G03X402987Y130500I4346J1168D01*
G01X398654Y133832D02*
G03X398591Y133974I-483J-130D01*
G01X398337Y134366*
G03X397426Y134185I-420J-271*
G01X393013Y130500D02*
G03X397426Y134185I-13J4500D01*
G01X393013Y130500D02*
G03X393000I1J-500D01*
X392987I-14J-500*
G01X388500Y134987D02*
G03X392987Y130500I4500J13D01*
G01X388500Y134987D02*
G03Y135000I-500J-1D01*
Y135013I-500J14*
G01X393045Y139500D02*
G03X388500Y135013I-45J-4500D01*
G01X393045Y139500D02*
G03X393404Y140353I5J500D01*
G01X390604Y143154*
G03X390250Y143300I-354J-354*
G01X288300*
X234750*
G03X234396Y143154I-0J-500*
G01X231596Y140353*
G03X231955Y139500I354J-353*
G01X236500Y135018D02*
G03X231955Y139500I-4500J-18D01*
G01X236500Y135018D02*
G03Y135000I500J2D01*
Y134982I500J-20*
G01X232013Y130500D02*
G03X236500Y134982I-13J4500D01*
G01X232013Y130500D02*
G03X232000I1J-500D01*
X231987I-14J-500*
G01X227574Y134185D02*
G03X231987Y130500I4426J815D01*
G01X227574Y134185D02*
G03X226663Y134366I-491J-90D01*
G01X226409Y133974*
G03X226346Y133832I420J-272*
G01X222013Y130500D02*
G03X226346Y133832I-13J4500D01*
G01X222013Y130500D02*
G03X222000I1J-500D01*
X221987I-14J-500*
G01X217500Y134987D02*
G03X221987Y130500I4500J13D01*
G01X217500Y134987D02*
G03Y135000I-500J-1D01*
Y135013I-500J14*
G01Y135045D02*
G03Y135013I4500J-45D01*
G01Y135045D02*
G03X217354Y135404I-500J5D01*
G01X217353*
G03X216500Y135045I-353J-354*
G01Y135013D02*
G03Y135045I-4500J-13D01*
G01Y135013D02*
G03Y135000I500J1D01*
Y134987I500J-14*
G01X212013Y130500D02*
G03X216500Y134987I-13J4500D01*
G01X212013Y130500D02*
G03X212000I1J-500D01*
X211987I-14J-500*
G01X207500Y134987D02*
G03X211987Y130500I4500J13D01*
G01X207500Y134987D02*
G03Y135000I-500J-1D01*
Y135013I-500J14*
G01X211530Y139475D02*
G03X207500Y135013I470J-4475D01*
G01X211530Y139475D02*
G03X211831Y140326I-52J498D01*
G01X170979Y181179*
X170100Y183300D02*
G03X170979Y181179I3000J0D01*
G01X170100Y183300D02*
Y218550D01*
G03X169954Y218904I-500J0*
G01X157479Y231379*
X156600Y233500D02*
G03X157479Y231379I3000J0D01*
G01X156600Y233500D02*
Y304800D01*
X162600D02*
G03X156600I-3000J0D01*
G01X162600D02*
Y234950D01*
G03X162746Y234596I500J-0*
G01X175221Y222121*
X176100Y220000D02*
G03X175221Y222121I-3000J0D01*
G01X176100Y220000D02*
Y184750D01*
G03X176246Y184396I500J-0*
G01X189748Y170894*
G03X190535Y170998I354J354*
G01X195998Y165535D02*
G03X190535Y170998I-1998J3465D01*
G01X195998Y165535D02*
G03X195894Y164748I250J-433D01*
G01X217940Y142702*
G03X218152Y142577I354J354*
G01X219421Y141821D02*
G03X218152Y142577I-2121J-2121D01*
G01X219421Y141821D02*
X221210Y140032D01*
G03X221835Y139966I354J354*
G01X224302Y141560*
G03X224384Y141627I-272J420*
G01X231179Y148421*
X233300Y149300D02*
G03X231179Y148421I0J-3000D01*
G01X233300Y149300D02*
X288300D01*
X391700*
X393821Y148421D02*
G03X391700Y149300I-2121J-2121D01*
G01X393821Y148421D02*
X400616Y141627D01*
G03X400698Y141560I354J353*
G01X402729Y140248*
G03X403271I271J420*
G01X405302Y141560*
G03X405384Y141627I-272J420*
G01X410979Y147221*
X413100Y148100D02*
G03X410979Y147221I0J-3000D01*
G01X413100Y148100D02*
X573900D01*
X576021Y147221D02*
G03X573900Y148100I-2121J-2121D01*
G01X576021Y147221D02*
X581616Y141627D01*
G03X581698Y141560I354J353*
G01X583729Y140248*
G03X584271I271J420*
G01X586302Y141560*
G03X586384Y141627I-272J420*
G01X591879Y147121*
X594000Y148000D02*
G03X591879Y147121I0J-3000D01*
G01X594000Y148000D02*
X656900D01*
X755000*
X757121Y147121D02*
G03X755000Y148000I-2121J-2121D01*
G01X757121Y147121D02*
X757621Y146621D01*
X762616Y141627*
G03X762698Y141560I354J353*
G01X766026Y139409*
G03X766168Y139346I272J420*
G01X769500Y135013D02*
G03X766168Y139346I-4500J-13D01*
G01X769500Y135013D02*
G03Y135000I500J1D01*
G01X741000Y169000D02*
G03X741000I-4000J0D01*
G01X797000Y181500D02*
Y176500D01*
X795500Y175000D02*
G03X797000Y176500I0J1500D01*
G01X795500Y175000D02*
X790500D01*
X789000Y176500D02*
G03X790500Y175000I1500J0D01*
G01X789000Y176500D02*
G03X788500Y177000I-500J-0D01*
G01X741500*
G03X741000Y176500I0J-500*
G01X739500Y175000D02*
G03X741000Y176500I0J1500D01*
G01X739500Y175000D02*
X734500D01*
X733000Y176500D02*
G03X734500Y175000I1500J0D01*
G01X733000Y176500D02*
Y181500D01*
X734500Y183000D02*
G03X733000Y181500I0J-1500D01*
G01X734500Y183000D02*
X739500D01*
X741000Y181500D02*
G03X739500Y183000I-1500J0D01*
G01X741000Y181500D02*
G03X741500Y181000I500J0D01*
G01X788500*
G03X789000Y181500I-0J500*
G01X790500Y183000D02*
G03X789000Y181500I0J-1500D01*
G01X790500Y183000D02*
X795500D01*
X797000Y181500D02*
G03X795500Y183000I-1500J0D01*
G01X809424Y260063D02*
G03X809424I-7400J0D01*
G01X807326Y301730D02*
G03X801289I-3019J2625D01*
G01X807326D02*
G03Y301074I377J-328D01*
G01Y295825D02*
G03Y301074I-3019J2624D01*
G01Y295825D02*
G03Y295168I377J-329D01*
G01Y289919D02*
G03Y295168I-3019J2625D01*
G01Y289919D02*
G03Y289263I377J-328D01*
G01X801289D02*
G03X807326I3018J-2625D01*
G01X801289D02*
G03Y289919I-378J328D01*
G01Y295168D02*
G03Y289919I3018J-2624D01*
G01Y295168D02*
G03Y295825I-378J328D01*
G01Y301074D02*
G03Y295825I3018J-2625D01*
G01Y301074D02*
G03Y301730I-378J328D01*
G01X797326Y303699D02*
G03X791289I-3019J2624D01*
G01X797326D02*
G03Y303042I377J-328D01*
G01Y297793D02*
G03Y303042I-3019J2625D01*
G01Y297793D02*
G03Y297137I377J-328D01*
G01Y291888D02*
G03Y297137I-3019J2624D01*
G01Y291888D02*
G03Y291231I377J-329D01*
G01X791289D02*
G03X797326I3018J-2624D01*
G01X791289D02*
G03Y291888I-378J328D01*
G01Y297137D02*
G03Y291888I3018J-2625D01*
G01Y297137D02*
G03Y297793I-378J328D01*
G01Y303042D02*
G03Y297793I3018J-2624D01*
G01Y303042D02*
G03Y303699I-378J329D01*
G01X809424Y334867D02*
G03X809424I-7400J0D01*
G01X787640Y299762D02*
G03X787493Y305172I-3018J2624D01*
G01X787640Y299762D02*
G03Y299105I378J-328D01*
G01Y293856D02*
G03Y299105I-3018J2625D01*
G01Y293856D02*
G03Y293200I378J-328D01*
G01X781604D02*
G03X787640I3018J-2625D01*
G01X781604D02*
G03Y293856I-378J328D01*
G01Y299105D02*
G03Y293856I3018J-2624D01*
G01Y299105D02*
G03Y299762I-378J329D01*
G01X781471Y304850D02*
G03X781604Y299762I3151J-2464D01*
G01X781471Y304850D02*
G03X781436Y305507I-394J308D01*
G01X787458Y305828D02*
G03X781436Y305507I-3151J2464D01*
G01X787458Y305828D02*
G03X787493Y305172I394J-308D01*
G01X780500Y458987D02*
G03X785013Y463500I4500J13D01*
G01X780500Y458987D02*
G03Y459000I-500J-1D01*
Y459013I-500J14*
G01X784987Y463500D02*
G03X780500Y459013I13J-4500D01*
G01X784987Y463500D02*
G03X785000I-1J500D01*
X785013I14J500*
G01Y464500D02*
G03X780500Y469013I-13J4500D01*
G01X785013Y464500D02*
G03X785000I1J-500D01*
X784987I-14J-500*
G01X780500Y468987D02*
G03X784987Y464500I4500J13D01*
G01X780500Y468987D02*
G03Y469000I-500J-1D01*
Y469013I-500J14*
G01X768887Y254761D02*
G03Y260798I2625J3019D01*
G01Y254761D02*
G03X768231I-328J-377D01*
G01X762982D02*
G03X768231I2624J3019D01*
G01X762982D02*
G03X762325I-329J-377D01*
G01X757856Y254231D02*
G03X762325Y254761I1845J3549D01*
G01X757856Y254231D02*
G03X757293Y254160I-230J-444D01*
G01X756295Y253780D02*
G03X757293Y254160I0J1500D01*
G01X756295Y253780D02*
X751295D01*
X749795Y255280D02*
G03X751295Y253780I1500J-0D01*
G01X749795Y255280D02*
Y260280D01*
X751295Y261780D02*
G03X749795Y260280I0J-1500D01*
G01X751295Y261780D02*
X756295D01*
X757293Y261400D02*
G03X756295Y261780I-998J-1120D01*
G01X757293Y261400D02*
G03X757856Y261329I333J373D01*
G01X762325Y260798D02*
G03X757856Y261329I-2624J-3018D01*
G01X762325Y260798D02*
G03X762982I328J378D01*
G01X768231D02*
G03X762982I-2625J-3018D01*
G01X768231D02*
G03X768887I328J378D01*
G01X770856Y264761D02*
G03Y270798I2624J3019D01*
G01Y264761D02*
G03X770199I-328J-377D01*
G01X764950D02*
G03X770199I2625J3019D01*
G01X764950D02*
G03X764294I-328J-377D01*
G01X759045D02*
G03X764294I2624J3019D01*
G01X759045D02*
G03X758388I-329J-377D01*
G01Y270798D02*
G03Y264761I-2624J-3018D01*
G01Y270798D02*
G03X759045I328J378D01*
G01X764294D02*
G03X759045I-2625J-3018D01*
G01X764294D02*
G03X764950I328J378D01*
G01X770199D02*
G03X764950I-2624J-3018D01*
G01X770199D02*
G03X770856I329J378D01*
G01X772824Y274761D02*
G03Y280798I2625J3019D01*
G01Y274761D02*
G03X772168I-328J-377D01*
G01X766919D02*
G03X772168I2624J3019D01*
G01X766919D02*
G03X766262I-328J-377D01*
G01X761013D02*
G03X766262I2625J3019D01*
G01X761013D02*
G03X760357I-328J-377D01*
G01Y280798D02*
G03Y274761I-2625J-3018D01*
G01Y280798D02*
G03X761013I328J378D01*
G01X766262D02*
G03X761013I-2624J-3018D01*
G01X766262D02*
G03X766919I329J378D01*
G01X772168D02*
G03X766919I-2625J-3018D01*
G01X772168D02*
G03X772824I328J378D01*
G01X768887Y314132D02*
G03Y320169I2625J3018D01*
G01Y314132D02*
G03X768231I-328J-378D01*
G01X762982D02*
G03X768231I2624J3018D01*
G01X762982D02*
G03X762325I-329J-378D01*
G01X757076D02*
G03X762325I2625J3018D01*
G01X757076D02*
G03X756420I-328J-378D01*
G01Y320169D02*
G03Y314132I-2625J-3019D01*
G01Y320169D02*
G03X757076I328J377D01*
G01X762325D02*
G03X757076I-2624J-3019D01*
G01X762325D02*
G03X762982I328J377D01*
G01X768231D02*
G03X762982I-2625J-3019D01*
G01X768231D02*
G03X768887I328J377D01*
G01X770856Y324132D02*
G03Y330169I2624J3018D01*
G01Y324132D02*
G03X770199I-328J-378D01*
G01X764950D02*
G03X770199I2625J3018D01*
G01X764950D02*
G03X764294I-328J-378D01*
G01X759045D02*
G03X764294I2624J3018D01*
G01X759045D02*
G03X758388I-329J-378D01*
G01Y330169D02*
G03Y324132I-2624J-3019D01*
G01Y330169D02*
G03X759045I328J377D01*
G01X764294D02*
G03X759045I-2625J-3019D01*
G01X764294D02*
G03X764950I328J377D01*
G01X770199D02*
G03X764950I-2624J-3019D01*
G01X770199D02*
G03X770856I329J377D01*
G01X772824Y334132D02*
G03Y340169I2625J3018D01*
G01Y334132D02*
G03X772168I-328J-378D01*
G01X766919D02*
G03X772168I2624J3018D01*
G01X766919D02*
G03X766262I-328J-378D01*
G01X761013D02*
G03X766262I2625J3018D01*
G01X761013D02*
G03X760357I-328J-378D01*
G01Y340169D02*
G03Y334132I-2625J-3019D01*
G01Y340169D02*
G03X761013I328J377D01*
G01X766262D02*
G03X761013I-2624J-3019D01*
G01X766262D02*
G03X766919I329J377D01*
G01X772168D02*
G03X766919I-2625J-3019D01*
G01X772168D02*
G03X772824I328J377D01*
G01X779500Y459000D02*
G03Y458987I500J-14D01*
G01X770500D02*
G03X779500I4500J13D01*
G01X770500D02*
G03Y459000I-500J-1D01*
Y459013I-500J14*
G01X774987Y463500D02*
G03X770500Y459013I13J-4500D01*
G01X774987Y463500D02*
G03X775000I-1J500D01*
X775013I14J500*
G01X779500Y459013D02*
G03X775013Y463500I-4500J-13D01*
G01X779500Y459013D02*
G03Y459000I500J1D01*
G01Y469000D02*
G03Y468987I500J-14D01*
G01X775013Y464500D02*
G03X779500Y468987I-13J4500D01*
G01X775013Y464500D02*
G03X775000I1J-500D01*
X774987I-14J-500*
G01X770500Y468987D02*
G03X774987Y464500I4500J13D01*
G01X770500Y468987D02*
G03Y469000I-500J-1D01*
Y469013I-500J14*
G01X779500D02*
G03X770500I-4500J-13D01*
G01X779500D02*
G03Y469000I500J1D01*
G01X769500Y459000D02*
G03Y458987I500J-14D01*
G01X760500D02*
G03X769500I4500J13D01*
G01X760500D02*
G03Y459000I-500J-1D01*
Y459013I-500J14*
G01X764987Y463500D02*
G03X760500Y459013I13J-4500D01*
G01X764987Y463500D02*
G03X765000I-1J500D01*
X765013I14J500*
G01X769500Y459013D02*
G03X765013Y463500I-4500J-13D01*
G01X769500Y459013D02*
G03Y459000I500J1D01*
G01Y469000D02*
G03Y468987I500J-14D01*
G01X765013Y464500D02*
G03X769500Y468987I-13J4500D01*
G01X765013Y464500D02*
G03X765000I1J-500D01*
X764987I-14J-500*
G01X760500Y468987D02*
G03X764987Y464500I4500J13D01*
G01X760500Y468987D02*
G03Y469000I-500J-1D01*
Y469013I-500J14*
G01X769500D02*
G03X760500I-4500J-13D01*
G01X769500D02*
G03Y469000I500J1D01*
G01X759500Y459000D02*
G03Y458987I500J-14D01*
G01X750500Y458982D02*
G03X759500Y458987I4500J18D01*
G01X750500Y458982D02*
G03Y459000I-500J-2D01*
Y459018I-500J20*
G01X754987Y463500D02*
G03X750500Y459018I13J-4500D01*
G01X754987Y463500D02*
G03X755000I-1J500D01*
X755013I14J500*
G01X759500Y459013D02*
G03X755013Y463500I-4500J-13D01*
G01X759500Y459013D02*
G03Y459000I500J1D01*
G01Y469000D02*
G03Y468987I500J-14D01*
G01X755013Y464500D02*
G03X759500Y468987I-13J4500D01*
G01X755013Y464500D02*
G03X755000I1J-500D01*
X754987I-14J-500*
G01X750500Y468987D02*
G03X754987Y464500I4500J13D01*
G01X750500Y468987D02*
G03Y469000I-500J-1D01*
Y469013I-500J14*
G01X759500D02*
G03X750500I-4500J-13D01*
G01X759500D02*
G03Y469000I500J1D01*
G01X747955Y301730D02*
G03X741918I-3018J2625D01*
G01X747955D02*
G03Y301074I378J-328D01*
G01Y295825D02*
G03Y301074I-3018J2624D01*
G01Y295825D02*
G03Y295168I378J-329D01*
G01Y289919D02*
G03Y295168I-3018J2625D01*
G01Y289919D02*
G03Y289263I378J-328D01*
G01X741918D02*
G03X747955I3019J-2625D01*
G01X741918D02*
G03Y289919I-377J328D01*
G01Y295168D02*
G03Y289919I3019J-2624D01*
G01Y295168D02*
G03Y295825I-377J328D01*
G01Y301074D02*
G03Y295825I3019J-2625D01*
G01Y301074D02*
G03Y301730I-377J328D01*
G01X749500Y459000D02*
G03Y458980I500J-20D01*
G01Y456000*
X748000Y454500D02*
G03X749500Y456000I0J1500D01*
G01X748000Y454500D02*
X742000D01*
X740500Y456000D02*
G03X742000Y454500I1500J0D01*
G01X740500Y456000D02*
Y462000D01*
X742000Y463500D02*
G03X740500Y462000I0J-1500D01*
G01X742000Y463500D02*
X744980D01*
G03X745000I-0J500*
X745020I20J500*
G01X748000*
X749500Y462000D02*
G03X748000Y463500I-1500J0D01*
G01X749500Y462000D02*
Y459020D01*
G03Y459000I500J0*
G01Y469000D02*
G03Y468987I500J-14D01*
G01X745018Y464500D02*
G03X749500Y468987I-18J4500D01*
G01X745018Y464500D02*
G03X745000I2J-500D01*
X744982I-20J-500*
G01X749500Y469013D02*
G03X744982Y464500I-4500J-13D01*
G01X749500Y469013D02*
G03Y469000I500J1D01*
G01X734620Y260063D02*
G03X734620I-7400J0D01*
G01X737955Y303699D02*
G03X731918I-3018J2624D01*
G01X737955D02*
G03Y303042I378J-328D01*
G01Y297793D02*
G03Y303042I-3018J2625D01*
G01Y297793D02*
G03Y297137I378J-328D01*
G01Y291888D02*
G03Y297137I-3018J2624D01*
G01Y291888D02*
G03Y291231I378J-329D01*
G01X731918D02*
G03X737955I3019J-2624D01*
G01X731918D02*
G03Y291888I-377J328D01*
G01Y297137D02*
G03Y291888I3019J-2625D01*
G01Y297137D02*
G03Y297793I-377J328D01*
G01Y303042D02*
G03Y297793I3019J-2624D01*
G01Y303042D02*
G03Y303699I-377J329D01*
G01X727955Y305667D02*
G03X721918I-3018J2625D01*
G01X727955D02*
G03Y305011I378J-328D01*
G01Y299762D02*
G03Y305011I-3018J2624D01*
G01Y299762D02*
G03Y299105I378J-328D01*
G01Y293856D02*
G03Y299105I-3018J2625D01*
G01Y293856D02*
G03Y293200I378J-328D01*
G01X721918D02*
G03X727955I3019J-2625D01*
G01X721918D02*
G03Y293856I-377J328D01*
G01Y299105D02*
G03Y293856I3019J-2624D01*
G01Y299105D02*
G03Y299762I-377J329D01*
G01Y305011D02*
G03Y299762I3019J-2625D01*
G01Y305011D02*
G03Y305667I-377J328D01*
G01X734620Y334867D02*
G03X734620I-7400J0D01*
G01X687321Y303279D02*
G03X683079Y307521I-2121J2121D01*
G01X687321Y303279D02*
X683921Y299879D01*
X681800Y299000D02*
G03X683921Y299879I0J3000D01*
G01X681800Y299000D02*
X677200D01*
X654000*
Y305000D02*
G03Y299000I0J-3000D01*
G01Y305000D02*
X677200D01*
X680350*
G03X680704Y305146I0J500*
G01X683079Y307521*
X616000Y169000D02*
G03X616000I-4000J0D01*
G01X560000D02*
G03X560000I-4000J0D01*
G01X616000Y181500D02*
Y176500D01*
X614500Y175000D02*
G03X616000Y176500I0J1500D01*
G01X614500Y175000D02*
X609500D01*
X608000Y176500D02*
G03X609500Y175000I1500J0D01*
G01X608000Y176500D02*
G03X607500Y177000I-500J-0D01*
G01X560500*
G03X560000Y176500I0J-500*
G01X558500Y175000D02*
G03X560000Y176500I0J1500D01*
G01X558500Y175000D02*
X553500D01*
X552000Y176500D02*
G03X553500Y175000I1500J0D01*
G01X552000Y176500D02*
Y181500D01*
X553500Y183000D02*
G03X552000Y181500I0J-1500D01*
G01X553500Y183000D02*
X558500D01*
X560000Y181500D02*
G03X558500Y183000I-1500J0D01*
G01X560000Y181500D02*
G03X560500Y181000I500J0D01*
G01X607500*
G03X608000Y181500I-0J500*
G01X609500Y183000D02*
G03X608000Y181500I0J-1500D01*
G01X609500Y183000D02*
X614500D01*
X616000Y181500D02*
G03X614500Y183000I-1500J0D01*
G01X628424Y260063D02*
G03X628424I-7400J0D01*
G01X626326Y301730D02*
G03X620289I-3019J2625D01*
G01X626326D02*
G03Y301074I377J-328D01*
G01Y295825D02*
G03Y301074I-3019J2624D01*
G01Y295825D02*
G03Y295168I377J-329D01*
G01Y289919D02*
G03Y295168I-3019J2625D01*
G01Y289919D02*
G03Y289263I377J-328D01*
G01X620289D02*
G03X626326I3018J-2625D01*
G01X620289D02*
G03Y289919I-378J328D01*
G01Y295168D02*
G03Y289919I3018J-2624D01*
G01Y295168D02*
G03Y295825I-378J328D01*
G01Y301074D02*
G03Y295825I3018J-2625D01*
G01Y301074D02*
G03Y301730I-378J328D01*
G01X616326Y303699D02*
G03X610289I-3019J2624D01*
G01X616326D02*
G03Y303042I377J-328D01*
G01Y297793D02*
G03Y303042I-3019J2625D01*
G01Y297793D02*
G03Y297137I377J-328D01*
G01Y291888D02*
G03Y297137I-3019J2624D01*
G01Y291888D02*
G03Y291231I377J-329D01*
G01X610289D02*
G03X616326I3018J-2624D01*
G01X610289D02*
G03Y291888I-378J328D01*
G01Y297137D02*
G03Y291888I3018J-2625D01*
G01Y297137D02*
G03Y297793I-378J328D01*
G01Y303042D02*
G03Y297793I3018J-2624D01*
G01Y303042D02*
G03Y303699I-378J329D01*
G01X628424Y334867D02*
G03X628424I-7400J0D01*
G01X606640Y299762D02*
G03X606493Y305172I-3018J2624D01*
G01X606640Y299762D02*
G03Y299105I378J-328D01*
G01Y293856D02*
G03Y299105I-3018J2625D01*
G01Y293856D02*
G03Y293200I378J-328D01*
G01X600604D02*
G03X606640I3018J-2625D01*
G01X600604D02*
G03Y293856I-378J328D01*
G01Y299105D02*
G03Y293856I3018J-2624D01*
G01Y299105D02*
G03Y299762I-378J329D01*
G01X600471Y304850D02*
G03X600604Y299762I3151J-2464D01*
G01X600471Y304850D02*
G03X600436Y305507I-394J308D01*
G01X606458Y305828D02*
G03X600436Y305507I-3151J2464D01*
G01X606458Y305828D02*
G03X606493Y305172I394J-308D01*
G01X599500Y458987D02*
G03X604013Y463500I4500J13D01*
G01X599500Y458987D02*
G03Y459000I-500J-1D01*
Y459013I-500J14*
G01X603987Y463500D02*
G03X599500Y459013I13J-4500D01*
G01X603987Y463500D02*
G03X604000I-1J500D01*
X604013I14J500*
G01Y464500D02*
G03X599500Y469013I-13J4500D01*
G01X604013Y464500D02*
G03X604000I1J-500D01*
X603987I-14J-500*
G01X599500Y468987D02*
G03X603987Y464500I4500J13D01*
G01X599500Y468987D02*
G03Y469000I-500J-1D01*
Y469013I-500J14*
G01X587887Y254761D02*
G03Y260798I2625J3019D01*
G01Y254761D02*
G03X587231I-328J-377D01*
G01X581982D02*
G03X587231I2624J3019D01*
G01X581982D02*
G03X581325I-329J-377D01*
G01X576856Y254231D02*
G03X581325Y254761I1845J3549D01*
G01X576856Y254231D02*
G03X576293Y254160I-230J-444D01*
G01X575295Y253780D02*
G03X576293Y254160I0J1500D01*
G01X575295Y253780D02*
X570295D01*
X568795Y255280D02*
G03X570295Y253780I1500J-0D01*
G01X568795Y255280D02*
Y260280D01*
X570295Y261780D02*
G03X568795Y260280I0J-1500D01*
G01X570295Y261780D02*
X575295D01*
X576293Y261400D02*
G03X575295Y261780I-998J-1120D01*
G01X576293Y261400D02*
G03X576856Y261329I333J373D01*
G01X581325Y260798D02*
G03X576856Y261329I-2624J-3018D01*
G01X581325Y260798D02*
G03X581982I328J378D01*
G01X587231D02*
G03X581982I-2625J-3018D01*
G01X587231D02*
G03X587887I328J378D01*
G01X589856Y264761D02*
G03Y270798I2624J3019D01*
G01Y264761D02*
G03X589199I-328J-377D01*
G01X583950D02*
G03X589199I2625J3019D01*
G01X583950D02*
G03X583294I-328J-377D01*
G01X578045D02*
G03X583294I2624J3019D01*
G01X578045D02*
G03X577388I-329J-377D01*
G01Y270798D02*
G03Y264761I-2624J-3018D01*
G01Y270798D02*
G03X578045I328J378D01*
G01X583294D02*
G03X578045I-2625J-3018D01*
G01X583294D02*
G03X583950I328J378D01*
G01X589199D02*
G03X583950I-2624J-3018D01*
G01X589199D02*
G03X589856I329J378D01*
G01X591824Y274761D02*
G03Y280798I2625J3019D01*
G01Y274761D02*
G03X591168I-328J-377D01*
G01X585919D02*
G03X591168I2624J3019D01*
G01X585919D02*
G03X585262I-328J-377D01*
G01X580013D02*
G03X585262I2625J3019D01*
G01X580013D02*
G03X579357I-328J-377D01*
G01Y280798D02*
G03Y274761I-2625J-3018D01*
G01Y280798D02*
G03X580013I328J378D01*
G01X585262D02*
G03X580013I-2624J-3018D01*
G01X585262D02*
G03X585919I329J378D01*
G01X591168D02*
G03X585919I-2625J-3018D01*
G01X591168D02*
G03X591824I328J378D01*
G01X587887Y314132D02*
G03Y320169I2625J3018D01*
G01Y314132D02*
G03X587231I-328J-378D01*
G01X581982D02*
G03X587231I2624J3018D01*
G01X581982D02*
G03X581325I-329J-378D01*
G01X576076D02*
G03X581325I2625J3018D01*
G01X576076D02*
G03X575420I-328J-378D01*
G01Y320169D02*
G03Y314132I-2625J-3019D01*
G01Y320169D02*
G03X576076I328J377D01*
G01X581325D02*
G03X576076I-2624J-3019D01*
G01X581325D02*
G03X581982I328J377D01*
G01X587231D02*
G03X581982I-2625J-3019D01*
G01X587231D02*
G03X587887I328J377D01*
G01X589856Y324132D02*
G03Y330169I2624J3018D01*
G01Y324132D02*
G03X589199I-328J-378D01*
G01X583950D02*
G03X589199I2625J3018D01*
G01X583950D02*
G03X583294I-328J-378D01*
G01X578045D02*
G03X583294I2624J3018D01*
G01X578045D02*
G03X577388I-329J-378D01*
G01Y330169D02*
G03Y324132I-2624J-3019D01*
G01Y330169D02*
G03X578045I328J377D01*
G01X583294D02*
G03X578045I-2625J-3019D01*
G01X583294D02*
G03X583950I328J377D01*
G01X589199D02*
G03X583950I-2624J-3019D01*
G01X589199D02*
G03X589856I329J377D01*
G01X591824Y334132D02*
G03Y340169I2625J3018D01*
G01Y334132D02*
G03X591168I-328J-378D01*
G01X585919D02*
G03X591168I2624J3018D01*
G01X585919D02*
G03X585262I-328J-378D01*
G01X580013D02*
G03X585262I2625J3018D01*
G01X580013D02*
G03X579357I-328J-378D01*
G01Y340169D02*
G03Y334132I-2625J-3019D01*
G01Y340169D02*
G03X580013I328J377D01*
G01X585262D02*
G03X580013I-2624J-3019D01*
G01X585262D02*
G03X585919I329J377D01*
G01X591168D02*
G03X585919I-2625J-3019D01*
G01X591168D02*
G03X591824I328J377D01*
G01X598500Y459000D02*
G03Y458987I500J-14D01*
G01X589500D02*
G03X598500I4500J13D01*
G01X589500D02*
G03Y459000I-500J-1D01*
Y459013I-500J14*
G01X593987Y463500D02*
G03X589500Y459013I13J-4500D01*
G01X593987Y463500D02*
G03X594000I-1J500D01*
X594013I14J500*
G01X598500Y459013D02*
G03X594013Y463500I-4500J-13D01*
G01X598500Y459013D02*
G03Y459000I500J1D01*
G01Y469000D02*
G03Y468987I500J-14D01*
G01X594013Y464500D02*
G03X598500Y468987I-13J4500D01*
G01X594013Y464500D02*
G03X594000I1J-500D01*
X593987I-14J-500*
G01X589500Y468987D02*
G03X593987Y464500I4500J13D01*
G01X589500Y468987D02*
G03Y469000I-500J-1D01*
Y469013I-500J14*
G01X598500D02*
G03X589500I-4500J-13D01*
G01X598500D02*
G03Y469000I500J1D01*
G01X588500Y459000D02*
G03Y458987I500J-14D01*
G01X579500D02*
G03X588500I4500J13D01*
G01X579500D02*
G03Y459000I-500J-1D01*
Y459013I-500J14*
G01X583987Y463500D02*
G03X579500Y459013I13J-4500D01*
G01X583987Y463500D02*
G03X584000I-1J500D01*
X584013I14J500*
G01X588500Y459013D02*
G03X584013Y463500I-4500J-13D01*
G01X588500Y459013D02*
G03Y459000I500J1D01*
G01Y469000D02*
G03Y468987I500J-14D01*
G01X584013Y464500D02*
G03X588500Y468987I-13J4500D01*
G01X584013Y464500D02*
G03X584000I1J-500D01*
X583987I-14J-500*
G01X579500Y468987D02*
G03X583987Y464500I4500J13D01*
G01X579500Y468987D02*
G03Y469000I-500J-1D01*
Y469013I-500J14*
G01X588500D02*
G03X579500I-4500J-13D01*
G01X588500D02*
G03Y469000I500J1D01*
G01X578500Y459000D02*
G03Y458987I500J-14D01*
G01X569500Y458982D02*
G03X578500Y458987I4500J18D01*
G01X569500Y458982D02*
G03Y459000I-500J-2D01*
Y459018I-500J20*
G01X573987Y463500D02*
G03X569500Y459018I13J-4500D01*
G01X573987Y463500D02*
G03X574000I-1J500D01*
X574013I14J500*
G01X578500Y459013D02*
G03X574013Y463500I-4500J-13D01*
G01X578500Y459013D02*
G03Y459000I500J1D01*
G01Y469000D02*
G03Y468987I500J-14D01*
G01X574013Y464500D02*
G03X578500Y468987I-13J4500D01*
G01X574013Y464500D02*
G03X574000I1J-500D01*
X573987I-14J-500*
G01X569500Y468987D02*
G03X573987Y464500I4500J13D01*
G01X569500Y468987D02*
G03Y469000I-500J-1D01*
Y469013I-500J14*
G01X578500D02*
G03X569500I-4500J-13D01*
G01X578500D02*
G03Y469000I500J1D01*
G01X566955Y301730D02*
G03X560918I-3018J2625D01*
G01X566955D02*
G03Y301074I378J-328D01*
G01Y295825D02*
G03Y301074I-3018J2624D01*
G01Y295825D02*
G03Y295168I378J-329D01*
G01Y289919D02*
G03Y295168I-3018J2625D01*
G01Y289919D02*
G03Y289263I378J-328D01*
G01X560918D02*
G03X566955I3019J-2625D01*
G01X560918D02*
G03Y289919I-377J328D01*
G01Y295168D02*
G03Y289919I3019J-2624D01*
G01Y295168D02*
G03Y295825I-377J328D01*
G01Y301074D02*
G03Y295825I3019J-2625D01*
G01Y301074D02*
G03Y301730I-377J328D01*
G01X568500Y459000D02*
G03Y458980I500J-20D01*
G01Y456000*
X567000Y454500D02*
G03X568500Y456000I0J1500D01*
G01X567000Y454500D02*
X561000D01*
X559500Y456000D02*
G03X561000Y454500I1500J0D01*
G01X559500Y456000D02*
Y462000D01*
X561000Y463500D02*
G03X559500Y462000I0J-1500D01*
G01X561000Y463500D02*
X563980D01*
G03X564000I-0J500*
X564020I20J500*
G01X567000*
X568500Y462000D02*
G03X567000Y463500I-1500J0D01*
G01X568500Y462000D02*
Y459020D01*
G03Y459000I500J0*
G01Y469000D02*
G03Y468987I500J-14D01*
G01X564018Y464500D02*
G03X568500Y468987I-18J4500D01*
G01X564018Y464500D02*
G03X564000I2J-500D01*
X563982I-20J-500*
G01X568500Y469013D02*
G03X563982Y464500I-4500J-13D01*
G01X568500Y469013D02*
G03Y469000I500J1D01*
G01X553620Y260063D02*
G03X553620I-7400J0D01*
G01X556955Y303699D02*
G03X550918I-3018J2624D01*
G01X556955D02*
G03Y303042I378J-328D01*
G01Y297793D02*
G03Y303042I-3018J2625D01*
G01Y297793D02*
G03Y297137I378J-328D01*
G01Y291888D02*
G03Y297137I-3018J2624D01*
G01Y291888D02*
G03Y291231I378J-329D01*
G01X550918D02*
G03X556955I3019J-2624D01*
G01X550918D02*
G03Y291888I-377J328D01*
G01Y297137D02*
G03Y291888I3019J-2625D01*
G01Y297137D02*
G03Y297793I-377J328D01*
G01Y303042D02*
G03Y297793I3019J-2624D01*
G01Y303042D02*
G03Y303699I-377J329D01*
G01X546955Y305667D02*
G03X540918I-3018J2625D01*
G01X546955D02*
G03Y305011I378J-328D01*
G01Y299762D02*
G03Y305011I-3018J2624D01*
G01Y299762D02*
G03Y299105I378J-328D01*
G01Y293856D02*
G03Y299105I-3018J2625D01*
G01Y293856D02*
G03Y293200I378J-328D01*
G01X540918D02*
G03X546955I3019J-2625D01*
G01X540918D02*
G03Y293856I-377J328D01*
G01Y299105D02*
G03Y293856I3019J-2624D01*
G01Y299105D02*
G03Y299762I-377J329D01*
G01Y305011D02*
G03Y299762I3019J-2625D01*
G01Y305011D02*
G03Y305667I-377J328D01*
G01X553620Y334867D02*
G03X553620I-7400J0D01*
G01X508321Y305379D02*
G03X504079Y309621I-2121J2121D01*
G01X508321Y305379D02*
X502921Y299979D01*
X500800Y299100D02*
G03X502921Y299979I0J3000D01*
G01X500800Y299100D02*
X465800D01*
Y305100D02*
G03Y299100I0J-3000D01*
G01Y305100D02*
X499350D01*
G03X499704Y305246I0J500*
G01X504079Y309621*
X435000Y169000D02*
G03X435000I-4000J0D01*
G01X379000D02*
G03X379000I-4000J0D01*
G01X435000Y181500D02*
Y176500D01*
X433500Y175000D02*
G03X435000Y176500I0J1500D01*
G01X433500Y175000D02*
X428500D01*
X427000Y176500D02*
G03X428500Y175000I1500J0D01*
G01X427000Y176500D02*
G03X426500Y177000I-500J-0D01*
G01X379500*
G03X379000Y176500I0J-500*
G01X377500Y175000D02*
G03X379000Y176500I0J1500D01*
G01X377500Y175000D02*
X372500D01*
X371000Y176500D02*
G03X372500Y175000I1500J0D01*
G01X371000Y176500D02*
Y181500D01*
X372500Y183000D02*
G03X371000Y181500I0J-1500D01*
G01X372500Y183000D02*
X377500D01*
X379000Y181500D02*
G03X377500Y183000I-1500J0D01*
G01X379000Y181500D02*
G03X379500Y181000I500J0D01*
G01X426500*
G03X427000Y181500I-0J500*
G01X428500Y183000D02*
G03X427000Y181500I0J-1500D01*
G01X428500Y183000D02*
X433500D01*
X435000Y181500D02*
G03X433500Y183000I-1500J0D01*
G01X447424Y260063D02*
G03X447424I-7400J0D01*
G01X445326Y301730D02*
G03X439289I-3019J2625D01*
G01X445326D02*
G03Y301074I377J-328D01*
G01Y295825D02*
G03Y301074I-3019J2624D01*
G01Y295825D02*
G03Y295168I377J-329D01*
G01Y289919D02*
G03Y295168I-3019J2625D01*
G01Y289919D02*
G03Y289263I377J-328D01*
G01X439289D02*
G03X445326I3018J-2625D01*
G01X439289D02*
G03Y289919I-378J328D01*
G01Y295168D02*
G03Y289919I3018J-2624D01*
G01Y295168D02*
G03Y295825I-378J328D01*
G01Y301074D02*
G03Y295825I3018J-2625D01*
G01Y301074D02*
G03Y301730I-378J328D01*
G01X435326Y303699D02*
G03X429289I-3019J2624D01*
G01X435326D02*
G03Y303042I377J-328D01*
G01Y297793D02*
G03Y303042I-3019J2625D01*
G01Y297793D02*
G03Y297137I377J-328D01*
G01Y291888D02*
G03Y297137I-3019J2624D01*
G01Y291888D02*
G03Y291231I377J-329D01*
G01X429289D02*
G03X435326I3018J-2624D01*
G01X429289D02*
G03Y291888I-378J328D01*
G01Y297137D02*
G03Y291888I3018J-2625D01*
G01Y297137D02*
G03Y297793I-378J328D01*
G01Y303042D02*
G03Y297793I3018J-2624D01*
G01Y303042D02*
G03Y303699I-378J329D01*
G01X447424Y334867D02*
G03X447424I-7400J0D01*
G01X425640Y299762D02*
G03X425493Y305172I-3018J2624D01*
G01X425640Y299762D02*
G03Y299105I378J-328D01*
G01Y293856D02*
G03Y299105I-3018J2625D01*
G01Y293856D02*
G03Y293200I378J-328D01*
G01X419604D02*
G03X425640I3018J-2625D01*
G01X419604D02*
G03Y293856I-378J328D01*
G01Y299105D02*
G03Y293856I3018J-2624D01*
G01Y299105D02*
G03Y299762I-378J329D01*
G01X419471Y304850D02*
G03X419604Y299762I3151J-2464D01*
G01X419471Y304850D02*
G03X419436Y305507I-394J308D01*
G01X425458Y305828D02*
G03X419436Y305507I-3151J2464D01*
G01X425458Y305828D02*
G03X425493Y305172I394J-308D01*
G01X418500Y458987D02*
G03X423013Y463500I4500J13D01*
G01X418500Y458987D02*
G03Y459000I-500J-1D01*
Y459013I-500J14*
G01X422987Y463500D02*
G03X418500Y459013I13J-4500D01*
G01X422987Y463500D02*
G03X423000I-1J500D01*
X423013I14J500*
G01Y464500D02*
G03X418500Y469013I-13J4500D01*
G01X423013Y464500D02*
G03X423000I1J-500D01*
X422987I-14J-500*
G01X418500Y468987D02*
G03X422987Y464500I4500J13D01*
G01X418500Y468987D02*
G03Y469000I-500J-1D01*
Y469013I-500J14*
G01X406887Y254761D02*
G03Y260798I2625J3019D01*
G01Y254761D02*
G03X406231I-328J-377D01*
G01X400982D02*
G03X406231I2624J3019D01*
G01X400982D02*
G03X400325I-329J-377D01*
G01X395856Y254231D02*
G03X400325Y254761I1845J3549D01*
G01X395856Y254231D02*
G03X395293Y254160I-230J-444D01*
G01X394295Y253780D02*
G03X395293Y254160I0J1500D01*
G01X394295Y253780D02*
X389295D01*
X387795Y255280D02*
G03X389295Y253780I1500J-0D01*
G01X387795Y255280D02*
Y260280D01*
X389295Y261780D02*
G03X387795Y260280I0J-1500D01*
G01X389295Y261780D02*
X394295D01*
X395293Y261400D02*
G03X394295Y261780I-998J-1120D01*
G01X395293Y261400D02*
G03X395856Y261329I333J373D01*
G01X400325Y260798D02*
G03X395856Y261329I-2624J-3018D01*
G01X400325Y260798D02*
G03X400982I328J378D01*
G01X406231D02*
G03X400982I-2625J-3018D01*
G01X406231D02*
G03X406887I328J378D01*
G01X408856Y264761D02*
G03Y270798I2624J3019D01*
G01Y264761D02*
G03X408199I-328J-377D01*
G01X402950D02*
G03X408199I2625J3019D01*
G01X402950D02*
G03X402294I-328J-377D01*
G01X397045D02*
G03X402294I2624J3019D01*
G01X397045D02*
G03X396388I-329J-377D01*
G01Y270798D02*
G03Y264761I-2624J-3018D01*
G01Y270798D02*
G03X397045I328J378D01*
G01X402294D02*
G03X397045I-2625J-3018D01*
G01X402294D02*
G03X402950I328J378D01*
G01X408199D02*
G03X402950I-2624J-3018D01*
G01X408199D02*
G03X408856I329J378D01*
G01X410824Y274761D02*
G03Y280798I2625J3019D01*
G01Y274761D02*
G03X410168I-328J-377D01*
G01X404919D02*
G03X410168I2624J3019D01*
G01X404919D02*
G03X404262I-328J-377D01*
G01X399013D02*
G03X404262I2625J3019D01*
G01X399013D02*
G03X398357I-328J-377D01*
G01Y280798D02*
G03Y274761I-2625J-3018D01*
G01Y280798D02*
G03X399013I328J378D01*
G01X404262D02*
G03X399013I-2624J-3018D01*
G01X404262D02*
G03X404919I329J378D01*
G01X410168D02*
G03X404919I-2625J-3018D01*
G01X410168D02*
G03X410824I328J378D01*
G01X406887Y314132D02*
G03Y320169I2625J3018D01*
G01Y314132D02*
G03X406231I-328J-378D01*
G01X400982D02*
G03X406231I2624J3018D01*
G01X400982D02*
G03X400325I-329J-378D01*
G01X395076D02*
G03X400325I2625J3018D01*
G01X395076D02*
G03X394420I-328J-378D01*
G01Y320169D02*
G03Y314132I-2625J-3019D01*
G01Y320169D02*
G03X395076I328J377D01*
G01X400325D02*
G03X395076I-2624J-3019D01*
G01X400325D02*
G03X400982I328J377D01*
G01X406231D02*
G03X400982I-2625J-3019D01*
G01X406231D02*
G03X406887I328J377D01*
G01X408856Y324132D02*
G03Y330169I2624J3018D01*
G01Y324132D02*
G03X408199I-328J-378D01*
G01X402950D02*
G03X408199I2625J3018D01*
G01X402950D02*
G03X402294I-328J-378D01*
G01X397045D02*
G03X402294I2624J3018D01*
G01X397045D02*
G03X396388I-329J-378D01*
G01Y330169D02*
G03Y324132I-2624J-3019D01*
G01Y330169D02*
G03X397045I328J377D01*
G01X402294D02*
G03X397045I-2625J-3019D01*
G01X402294D02*
G03X402950I328J377D01*
G01X408199D02*
G03X402950I-2624J-3019D01*
G01X408199D02*
G03X408856I329J377D01*
G01X410824Y334132D02*
G03Y340169I2625J3018D01*
G01Y334132D02*
G03X410168I-328J-378D01*
G01X404919D02*
G03X410168I2624J3018D01*
G01X404919D02*
G03X404262I-328J-378D01*
G01X399013D02*
G03X404262I2625J3018D01*
G01X399013D02*
G03X398357I-328J-378D01*
G01Y340169D02*
G03Y334132I-2625J-3019D01*
G01Y340169D02*
G03X399013I328J377D01*
G01X404262D02*
G03X399013I-2624J-3019D01*
G01X404262D02*
G03X404919I329J377D01*
G01X410168D02*
G03X404919I-2625J-3019D01*
G01X410168D02*
G03X410824I328J377D01*
G01X417500Y459000D02*
G03Y458987I500J-14D01*
G01X408500D02*
G03X417500I4500J13D01*
G01X408500D02*
G03Y459000I-500J-1D01*
Y459013I-500J14*
G01X412987Y463500D02*
G03X408500Y459013I13J-4500D01*
G01X412987Y463500D02*
G03X413000I-1J500D01*
X413013I14J500*
G01X417500Y459013D02*
G03X413013Y463500I-4500J-13D01*
G01X417500Y459013D02*
G03Y459000I500J1D01*
G01Y469000D02*
G03Y468987I500J-14D01*
G01X413013Y464500D02*
G03X417500Y468987I-13J4500D01*
G01X413013Y464500D02*
G03X413000I1J-500D01*
X412987I-14J-500*
G01X408500Y468987D02*
G03X412987Y464500I4500J13D01*
G01X408500Y468987D02*
G03Y469000I-500J-1D01*
Y469013I-500J14*
G01X417500D02*
G03X408500I-4500J-13D01*
G01X417500D02*
G03Y469000I500J1D01*
G01X407500Y459000D02*
G03Y458987I500J-14D01*
G01X398500D02*
G03X407500I4500J13D01*
G01X398500D02*
G03Y459000I-500J-1D01*
Y459013I-500J14*
G01X402987Y463500D02*
G03X398500Y459013I13J-4500D01*
G01X402987Y463500D02*
G03X403000I-1J500D01*
X403013I14J500*
G01X407500Y459013D02*
G03X403013Y463500I-4500J-13D01*
G01X407500Y459013D02*
G03Y459000I500J1D01*
G01Y469000D02*
G03Y468987I500J-14D01*
G01X403013Y464500D02*
G03X407500Y468987I-13J4500D01*
G01X403013Y464500D02*
G03X403000I1J-500D01*
X402987I-14J-500*
G01X398500Y468987D02*
G03X402987Y464500I4500J13D01*
G01X398500Y468987D02*
G03Y469000I-500J-1D01*
Y469013I-500J14*
G01X407500D02*
G03X398500I-4500J-13D01*
G01X407500D02*
G03Y469000I500J1D01*
G01X397500Y459000D02*
G03Y458987I500J-14D01*
G01X388500Y458982D02*
G03X397500Y458987I4500J18D01*
G01X388500Y458982D02*
G03Y459000I-500J-2D01*
Y459018I-500J20*
G01X392987Y463500D02*
G03X388500Y459018I13J-4500D01*
G01X392987Y463500D02*
G03X393000I-1J500D01*
X393013I14J500*
G01X397500Y459013D02*
G03X393013Y463500I-4500J-13D01*
G01X397500Y459013D02*
G03Y459000I500J1D01*
G01Y469000D02*
G03Y468987I500J-14D01*
G01X393013Y464500D02*
G03X397500Y468987I-13J4500D01*
G01X393013Y464500D02*
G03X393000I1J-500D01*
X392987I-14J-500*
G01X388500Y468987D02*
G03X392987Y464500I4500J13D01*
G01X388500Y468987D02*
G03Y469000I-500J-1D01*
Y469013I-500J14*
G01X397500D02*
G03X388500I-4500J-13D01*
G01X397500D02*
G03Y469000I500J1D01*
G01X385955Y301730D02*
G03X379918I-3018J2625D01*
G01X385955D02*
G03Y301074I378J-328D01*
G01Y295825D02*
G03Y301074I-3018J2624D01*
G01Y295825D02*
G03Y295168I378J-329D01*
G01Y289919D02*
G03Y295168I-3018J2625D01*
G01Y289919D02*
G03Y289263I378J-328D01*
G01X379918D02*
G03X385955I3019J-2625D01*
G01X379918D02*
G03Y289919I-377J328D01*
G01Y295168D02*
G03Y289919I3019J-2624D01*
G01Y295168D02*
G03Y295825I-377J328D01*
G01Y301074D02*
G03Y295825I3019J-2625D01*
G01Y301074D02*
G03Y301730I-377J328D01*
G01X387500Y459000D02*
G03Y458980I500J-20D01*
G01Y456000*
X386000Y454500D02*
G03X387500Y456000I0J1500D01*
G01X386000Y454500D02*
X380000D01*
X378500Y456000D02*
G03X380000Y454500I1500J0D01*
G01X378500Y456000D02*
Y462000D01*
X380000Y463500D02*
G03X378500Y462000I0J-1500D01*
G01X380000Y463500D02*
X382980D01*
G03X383000I-0J500*
X383020I20J500*
G01X386000*
X387500Y462000D02*
G03X386000Y463500I-1500J0D01*
G01X387500Y462000D02*
Y459020D01*
G03Y459000I500J0*
G01Y469000D02*
G03Y468987I500J-14D01*
G01X383018Y464500D02*
G03X387500Y468987I-18J4500D01*
G01X383018Y464500D02*
G03X383000I2J-500D01*
X382982I-20J-500*
G01X387500Y469013D02*
G03X382982Y464500I-4500J-13D01*
G01X387500Y469013D02*
G03Y469000I500J1D01*
G01X372620Y260063D02*
G03X372620I-7400J0D01*
G01X375955Y303699D02*
G03X369918I-3018J2624D01*
G01X375955D02*
G03Y303042I378J-328D01*
G01Y297793D02*
G03Y303042I-3018J2625D01*
G01Y297793D02*
G03Y297137I378J-328D01*
G01Y291888D02*
G03Y297137I-3018J2624D01*
G01Y291888D02*
G03Y291231I378J-329D01*
G01X369918D02*
G03X375955I3019J-2624D01*
G01X369918D02*
G03Y291888I-377J328D01*
G01Y297137D02*
G03Y291888I3019J-2625D01*
G01Y297137D02*
G03Y297793I-377J328D01*
G01Y303042D02*
G03Y297793I3019J-2624D01*
G01Y303042D02*
G03Y303699I-377J329D01*
G01X365955Y305667D02*
G03X359918I-3018J2625D01*
G01X365955D02*
G03Y305011I378J-328D01*
G01Y299762D02*
G03Y305011I-3018J2624D01*
G01Y299762D02*
G03Y299105I378J-328D01*
G01Y293856D02*
G03Y299105I-3018J2625D01*
G01Y293856D02*
G03Y293200I378J-328D01*
G01X359918D02*
G03X365955I3019J-2625D01*
G01X359918D02*
G03Y293856I-377J328D01*
G01Y299105D02*
G03Y293856I3019J-2624D01*
G01Y299105D02*
G03Y299762I-377J329D01*
G01Y305011D02*
G03Y299762I3019J-2625D01*
G01Y305011D02*
G03Y305667I-377J328D01*
G01X372620Y334867D02*
G03X372620I-7400J0D01*
G01X327221Y304479D02*
G03X322979Y308721I-2121J2121D01*
G01X327221Y304479D02*
X315021Y292279D01*
X312900Y291400D02*
G03X315021Y292279I0J3000D01*
G01X312900Y291400D02*
X288300D01*
Y297400D02*
G03Y291400I0J-3000D01*
G01Y297400D02*
X311450D01*
G03X311804Y297546I0J500*
G01X322979Y308721*
X254000Y169000D02*
G03X254000I-4000J0D01*
G01Y181500D02*
Y176500D01*
X252500Y175000D02*
G03X254000Y176500I0J1500D01*
G01X252500Y175000D02*
X247500D01*
X246000Y176500D02*
G03X247500Y175000I1500J0D01*
G01X246000Y176500D02*
G03X245500Y177000I-500J-0D01*
G01X198500*
G03X198000Y176500I0J-500*
G01X196500Y175000D02*
G03X198000Y176500I0J1500D01*
G01X196500Y175000D02*
X191500D01*
X190000Y176500D02*
G03X191500Y175000I1500J0D01*
G01X190000Y176500D02*
Y181500D01*
X191500Y183000D02*
G03X190000Y181500I0J-1500D01*
G01X191500Y183000D02*
X196500D01*
X198000Y181500D02*
G03X196500Y183000I-1500J0D01*
G01X198000Y181500D02*
G03X198500Y181000I500J0D01*
G01X245500*
G03X246000Y181500I-0J500*
G01X247500Y183000D02*
G03X246000Y181500I0J-1500D01*
G01X247500Y183000D02*
X252500D01*
X254000Y181500D02*
G03X252500Y183000I-1500J0D01*
G01X266424Y260063D02*
G03X266424I-7400J0D01*
G01X264326Y301730D02*
G03X258289I-3019J2625D01*
G01X264326D02*
G03Y301074I377J-328D01*
G01Y295825D02*
G03Y301074I-3019J2624D01*
G01Y295825D02*
G03Y295168I377J-329D01*
G01Y289919D02*
G03Y295168I-3019J2625D01*
G01Y289919D02*
G03Y289263I377J-328D01*
G01X258289D02*
G03X264326I3018J-2625D01*
G01X258289D02*
G03Y289919I-378J328D01*
G01Y295168D02*
G03Y289919I3018J-2624D01*
G01Y295168D02*
G03Y295825I-378J328D01*
G01Y301074D02*
G03Y295825I3018J-2625D01*
G01Y301074D02*
G03Y301730I-378J328D01*
G01X254326Y303699D02*
G03X248289I-3019J2624D01*
G01X254326D02*
G03Y303042I377J-328D01*
G01Y297793D02*
G03Y303042I-3019J2625D01*
G01Y297793D02*
G03Y297137I377J-328D01*
G01Y291888D02*
G03Y297137I-3019J2624D01*
G01Y291888D02*
G03Y291231I377J-329D01*
G01X248289D02*
G03X254326I3018J-2624D01*
G01X248289D02*
G03Y291888I-378J328D01*
G01Y297137D02*
G03Y291888I3018J-2625D01*
G01Y297137D02*
G03Y297793I-378J328D01*
G01Y303042D02*
G03Y297793I3018J-2624D01*
G01Y303042D02*
G03Y303699I-378J329D01*
G01X266424Y334867D02*
G03X266424I-7400J0D01*
G01X244640Y299762D02*
G03X244493Y305172I-3018J2624D01*
G01X244640Y299762D02*
G03Y299105I378J-328D01*
G01Y293856D02*
G03Y299105I-3018J2625D01*
G01Y293856D02*
G03Y293200I378J-328D01*
G01X238604D02*
G03X244640I3018J-2625D01*
G01X238604D02*
G03Y293856I-378J328D01*
G01Y299105D02*
G03Y293856I3018J-2624D01*
G01Y299105D02*
G03Y299762I-378J329D01*
G01X238471Y304850D02*
G03X238604Y299762I3151J-2464D01*
G01X238471Y304850D02*
G03X238436Y305507I-394J308D01*
G01X244458Y305828D02*
G03X238436Y305507I-3151J2464D01*
G01X244458Y305828D02*
G03X244493Y305172I394J-308D01*
G01X237500Y458987D02*
G03X242013Y463500I4500J13D01*
G01X237500Y458987D02*
G03Y459000I-500J-1D01*
Y459013I-500J14*
G01X241987Y463500D02*
G03X237500Y459013I13J-4500D01*
G01X241987Y463500D02*
G03X242000I-1J500D01*
X242013I14J500*
G01Y464500D02*
G03X237500Y469013I-13J4500D01*
G01X242013Y464500D02*
G03X242000I1J-500D01*
X241987I-14J-500*
G01X237500Y468987D02*
G03X241987Y464500I4500J13D01*
G01X237500Y468987D02*
G03Y469000I-500J-1D01*
Y469013I-500J14*
G01X225887Y254761D02*
G03Y260798I2625J3019D01*
G01Y254761D02*
G03X225231I-328J-377D01*
G01X219982D02*
G03X225231I2624J3019D01*
G01X219982D02*
G03X219325I-329J-377D01*
G01X214856Y254231D02*
G03X219325Y254761I1845J3549D01*
G01X214856Y254231D02*
G03X214293Y254160I-230J-444D01*
G01X213295Y253780D02*
G03X214293Y254160I0J1500D01*
G01X213295Y253780D02*
X208295D01*
X206795Y255280D02*
G03X208295Y253780I1500J-0D01*
G01X206795Y255280D02*
Y260280D01*
X208295Y261780D02*
G03X206795Y260280I0J-1500D01*
G01X208295Y261780D02*
X213295D01*
X214293Y261400D02*
G03X213295Y261780I-998J-1120D01*
G01X214293Y261400D02*
G03X214856Y261329I333J373D01*
G01X219325Y260798D02*
G03X214856Y261329I-2624J-3018D01*
G01X219325Y260798D02*
G03X219982I328J378D01*
G01X225231D02*
G03X219982I-2625J-3018D01*
G01X225231D02*
G03X225887I328J378D01*
G01X227856Y264761D02*
G03Y270798I2624J3019D01*
G01Y264761D02*
G03X227199I-328J-377D01*
G01X221950D02*
G03X227199I2625J3019D01*
G01X221950D02*
G03X221294I-328J-377D01*
G01X216045D02*
G03X221294I2624J3019D01*
G01X216045D02*
G03X215388I-329J-377D01*
G01Y270798D02*
G03Y264761I-2624J-3018D01*
G01Y270798D02*
G03X216045I328J378D01*
G01X221294D02*
G03X216045I-2625J-3018D01*
G01X221294D02*
G03X221950I328J378D01*
G01X227199D02*
G03X221950I-2624J-3018D01*
G01X227199D02*
G03X227856I329J378D01*
G01X229824Y274761D02*
G03Y280798I2625J3019D01*
G01Y274761D02*
G03X229168I-328J-377D01*
G01X223919D02*
G03X229168I2624J3019D01*
G01X223919D02*
G03X223262I-328J-377D01*
G01X218013D02*
G03X223262I2625J3019D01*
G01X218013D02*
G03X217357I-328J-377D01*
G01Y280798D02*
G03Y274761I-2625J-3018D01*
G01Y280798D02*
G03X218013I328J378D01*
G01X223262D02*
G03X218013I-2624J-3018D01*
G01X223262D02*
G03X223919I329J378D01*
G01X229168D02*
G03X223919I-2625J-3018D01*
G01X229168D02*
G03X229824I328J378D01*
G01X225887Y314132D02*
G03Y320169I2625J3018D01*
G01Y314132D02*
G03X225231I-328J-378D01*
G01X219982D02*
G03X225231I2624J3018D01*
G01X219982D02*
G03X219325I-329J-378D01*
G01X214076D02*
G03X219325I2625J3018D01*
G01X214076D02*
G03X213420I-328J-378D01*
G01Y320169D02*
G03Y314132I-2625J-3019D01*
G01Y320169D02*
G03X214076I328J377D01*
G01X219325D02*
G03X214076I-2624J-3019D01*
G01X219325D02*
G03X219982I328J377D01*
G01X225231D02*
G03X219982I-2625J-3019D01*
G01X225231D02*
G03X225887I328J377D01*
G01X227856Y324132D02*
G03Y330169I2624J3018D01*
G01Y324132D02*
G03X227199I-328J-378D01*
G01X221950D02*
G03X227199I2625J3018D01*
G01X221950D02*
G03X221294I-328J-378D01*
G01X216045D02*
G03X221294I2624J3018D01*
G01X216045D02*
G03X215388I-329J-378D01*
G01Y330169D02*
G03Y324132I-2624J-3019D01*
G01Y330169D02*
G03X216045I328J377D01*
G01X221294D02*
G03X216045I-2625J-3019D01*
G01X221294D02*
G03X221950I328J377D01*
G01X227199D02*
G03X221950I-2624J-3019D01*
G01X227199D02*
G03X227856I329J377D01*
G01X229824Y334132D02*
G03Y340169I2625J3018D01*
G01Y334132D02*
G03X229168I-328J-378D01*
G01X223919D02*
G03X229168I2624J3018D01*
G01X223919D02*
G03X223262I-328J-378D01*
G01X218013D02*
G03X223262I2625J3018D01*
G01X218013D02*
G03X217357I-328J-378D01*
G01Y340169D02*
G03Y334132I-2625J-3019D01*
G01Y340169D02*
G03X218013I328J377D01*
G01X223262D02*
G03X218013I-2624J-3019D01*
G01X223262D02*
G03X223919I329J377D01*
G01X229168D02*
G03X223919I-2625J-3019D01*
G01X229168D02*
G03X229824I328J377D01*
G01X236500Y459000D02*
G03Y458987I500J-14D01*
G01X227500D02*
G03X236500I4500J13D01*
G01X227500D02*
G03Y459000I-500J-1D01*
Y459013I-500J14*
G01X231987Y463500D02*
G03X227500Y459013I13J-4500D01*
G01X231987Y463500D02*
G03X232000I-1J500D01*
X232013I14J500*
G01X236500Y459013D02*
G03X232013Y463500I-4500J-13D01*
G01X236500Y459013D02*
G03Y459000I500J1D01*
G01Y469000D02*
G03Y468987I500J-14D01*
G01X232013Y464500D02*
G03X236500Y468987I-13J4500D01*
G01X232013Y464500D02*
G03X232000I1J-500D01*
X231987I-14J-500*
G01X227500Y468987D02*
G03X231987Y464500I4500J13D01*
G01X227500Y468987D02*
G03Y469000I-500J-1D01*
Y469013I-500J14*
G01X236500D02*
G03X227500I-4500J-13D01*
G01X236500D02*
G03Y469000I500J1D01*
G01X226500Y459000D02*
G03Y458987I500J-14D01*
G01X217500D02*
G03X226500I4500J13D01*
G01X217500D02*
G03Y459000I-500J-1D01*
Y459013I-500J14*
G01X221987Y463500D02*
G03X217500Y459013I13J-4500D01*
G01X221987Y463500D02*
G03X222000I-1J500D01*
X222013I14J500*
G01X226500Y459013D02*
G03X222013Y463500I-4500J-13D01*
G01X226500Y459013D02*
G03Y459000I500J1D01*
G01Y469000D02*
G03Y468987I500J-14D01*
G01X222013Y464500D02*
G03X226500Y468987I-13J4500D01*
G01X222013Y464500D02*
G03X222000I1J-500D01*
X221987I-14J-500*
G01X217500Y468987D02*
G03X221987Y464500I4500J13D01*
G01X217500Y468987D02*
G03Y469000I-500J-1D01*
Y469013I-500J14*
G01X226500D02*
G03X217500I-4500J-13D01*
G01X226500D02*
G03Y469000I500J1D01*
G01X216500Y459000D02*
G03Y458987I500J-14D01*
G01X207500Y458982D02*
G03X216500Y458987I4500J18D01*
G01X207500Y458982D02*
G03Y459000I-500J-2D01*
Y459018I-500J20*
G01X211987Y463500D02*
G03X207500Y459018I13J-4500D01*
G01X211987Y463500D02*
G03X212000I-1J500D01*
X212013I14J500*
G01X216500Y459013D02*
G03X212013Y463500I-4500J-13D01*
G01X216500Y459013D02*
G03Y459000I500J1D01*
G01Y469000D02*
G03Y468987I500J-14D01*
G01X212013Y464500D02*
G03X216500Y468987I-13J4500D01*
G01X212013Y464500D02*
G03X212000I1J-500D01*
X211987I-14J-500*
G01X207500Y468987D02*
G03X211987Y464500I4500J13D01*
G01X207500Y468987D02*
G03Y469000I-500J-1D01*
Y469013I-500J14*
G01X216500D02*
G03X207500I-4500J-13D01*
G01X216500D02*
G03Y469000I500J1D01*
G01X204955Y301730D02*
G03X198918I-3018J2625D01*
G01X204955D02*
G03Y301074I378J-328D01*
G01Y295825D02*
G03Y301074I-3018J2624D01*
G01Y295825D02*
G03Y295168I378J-329D01*
G01Y289919D02*
G03Y295168I-3018J2625D01*
G01Y289919D02*
G03Y289263I378J-328D01*
G01X198918D02*
G03X204955I3019J-2625D01*
G01X198918D02*
G03Y289919I-377J328D01*
G01Y295168D02*
G03Y289919I3019J-2624D01*
G01Y295168D02*
G03Y295825I-377J328D01*
G01Y301074D02*
G03Y295825I3019J-2625D01*
G01Y301074D02*
G03Y301730I-377J328D01*
G01X206500Y459000D02*
G03Y458980I500J-20D01*
G01Y456000*
X205000Y454500D02*
G03X206500Y456000I0J1500D01*
G01X205000Y454500D02*
X199000D01*
X197500Y456000D02*
G03X199000Y454500I1500J0D01*
G01X197500Y456000D02*
Y462000D01*
X199000Y463500D02*
G03X197500Y462000I0J-1500D01*
G01X199000Y463500D02*
X201980D01*
G03X202000I-0J500*
X202020I20J500*
G01X205000*
X206500Y462000D02*
G03X205000Y463500I-1500J0D01*
G01X206500Y462000D02*
Y459020D01*
G03Y459000I500J0*
G01Y469000D02*
G03Y468987I500J-14D01*
G01X202018Y464500D02*
G03X206500Y468987I-18J4500D01*
G01X202018Y464500D02*
G03X202000I2J-500D01*
X201982I-20J-500*
G01X206500Y469013D02*
G03X201982Y464500I-4500J-13D01*
G01X206500Y469013D02*
G03Y469000I500J1D01*
G01X191620Y260063D02*
G03X191620I-7400J0D01*
G01X194955Y303699D02*
G03X188918I-3018J2624D01*
G01X194955D02*
G03Y303042I378J-328D01*
G01Y297793D02*
G03Y303042I-3018J2625D01*
G01Y297793D02*
G03Y297137I378J-328D01*
G01Y291888D02*
G03Y297137I-3018J2624D01*
G01Y291888D02*
G03Y291231I378J-329D01*
G01X188918D02*
G03X194955I3019J-2624D01*
G01X188918D02*
G03Y291888I-377J328D01*
G01Y297137D02*
G03Y291888I3019J-2625D01*
G01Y297137D02*
G03Y297793I-377J328D01*
G01Y303042D02*
G03Y297793I3019J-2624D01*
G01Y303042D02*
G03Y303699I-377J329D01*
G01X184955Y305667D02*
G03X178918I-3018J2625D01*
G01X184955D02*
G03Y305011I378J-328D01*
G01Y299762D02*
G03Y305011I-3018J2624D01*
G01Y299762D02*
G03Y299105I378J-328D01*
G01Y293856D02*
G03Y299105I-3018J2625D01*
G01Y293856D02*
G03Y293200I378J-328D01*
G01X178918D02*
G03X184955I3019J-2625D01*
G01X178918D02*
G03Y293856I-377J328D01*
G01Y299105D02*
G03Y293856I3019J-2624D01*
G01Y299105D02*
G03Y299762I-377J329D01*
G01Y305011D02*
G03Y299762I3019J-2625D01*
G01Y305011D02*
G03Y305667I-377J328D01*
G01X191620Y334867D02*
G03X191620I-7400J0D01*
G01X206500Y125000D02*
G03Y124987I500J-14D01*
G01X201987Y129500D02*
G03X206500Y124987I13J-4500D01*
G01X201987Y129500D02*
G03X202000I-1J500D01*
X202013I14J500*
G01X206500Y125013D02*
G03X202013Y129500I-4500J-13D01*
G01X206500Y125013D02*
G03Y125000I500J1D01*
G01Y135000D02*
G03Y134987I500J-14D01*
G01X202013Y130500D02*
G03X206500Y134987I-13J4500D01*
G01X202013Y130500D02*
G03X202000I1J-500D01*
X201987I-14J-500*
G01X206500Y135013D02*
G03X201987Y130500I-4500J-13D01*
G01X206500Y135013D02*
G03Y135000I500J1D01*
G01X216500Y125000D02*
G03Y124987I500J-14D01*
G01X207500D02*
G03X216500I4500J13D01*
G01X207500D02*
G03Y125000I-500J-1D01*
Y125013I-500J14*
G01X211987Y129500D02*
G03X207500Y125013I13J-4500D01*
G01X211987Y129500D02*
G03X212000I-1J500D01*
X212013I14J500*
G01X216500Y125013D02*
G03X212013Y129500I-4500J-13D01*
G01X216500Y125013D02*
G03Y125000I500J1D01*
G01X387500D02*
G03Y124987I500J-14D01*
G01X382987Y129500D02*
G03X387500Y124987I13J-4500D01*
G01X382987Y129500D02*
G03X383000I-1J500D01*
X383013I14J500*
G01X387500Y125013D02*
G03X383013Y129500I-4500J-13D01*
G01X387500Y125013D02*
G03Y125000I500J1D01*
G01Y135000D02*
G03Y134987I500J-14D01*
G01X383013Y130500D02*
G03X387500Y134987I-13J4500D01*
G01X383013Y130500D02*
G03X383000I1J-500D01*
X382987I-14J-500*
G01X387500Y135013D02*
G03X382987Y130500I-4500J-13D01*
G01X387500Y135013D02*
G03Y135000I500J1D01*
G01X237500Y124987D02*
G03X242018Y129500I4500J13D01*
G01X237500Y124987D02*
G03Y125000I-500J-1D01*
Y125013I-500J14*
G01X241982Y129500D02*
G03X237500Y125013I18J-4500D01*
G01X241982Y129500D02*
G03X242000I-2J500D01*
X242018I20J500*
G01X246500Y138000D02*
Y132000D01*
X245000Y130500D02*
G03X246500Y132000I0J1500D01*
G01X245000Y130500D02*
X242020D01*
G03X242000I0J-500*
X241980I-20J-500*
G01X239000*
X237500Y132000D02*
G03X239000Y130500I1500J0D01*
G01X237500Y132000D02*
Y134980D01*
G03Y135000I-500J-0*
Y135020I-500J20*
G01Y138000*
X239000Y139500D02*
G03X237500Y138000I0J-1500D01*
G01X239000Y139500D02*
X245000D01*
X246500Y138000D02*
G03X245000Y139500I-1500J0D01*
G01X568500Y125000D02*
G03Y124987I500J-14D01*
G01X563987Y129500D02*
G03X568500Y124987I13J-4500D01*
G01X563987Y129500D02*
G03X564000I-1J500D01*
X564013I14J500*
G01X568500Y125013D02*
G03X564013Y129500I-4500J-13D01*
G01X568500Y125013D02*
G03Y125000I500J1D01*
G01Y135000D02*
G03Y134987I500J-14D01*
G01X564013Y130500D02*
G03X568500Y134987I-13J4500D01*
G01X564013Y130500D02*
G03X564000I1J-500D01*
X563987I-14J-500*
G01X568500Y135013D02*
G03X563987Y130500I-4500J-13D01*
G01X568500Y135013D02*
G03Y135000I500J1D01*
G01X418500Y124987D02*
G03X423018Y129500I4500J13D01*
G01X418500Y124987D02*
G03Y125000I-500J-1D01*
Y125013I-500J14*
G01X422982Y129500D02*
G03X418500Y125013I18J-4500D01*
G01X422982Y129500D02*
G03X423000I-2J500D01*
X423018I20J500*
G01X427500Y138000D02*
Y132000D01*
X426000Y130500D02*
G03X427500Y132000I0J1500D01*
G01X426000Y130500D02*
X423020D01*
G03X423000I0J-500*
X422980I-20J-500*
G01X420000*
X418500Y132000D02*
G03X420000Y130500I1500J0D01*
G01X418500Y132000D02*
Y134980D01*
G03Y135000I-500J-0*
Y135020I-500J20*
G01Y138000*
X420000Y139500D02*
G03X418500Y138000I0J-1500D01*
G01X420000Y139500D02*
X426000D01*
X427500Y138000D02*
G03X426000Y139500I-1500J0D01*
G01X749500Y125000D02*
G03Y124987I500J-14D01*
G01X744987Y129500D02*
G03X749500Y124987I13J-4500D01*
G01X744987Y129500D02*
G03X745000I-1J500D01*
X745013I14J500*
G01X749500Y125013D02*
G03X745013Y129500I-4500J-13D01*
G01X749500Y125013D02*
G03Y125000I500J1D01*
G01Y135000D02*
G03Y134987I500J-14D01*
G01X745013Y130500D02*
G03X749500Y134987I-13J4500D01*
G01X745013Y130500D02*
G03X745000I1J-500D01*
X744987I-14J-500*
G01X749500Y135013D02*
G03X744987Y130500I-4500J-13D01*
G01X749500Y135013D02*
G03Y135000I500J1D01*
G01X599500Y124987D02*
G03X604018Y129500I4500J13D01*
G01X599500Y124987D02*
G03Y125000I-500J-1D01*
Y125013I-500J14*
G01X603982Y129500D02*
G03X599500Y125013I18J-4500D01*
G01X603982Y129500D02*
G03X604000I-2J500D01*
X604018I20J500*
G01X608500Y138000D02*
Y132000D01*
X607000Y130500D02*
G03X608500Y132000I0J1500D01*
G01X607000Y130500D02*
X604020D01*
G03X604000I0J-500*
X603980I-20J-500*
G01X601000*
X599500Y132000D02*
G03X601000Y130500I1500J0D01*
G01X599500Y132000D02*
Y134980D01*
G03Y135000I-500J-0*
Y135020I-500J20*
G01Y138000*
X601000Y139500D02*
G03X599500Y138000I0J-1500D01*
G01X601000Y139500D02*
X607000D01*
X608500Y138000D02*
G03X607000Y139500I-1500J0D01*
G01X104200Y486099D02*
X885000D01*
X104200Y485199D02*
X885000D01*
X104200Y484299D02*
X885000D01*
X104200Y483399D02*
X885000D01*
X104200Y482499D02*
X885000D01*
X104200Y481599D02*
X885000D01*
X104200Y480699D02*
X885000D01*
X104200Y479799D02*
X885000D01*
X104200Y478899D02*
X885000D01*
X104200Y477999D02*
X885000D01*
X104200Y477099D02*
X885000D01*
X104200Y476199D02*
X885000D01*
X104200Y475299D02*
X885000D01*
X104200Y474399D02*
X885000D01*
X785110Y473499D02*
X885000D01*
X787702Y472599D02*
X885000D01*
X788601Y471699D02*
X885000D01*
X789125Y470799D02*
X885000D01*
X789409Y469899D02*
X885000D01*
X789500Y468999D02*
X885000D01*
X789409Y468099D02*
X885000D01*
X789124Y467199D02*
X885000D01*
X788599Y466299D02*
X885000D01*
X787698Y465399D02*
X885000D01*
X104200Y464499D02*
X885000D01*
X104200Y463599D02*
X885000D01*
X787563Y462699D02*
X885000D01*
X788524Y461799D02*
X885000D01*
X789080Y460899D02*
X885000D01*
X789388Y459999D02*
X885000D01*
X789499Y459099D02*
X885000D01*
X789428Y458199D02*
X885000D01*
X789166Y457299D02*
X885000D01*
X788672Y456399D02*
X885000D01*
X787827Y455499D02*
X885000D01*
X785937Y454599D02*
X885000D01*
X104200Y453699D02*
X885000D01*
X104200Y452799D02*
X885000D01*
X104200Y451899D02*
X885000D01*
X104200Y450999D02*
X885000D01*
X104200Y450099D02*
X885000D01*
X104200Y449199D02*
X885000D01*
X104200Y448299D02*
X885000D01*
X104200Y447399D02*
X885000D01*
X104200Y446499D02*
X885000D01*
X104200Y445599D02*
X885000D01*
X104200Y444699D02*
X885000D01*
X104200Y443799D02*
X885000D01*
X104200Y442899D02*
X885000D01*
X104200Y441999D02*
X885000D01*
X104200Y441099D02*
X885000D01*
X104200Y440199D02*
X885000D01*
X104200Y439299D02*
X885000D01*
X104200Y438399D02*
X885000D01*
X104200Y437499D02*
X885000D01*
X104200Y436599D02*
X885000D01*
X104200Y435699D02*
X885000D01*
X104200Y434799D02*
X885000D01*
X104200Y433899D02*
X885000D01*
X104200Y432999D02*
X885000D01*
X104200Y432099D02*
X885000D01*
X104200Y431199D02*
X885000D01*
X104200Y430299D02*
X885000D01*
X104200Y429399D02*
X885000D01*
X104200Y428499D02*
X885000D01*
X104200Y427599D02*
X885000D01*
X104200Y426699D02*
X885000D01*
X104200Y425799D02*
X885000D01*
X104200Y424899D02*
X885000D01*
X104200Y423999D02*
X885000D01*
X104200Y423099D02*
X885000D01*
X104200Y422199D02*
X885000D01*
X104200Y421299D02*
X885000D01*
X104200Y420399D02*
X885000D01*
X104200Y419499D02*
X885000D01*
X104200Y418599D02*
X885000D01*
X104200Y417699D02*
X885000D01*
X104200Y416799D02*
X885000D01*
X104200Y415899D02*
X885000D01*
X104200Y414999D02*
X885000D01*
X104200Y414099D02*
X885000D01*
X104200Y413199D02*
X885000D01*
X104200Y412299D02*
X885000D01*
X104200Y411399D02*
X885000D01*
X104200Y410499D02*
X885000D01*
X104200Y409599D02*
X885000D01*
X104200Y408699D02*
X885000D01*
X104200Y407799D02*
X885000D01*
X104200Y406899D02*
X885000D01*
X104200Y405999D02*
X885000D01*
X104200Y405099D02*
X885000D01*
X104200Y404199D02*
X885000D01*
X104200Y403299D02*
X885000D01*
X104200Y402399D02*
X885000D01*
X104200Y401499D02*
X885000D01*
X104200Y400599D02*
X885000D01*
X104200Y399699D02*
X885000D01*
X104200Y398799D02*
X885000D01*
X104200Y397899D02*
X885000D01*
X104200Y396999D02*
X885000D01*
X104200Y396099D02*
X885000D01*
X104200Y395199D02*
X885000D01*
X104200Y394299D02*
X885000D01*
X104200Y393399D02*
X885000D01*
X104200Y392499D02*
X885000D01*
X104200Y391599D02*
X885000D01*
X104200Y390699D02*
X885000D01*
X104200Y389799D02*
X885000D01*
X104200Y388899D02*
X885000D01*
X104200Y387999D02*
X885000D01*
X104200Y387099D02*
X885000D01*
X104200Y386199D02*
X885000D01*
X104200Y385299D02*
X885000D01*
X104200Y384399D02*
X885000D01*
X104200Y383499D02*
X885000D01*
X104200Y382599D02*
X885000D01*
X104200Y381699D02*
X885000D01*
X104200Y380799D02*
X885000D01*
X104200Y379899D02*
X885000D01*
X104200Y378999D02*
X885000D01*
X104200Y378099D02*
X885000D01*
X104200Y377199D02*
X885000D01*
X104200Y376299D02*
X885000D01*
X104200Y375399D02*
X885000D01*
X104200Y374499D02*
X885000D01*
X104200Y373599D02*
X885000D01*
X104200Y372699D02*
X885000D01*
X104200Y371799D02*
X885000D01*
X104200Y370899D02*
X885000D01*
X104200Y369999D02*
X885000D01*
X104200Y369099D02*
X885000D01*
X104200Y368199D02*
X885000D01*
X104200Y367299D02*
X885000D01*
X104200Y366399D02*
X885000D01*
X104200Y365499D02*
X885000D01*
X104200Y364599D02*
X885000D01*
X104200Y363699D02*
X885000D01*
X104200Y362799D02*
X885000D01*
X104200Y361899D02*
X885000D01*
X104200Y360999D02*
X885000D01*
X104200Y360099D02*
X885000D01*
X104200Y359199D02*
X885000D01*
X104200Y358299D02*
X885000D01*
X104200Y357399D02*
X885000D01*
X104200Y356499D02*
X885000D01*
X104200Y355599D02*
X885000D01*
X104200Y354699D02*
X885000D01*
X104200Y353799D02*
X885000D01*
X104200Y352899D02*
X885000D01*
X104200Y351999D02*
X885000D01*
X104200Y351099D02*
X885000D01*
X104200Y350199D02*
X885000D01*
X104200Y349299D02*
X885000D01*
X104200Y348399D02*
X885000D01*
X104200Y347499D02*
X885000D01*
X104200Y346599D02*
X885000D01*
X104200Y345699D02*
X885000D01*
X104200Y344799D02*
X885000D01*
X104200Y343899D02*
X885000D01*
X104200Y342999D02*
X885000D01*
X803591Y342099D02*
X885000D01*
X805853Y341199D02*
X885000D01*
X807049Y340299D02*
X885000D01*
X807873Y339399D02*
X885000D01*
X808471Y338499D02*
X885000D01*
X808901Y337599D02*
X885000D01*
X809193Y336699D02*
X885000D01*
X809365Y335799D02*
X885000D01*
X809424Y334899D02*
X885000D01*
X809373Y333999D02*
X885000D01*
X809209Y333099D02*
X885000D01*
X808926Y332199D02*
X885000D01*
X808507Y331299D02*
X885000D01*
X807923Y330399D02*
X885000D01*
X807117Y329499D02*
X885000D01*
X805957Y328599D02*
X885000D01*
X803863Y327699D02*
X885000D01*
X777465Y326799D02*
X885000D01*
X777280Y325899D02*
X885000D01*
X776852Y324999D02*
X885000D01*
X776067Y324099D02*
X885000D01*
X774102Y323199D02*
X885000D01*
X104200Y322299D02*
X885000D01*
X104200Y321399D02*
X885000D01*
X773700Y320499D02*
X885000D01*
X774675Y319599D02*
X885000D01*
X775200Y318699D02*
X885000D01*
X775459Y317799D02*
X885000D01*
X775504Y316899D02*
X885000D01*
X775343Y315999D02*
X885000D01*
X774946Y315099D02*
X885000D01*
X774212Y314199D02*
X885000D01*
X772592Y313299D02*
X885000D01*
X104200Y312399D02*
X885000D01*
X786698Y311499D02*
X885000D01*
X787575Y310599D02*
X885000D01*
X796453Y309699D02*
X885000D01*
X797449Y308799D02*
X885000D01*
X806162Y307899D02*
X885000D01*
X807309Y306999D02*
X885000D01*
X807907Y306099D02*
X885000D01*
X808217Y305199D02*
X885000D01*
X808307Y304299D02*
X885000D01*
X808191Y303399D02*
X885000D01*
X807850Y302499D02*
X885000D01*
X807243Y301599D02*
X885000D01*
X807615Y300699D02*
X885000D01*
X808073Y299799D02*
X885000D01*
X808282Y298899D02*
X885000D01*
X808282Y297999D02*
X885000D01*
X808072Y297099D02*
X885000D01*
X807614Y296199D02*
X885000D01*
X807244Y295299D02*
X885000D01*
X807851Y294399D02*
X885000D01*
X808191Y293499D02*
X885000D01*
X808307Y292599D02*
X885000D01*
X808217Y291699D02*
X885000D01*
X807906Y290799D02*
X885000D01*
X807309Y289899D02*
X885000D01*
X807536Y288999D02*
X885000D01*
X808031Y288099D02*
X885000D01*
X808268Y287199D02*
X885000D01*
X808293Y286299D02*
X885000D01*
X808110Y285399D02*
X885000D01*
X807687Y284499D02*
X885000D01*
X806907Y283599D02*
X885000D01*
X805000Y282699D02*
X885000D01*
X162600Y281799D02*
X885000D01*
X777954Y280899D02*
X885000D01*
X778777Y279999D02*
X885000D01*
X779225Y279099D02*
X885000D01*
X779427Y278199D02*
X885000D01*
X779420Y277299D02*
X885000D01*
X779203Y276399D02*
X885000D01*
X778734Y275499D02*
X885000D01*
X777874Y274599D02*
X885000D01*
X162600Y273699D02*
X885000D01*
X162600Y272799D02*
X885000D01*
X162600Y271899D02*
X885000D01*
X775855Y270999D02*
X885000D01*
X776740Y270099D02*
X885000D01*
X777220Y269199D02*
X885000D01*
X777447Y268299D02*
X885000D01*
X803000Y267399D02*
X885000D01*
X805677Y266499D02*
X885000D01*
X806935Y265599D02*
X885000D01*
X807792Y264699D02*
X885000D01*
X808412Y263799D02*
X885000D01*
X808859Y262899D02*
X885000D01*
X809166Y261999D02*
X885000D01*
X809351Y261099D02*
X885000D01*
X809422Y260199D02*
X885000D01*
X809384Y259299D02*
X885000D01*
X809234Y258399D02*
X885000D01*
X808965Y257499D02*
X885000D01*
X808562Y256599D02*
X885000D01*
X807999Y255699D02*
X885000D01*
X807224Y254799D02*
X885000D01*
X806117Y253899D02*
X885000D01*
X804226Y252999D02*
X885000D01*
X162600Y252099D02*
X885000D01*
X162600Y251199D02*
X885000D01*
X162600Y250299D02*
X885000D01*
X162600Y249399D02*
X885000D01*
X162600Y248499D02*
X885000D01*
X162600Y247599D02*
X885000D01*
X162600Y246699D02*
X885000D01*
X162600Y245799D02*
X885000D01*
X162600Y244899D02*
X885000D01*
X162600Y243999D02*
X885000D01*
X162600Y243099D02*
X885000D01*
X162600Y242199D02*
X885000D01*
X162600Y241299D02*
X885000D01*
X162600Y240399D02*
X885000D01*
X162600Y239499D02*
X885000D01*
X162600Y238599D02*
X885000D01*
X162600Y237699D02*
X885000D01*
X162600Y236799D02*
X885000D01*
X162600Y235899D02*
X885000D01*
X162600Y234999D02*
X885000D01*
X163244Y234099D02*
X885000D01*
X164144Y233199D02*
X885000D01*
X165044Y232299D02*
X885000D01*
X165944Y231399D02*
X885000D01*
X166844Y230499D02*
X885000D01*
X167744Y229599D02*
X885000D01*
X168644Y228699D02*
X885000D01*
X169544Y227799D02*
X885000D01*
X170444Y226899D02*
X885000D01*
X171344Y225999D02*
X885000D01*
X172244Y225099D02*
X885000D01*
X173144Y224199D02*
X885000D01*
X174044Y223299D02*
X885000D01*
X174944Y222399D02*
X885000D01*
X175699Y221499D02*
X885000D01*
X176040Y220599D02*
X885000D01*
X176100Y219699D02*
X885000D01*
X176100Y218799D02*
X885000D01*
X176100Y217899D02*
X885000D01*
X176100Y216999D02*
X885000D01*
X176100Y216099D02*
X885000D01*
X176100Y215199D02*
X885000D01*
X176100Y214299D02*
X885000D01*
X176100Y213399D02*
X885000D01*
X176100Y212499D02*
X885000D01*
X176100Y211599D02*
X885000D01*
X176100Y210699D02*
X885000D01*
X176100Y209799D02*
X885000D01*
X176100Y208899D02*
X885000D01*
X176100Y207999D02*
X885000D01*
X176100Y207099D02*
X885000D01*
X176100Y206199D02*
X885000D01*
X176100Y205299D02*
X885000D01*
X176100Y204399D02*
X885000D01*
X176100Y203499D02*
X885000D01*
X176100Y202599D02*
X885000D01*
X176100Y201699D02*
X885000D01*
X176100Y200799D02*
X885000D01*
X176100Y199899D02*
X885000D01*
X176100Y198999D02*
X885000D01*
X176100Y198099D02*
X885000D01*
X176100Y197199D02*
X885000D01*
X176100Y196299D02*
X885000D01*
X176100Y195399D02*
X885000D01*
X176100Y194499D02*
X885000D01*
X176100Y193599D02*
X885000D01*
X176100Y192699D02*
X885000D01*
X176100Y191799D02*
X885000D01*
X176100Y190899D02*
X885000D01*
X176100Y189999D02*
X885000D01*
X176100Y189099D02*
X885000D01*
X176100Y188199D02*
X885000D01*
X176100Y187299D02*
X885000D01*
X176100Y186399D02*
X885000D01*
X176100Y185499D02*
X885000D01*
X176123Y184599D02*
X885000D01*
X176944Y183699D02*
X885000D01*
X796251Y182799D02*
X885000D01*
X796946Y181899D02*
X885000D01*
X797000Y180999D02*
X885000D01*
X797000Y180099D02*
X885000D01*
X797000Y179199D02*
X885000D01*
X797000Y178299D02*
X885000D01*
X797000Y177399D02*
X885000D01*
X797000Y176499D02*
X885000D01*
X796699Y175599D02*
X885000D01*
X185944Y174699D02*
X885000D01*
X186844Y173799D02*
X885000D01*
X793895Y172899D02*
X885000D01*
X795647Y171999D02*
X885000D01*
X796405Y171099D02*
X885000D01*
X796816Y170199D02*
X885000D01*
X796989Y169299D02*
X885000D01*
X796955Y168399D02*
X885000D01*
X796708Y167499D02*
X885000D01*
X796199Y166599D02*
X885000D01*
X795259Y165699D02*
X885000D01*
X195850Y164799D02*
X885000D01*
X196744Y163899D02*
X885000D01*
X197644Y162999D02*
X885000D01*
X198544Y162099D02*
X885000D01*
X199444Y161199D02*
X885000D01*
X200344Y160299D02*
X885000D01*
X201244Y159399D02*
X885000D01*
X202144Y158499D02*
X885000D01*
X203044Y157599D02*
X885000D01*
X203944Y156699D02*
X885000D01*
X204844Y155799D02*
X885000D01*
X205744Y154899D02*
X885000D01*
X206644Y153999D02*
X885000D01*
X207544Y153099D02*
X885000D01*
X208444Y152199D02*
X885000D01*
X209344Y151299D02*
X885000D01*
X210244Y150399D02*
X885000D01*
X211144Y149499D02*
X885000D01*
X393628Y148599D02*
X885000D01*
X756310Y147699D02*
X885000D01*
X757444Y146799D02*
X885000D01*
X758344Y145899D02*
X885000D01*
X759244Y144999D02*
X885000D01*
X760144Y144099D02*
X885000D01*
X761044Y143199D02*
X885000D01*
X761944Y142299D02*
X885000D01*
X762948Y141399D02*
X885000D01*
X764340Y140499D02*
X885000D01*
X765733Y139599D02*
X885000D01*
X789327Y138699D02*
X885000D01*
X789500Y137799D02*
X885000D01*
X789500Y136899D02*
X885000D01*
X789500Y135999D02*
X885000D01*
X789500Y135099D02*
X885000D01*
X789500Y134199D02*
X885000D01*
X789500Y133299D02*
X885000D01*
X789500Y132399D02*
X885000D01*
X789414Y131499D02*
X885000D01*
X788535Y130599D02*
X885000D01*
X104200Y129699D02*
X885000D01*
X787413Y128799D02*
X885000D01*
X788442Y127899D02*
X885000D01*
X789032Y126999D02*
X885000D01*
X789364Y126099D02*
X885000D01*
X789496Y125199D02*
X885000D01*
X789445Y124299D02*
X885000D01*
X789205Y123399D02*
X885000D01*
X788741Y122499D02*
X885000D01*
X787946Y121599D02*
X885000D01*
X786322Y120699D02*
X885000D01*
X764800Y119799D02*
X885000D01*
X763408Y118899D02*
X885000D01*
X762241Y117999D02*
X885000D01*
X761341Y117099D02*
X885000D01*
X760441Y116199D02*
X885000D01*
X759541Y115299D02*
X885000D01*
X758641Y114399D02*
X885000D01*
X757698Y113499D02*
X885000D01*
X104200Y112599D02*
X885000D01*
X104200Y111699D02*
X885000D01*
X104200Y110799D02*
X885000D01*
X104200Y109899D02*
X885000D01*
X104200Y108999D02*
X885000D01*
X104200Y108099D02*
X885000D01*
X104200Y107199D02*
X885000D01*
X104200Y106299D02*
X885000D01*
X104200Y105399D02*
X885000D01*
X104248Y486999D02*
X884952D01*
X104708Y104499D02*
X884492D01*
X105106Y487899D02*
X884094D01*
X105608Y103599D02*
X883592D01*
X106006Y488799D02*
X883194D01*
X106508Y102699D02*
X882692D01*
X106906Y489699D02*
X882294D01*
X745630Y282699D02*
X803614D01*
X797984Y307899D02*
X802452D01*
X747537Y283599D02*
X801707D01*
X798129Y301599D02*
X801371D01*
X798229Y295299D02*
X801370D01*
X798250Y306999D02*
X801305D01*
X798093Y289899D02*
X801305D01*
X798288Y288999D02*
X801078D01*
X777462Y267399D02*
X801047D01*
X797934Y296199D02*
X801000D01*
X798297Y300699D02*
X800999D01*
X748317Y284499D02*
X800927D01*
X797723Y302499D02*
X800764D01*
X798305Y294399D02*
X800763D01*
X797653Y290799D02*
X800708D01*
X798301Y306099D02*
X800707D01*
X798275Y288099D02*
X800583D01*
X797358Y297099D02*
X800542D01*
X798259Y299799D02*
X800542D01*
X796696Y285399D02*
X800504D01*
X728788Y342099D02*
X800456D01*
X797204Y303399D02*
X800423D01*
X798177Y293499D02*
X800423D01*
X797223Y291699D02*
X800397D01*
X798146Y305199D02*
X800397D01*
X798051Y287199D02*
X800346D01*
X797493Y297999D02*
X800332D01*
X798007Y298899D02*
X800332D01*
X797574Y286299D02*
X800321D01*
X797757Y304299D02*
X800307D01*
X797820Y292599D02*
X800307D01*
X777442Y327699D02*
X800185D01*
X729423Y252999D02*
X799821D01*
X777270Y266499D02*
X798370D01*
X731050Y341199D02*
X798194D01*
X777209Y328599D02*
X798090D01*
X772479Y253899D02*
X797930D01*
X776833Y265599D02*
X797112D01*
X777916Y340299D02*
X796998D01*
X776718Y329499D02*
X796930D01*
X774179Y254799D02*
X796823D01*
X776031Y264699D02*
X796255D01*
X778757Y339399D02*
X796174D01*
X775814Y330399D02*
X796125D01*
X774928Y255699D02*
X796048D01*
X773867Y263799D02*
X795635D01*
X779215Y338499D02*
X795576D01*
X733704Y331299D02*
X795540D01*
X775333Y256599D02*
X795485D01*
X734056Y262899D02*
X795188D01*
X779424Y337599D02*
X795146D01*
X734123Y332199D02*
X795121D01*
X775502Y257499D02*
X795082D01*
X734363Y261999D02*
X794881D01*
X779423Y336699D02*
X794854D01*
X734406Y333099D02*
X794838D01*
X775464Y258399D02*
X794813D01*
X773745Y261099D02*
X794696D01*
X779214Y335799D02*
X794682D01*
X777912Y333999D02*
X794675D01*
X775212Y259299D02*
X794663D01*
X774698Y260199D02*
X794625D01*
X778755Y334899D02*
X794624D01*
X788051Y309699D02*
X792161D01*
X737895Y172899D02*
X792105D01*
X748740Y285399D02*
X791918D01*
X788492Y303399D02*
X791410D01*
X788461Y291699D02*
X791391D01*
X788574Y297099D02*
X791256D01*
X788275Y308799D02*
X791165D01*
X788323Y297999D02*
X791121D01*
X748923Y286299D02*
X791040D01*
X788616Y290799D02*
X790961D01*
X788620Y302499D02*
X790891D01*
X788135Y304299D02*
X790857D01*
X788072Y292599D02*
X790794D01*
X739259Y165699D02*
X790741D01*
X788612Y296199D02*
X790680D01*
X788288Y307899D02*
X790630D01*
X787808Y298899D02*
X790607D01*
X786767Y287199D02*
X790563D01*
X788564Y289899D02*
X790521D01*
X788544Y301599D02*
X790485D01*
X787468Y305199D02*
X790468D01*
X787519Y293499D02*
X790438D01*
X788443Y295299D02*
X790385D01*
X788092Y306999D02*
X790364D01*
X787672Y299799D02*
X790355D01*
X739647Y171999D02*
X790353D01*
X787763Y288099D02*
X790339D01*
X788298Y288999D02*
X790326D01*
X788249Y300699D02*
X790317D01*
X787652Y306099D02*
X790313D01*
X788037Y294399D02*
X790309D01*
X740199Y166599D02*
X789801D01*
X740251Y182799D02*
X789749D01*
X740405Y171099D02*
X789595D01*
X740699Y175599D02*
X789301D01*
X740708Y167499D02*
X789292D01*
X740816Y170199D02*
X789184D01*
X740946Y181899D02*
X789054D01*
X740955Y168399D02*
X789045D01*
X740989Y169299D02*
X789011D01*
X741000Y176499D02*
X789000D01*
X775110Y473499D02*
X784890D01*
X775937Y454599D02*
X784063D01*
X776322Y120699D02*
X783678D01*
X777413Y128799D02*
X782587D01*
X748898Y287199D02*
X782477D01*
X777563Y462699D02*
X782437D01*
X777698Y465399D02*
X782302D01*
X777702Y472599D02*
X782298D01*
X777827Y455499D02*
X782173D01*
X777946Y121599D02*
X782054D01*
X727328Y311499D02*
X781916D01*
X748821Y293499D02*
X781725D01*
X748847Y305199D02*
X781576D01*
X748702Y299799D02*
X781572D01*
X778442Y127899D02*
X781558D01*
X748661Y288099D02*
X781481D01*
X778524Y461799D02*
X781476D01*
X775937Y130599D02*
X781465D01*
X748912Y298899D02*
X781436D01*
X778599Y466299D02*
X781401D01*
X778601Y471699D02*
X781399D01*
X778672Y456399D02*
X781328D01*
X778741Y122499D02*
X781259D01*
X748481Y294399D02*
X781207D01*
X748937Y292599D02*
X781172D01*
X748937Y304299D02*
X781109D01*
X728205Y310599D02*
X781039D01*
X748245Y300699D02*
X780995D01*
X779032Y126999D02*
X780968D01*
X748537Y306099D02*
X780962D01*
X748166Y288999D02*
X780946D01*
X748912Y297999D02*
X780921D01*
X779080Y460899D02*
X780920D01*
X779124Y467199D02*
X780876D01*
X779125Y470799D02*
X780875D01*
X779166Y457299D02*
X780834D01*
X747874Y295299D02*
X780801D01*
X779205Y123399D02*
X780795D01*
X748847Y291699D02*
X780783D01*
X748821Y303399D02*
X780752D01*
X747873Y301599D02*
X780700D01*
X747939Y289899D02*
X780680D01*
X777563Y138699D02*
X780673D01*
X748702Y297099D02*
X780670D01*
X779364Y126099D02*
X780636D01*
X748244Y296199D02*
X780632D01*
X748536Y290799D02*
X780628D01*
X748480Y302499D02*
X780624D01*
X779388Y459999D02*
X780612D01*
X779409Y468099D02*
X780591D01*
X779409Y469899D02*
X780591D01*
X777827Y131499D02*
X780586D01*
X779428Y458199D02*
X780572D01*
X737083Y309699D02*
X780563D01*
X779445Y124299D02*
X780555D01*
X747939Y306999D02*
X780522D01*
X779496Y125199D02*
X780504D01*
X779499Y459099D02*
X780501D01*
X778524Y137799D02*
X780500D01*
X779080Y136899D02*
X780500D01*
X779388Y135999D02*
X780500D01*
X779499Y135099D02*
X780500D01*
X779428Y134199D02*
X780500D01*
X779166Y133299D02*
X780500D01*
X778672Y132399D02*
X780500D01*
X779500Y468999D02*
X780500D01*
X738079Y308799D02*
X780339D01*
X746792Y307899D02*
X780326D01*
X765110Y473499D02*
X774890D01*
X765937Y454599D02*
X774063D01*
X765937Y130599D02*
X774063D01*
X766322Y120699D02*
X773678D01*
X767962Y263799D02*
X773093D01*
X771968Y274599D02*
X773024D01*
X772007Y333999D02*
X772985D01*
X772010Y340299D02*
X772982D01*
X772048Y280899D02*
X772944D01*
X768197Y323199D02*
X772858D01*
X767413Y128799D02*
X772587D01*
X767563Y462699D02*
X772437D01*
X767563Y138699D02*
X772437D01*
X767698Y465399D02*
X772302D01*
X767702Y472599D02*
X772298D01*
X767827Y455499D02*
X772173D01*
X767827Y131499D02*
X772173D01*
X767946Y121599D02*
X772054D01*
X768442Y127899D02*
X771558D01*
X768524Y461799D02*
X771476D01*
X768524Y137799D02*
X771476D01*
X768599Y466299D02*
X771401D01*
X768601Y471699D02*
X771399D01*
X768672Y456399D02*
X771328D01*
X768672Y132399D02*
X771328D01*
X768741Y122499D02*
X771259D01*
X769909Y330399D02*
X771147D01*
X769950Y270999D02*
X771105D01*
X769032Y126999D02*
X770968D01*
X770125Y264699D02*
X770930D01*
X769080Y460899D02*
X770920D01*
X769080Y136899D02*
X770920D01*
X770161Y324099D02*
X770894D01*
X769124Y467199D02*
X770876D01*
X769125Y470799D02*
X770875D01*
X769166Y457299D02*
X770834D01*
X769166Y133299D02*
X770834D01*
X769205Y123399D02*
X770795D01*
X769364Y126099D02*
X770636D01*
X769388Y459999D02*
X770612D01*
X769388Y135999D02*
X770612D01*
X769409Y468099D02*
X770591D01*
X769409Y469899D02*
X770591D01*
X769428Y458199D02*
X770572D01*
X769428Y134199D02*
X770572D01*
X769445Y124299D02*
X770555D01*
X766574Y253899D02*
X770544D01*
X769496Y125199D02*
X770504D01*
X769499Y459099D02*
X770501D01*
X769499Y135099D02*
X770501D01*
X769500Y468999D02*
X770500D01*
X766687Y313299D02*
X770431D01*
X767794Y320499D02*
X769324D01*
X767839Y261099D02*
X769279D01*
X768279Y254799D02*
X768839D01*
X768330Y314199D02*
X768788D01*
X762056Y263799D02*
X767188D01*
X766063Y274599D02*
X767118D01*
X766101Y333999D02*
X767080D01*
X766105Y340299D02*
X767076D01*
X766142Y280899D02*
X767039D01*
X762291Y323199D02*
X766953D01*
X764003Y330399D02*
X765241D01*
X764044Y270999D02*
X765200D01*
X764220Y264699D02*
X765024D01*
X764256Y324099D02*
X764988D01*
X755110Y473499D02*
X764890D01*
X760668Y253899D02*
X764639D01*
X760781Y313299D02*
X764526D01*
X755937Y454599D02*
X764063D01*
X755937Y130599D02*
X764063D01*
X761889Y320499D02*
X763418D01*
X761934Y261099D02*
X763373D01*
X762374Y254799D02*
X762933D01*
X762424Y314199D02*
X762883D01*
X757413Y128799D02*
X762587D01*
X757563Y462699D02*
X762437D01*
X757698Y465399D02*
X762302D01*
X757702Y472599D02*
X762298D01*
X757827Y455499D02*
X762173D01*
X757827Y131499D02*
X762173D01*
X758442Y127899D02*
X761558D01*
X758524Y461799D02*
X761476D01*
X758599Y466299D02*
X761401D01*
X758601Y471699D02*
X761399D01*
X758672Y456399D02*
X761328D01*
X758672Y132399D02*
X761328D01*
X756151Y263799D02*
X761282D01*
X760157Y274599D02*
X761213D01*
X760196Y333999D02*
X761174D01*
X760199Y340299D02*
X761171D01*
X760237Y280899D02*
X761133D01*
X756386Y323199D02*
X761047D01*
X759032Y126999D02*
X760968D01*
X759080Y460899D02*
X760920D01*
X759124Y467199D02*
X760876D01*
X759125Y470799D02*
X760875D01*
X759166Y457299D02*
X760834D01*
X759166Y133299D02*
X760834D01*
X759364Y126099D02*
X760630D01*
X759388Y459999D02*
X760612D01*
X759409Y468099D02*
X760591D01*
X759409Y469899D02*
X760591D01*
X759428Y458199D02*
X760572D01*
X759499Y459099D02*
X760501D01*
X759500Y468999D02*
X760500D01*
X759428Y134199D02*
X760446D01*
X758097Y330399D02*
X759335D01*
X758139Y270999D02*
X759294D01*
X758314Y264699D02*
X759119D01*
X758350Y324099D02*
X759083D01*
X756880Y253899D02*
X758733D01*
X754876Y313299D02*
X758620D01*
X755983Y320499D02*
X757513D01*
X756519Y314199D02*
X756977D01*
X593492Y119799D02*
X755508D01*
X733609Y263799D02*
X755377D01*
X593651Y139599D02*
X755349D01*
X596874Y274599D02*
X755307D01*
X734569Y333999D02*
X755269D01*
X732246Y340299D02*
X755265D01*
X593741Y140499D02*
X755259D01*
X596954Y280899D02*
X755227D01*
X593102Y323199D02*
X755142D01*
X745110Y473499D02*
X754890D01*
X597734Y275499D02*
X754447D01*
X734620Y334899D02*
X754426D01*
X733070Y339399D02*
X754424D01*
X597777Y279999D02*
X754404D01*
X594641Y141399D02*
X754352D01*
X748535Y454599D02*
X754063D01*
X745937Y130599D02*
X754063D01*
X598203Y276399D02*
X753978D01*
X734562Y335799D02*
X753967D01*
X733668Y338499D02*
X753966D01*
X598225Y279099D02*
X753956D01*
X598420Y277299D02*
X753761D01*
X734390Y336699D02*
X753758D01*
X734098Y337599D02*
X753757D01*
X598427Y278199D02*
X753754D01*
X746322Y120699D02*
X753678D01*
X733119Y330399D02*
X753430D01*
X594855Y270999D02*
X753389D01*
X732989Y264699D02*
X753213D01*
X595067Y324099D02*
X753177D01*
X591592Y313299D02*
X752715D01*
X747413Y128799D02*
X752587D01*
X732314Y329499D02*
X752526D01*
X595740Y270099D02*
X752504D01*
X749327Y462699D02*
X752437D01*
X747563Y138699D02*
X752437D01*
X732132Y265599D02*
X752411D01*
X595852Y324999D02*
X752392D01*
X747698Y465399D02*
X752302D01*
X747702Y472599D02*
X752298D01*
X749414Y455499D02*
X752173D01*
X747827Y131499D02*
X752173D01*
X747946Y121599D02*
X752054D01*
X731154Y328599D02*
X752035D01*
X596220Y269199D02*
X752024D01*
X730874Y266499D02*
X751974D01*
X596280Y325899D02*
X751964D01*
X729059Y327699D02*
X751802D01*
X596447Y268299D02*
X751797D01*
X728197Y267399D02*
X751782D01*
X596465Y326799D02*
X751779D01*
X592700Y320499D02*
X751607D01*
X748442Y127899D02*
X751558D01*
X749500Y461799D02*
X751476D01*
X748524Y137799D02*
X751476D01*
X748599Y466299D02*
X751401D01*
X748601Y471699D02*
X751399D01*
X749500Y456399D02*
X751328D01*
X748672Y132399D02*
X751328D01*
X748741Y122499D02*
X751259D01*
X593212Y314199D02*
X751095D01*
X749032Y126999D02*
X750968D01*
X749500Y460899D02*
X750920D01*
X749080Y136899D02*
X750920D01*
X749124Y467199D02*
X750876D01*
X749125Y470799D02*
X750875D01*
X749500Y457299D02*
X750834D01*
X749166Y133299D02*
X750834D01*
X749205Y123399D02*
X750795D01*
X731314Y253899D02*
X750710D01*
X749364Y126099D02*
X750636D01*
X593675Y319599D02*
X750632D01*
X749500Y459999D02*
X750612D01*
X749388Y135999D02*
X750612D01*
X749409Y468099D02*
X750591D01*
X749409Y469899D02*
X750591D01*
X749500Y458199D02*
X750572D01*
X749428Y134199D02*
X750572D01*
X749445Y124299D02*
X750555D01*
X749496Y125199D02*
X750504D01*
X749500Y459099D02*
X750501D01*
X749499Y135099D02*
X750501D01*
X749500Y468999D02*
X750500D01*
X593946Y315099D02*
X750361D01*
X594200Y318699D02*
X750107D01*
X734548Y261099D02*
X750038D01*
X594343Y315999D02*
X749964D01*
X732421Y254799D02*
X749875D01*
X594459Y317799D02*
X749848D01*
X594504Y316899D02*
X749803D01*
X734619Y260199D02*
X749795D01*
X734581Y259299D02*
X749795D01*
X734431Y258399D02*
X749795D01*
X734162Y257499D02*
X749795D01*
X733759Y256599D02*
X749795D01*
X733196Y255699D02*
X749795D01*
X604110Y473499D02*
X744890D01*
X624000Y282699D02*
X744244D01*
X607535Y130599D02*
X744063D01*
X605322Y120699D02*
X743678D01*
X738614Y307899D02*
X743082D01*
X606413Y128799D02*
X742587D01*
X608327Y138699D02*
X742437D01*
X625907Y283599D02*
X742337D01*
X606698Y465399D02*
X742302D01*
X606702Y472599D02*
X742298D01*
X608414Y131499D02*
X742173D01*
X606946Y121599D02*
X742054D01*
X738759Y301599D02*
X742001D01*
X738859Y295299D02*
X742000D01*
X738880Y306999D02*
X741935D01*
X738723Y289899D02*
X741935D01*
X738918Y288999D02*
X741708D01*
X738564Y296199D02*
X741630D01*
X738927Y300699D02*
X741629D01*
X607442Y127899D02*
X741558D01*
X626687Y284499D02*
X741557D01*
X608500Y137799D02*
X741476D01*
X604937Y454599D02*
X741465D01*
X607599Y466299D02*
X741401D01*
X607601Y471699D02*
X741399D01*
X738353Y302499D02*
X741394D01*
X738935Y294399D02*
X741393D01*
X738283Y290799D02*
X741338D01*
X738931Y306099D02*
X741337D01*
X608500Y132399D02*
X741328D01*
X607741Y122499D02*
X741259D01*
X738905Y288099D02*
X741213D01*
X737988Y297099D02*
X741172D01*
X738889Y299799D02*
X741171D01*
X737326Y285399D02*
X741134D01*
X737834Y303399D02*
X741053D01*
X738806Y293499D02*
X741053D01*
X737853Y291699D02*
X741027D01*
X738776Y305199D02*
X741027D01*
X738681Y287199D02*
X740976D01*
X608032Y126999D02*
X740968D01*
X738123Y297999D02*
X740962D01*
X738637Y298899D02*
X740962D01*
X738204Y286299D02*
X740951D01*
X738387Y304299D02*
X740937D01*
X738450Y292599D02*
X740937D01*
X608500Y136899D02*
X740920D01*
X608124Y467199D02*
X740876D01*
X608125Y470799D02*
X740875D01*
X608500Y133299D02*
X740834D01*
X608205Y123399D02*
X740795D01*
X606563Y462699D02*
X740673D01*
X608364Y126099D02*
X740636D01*
X608500Y135999D02*
X740612D01*
X608409Y468099D02*
X740591D01*
X608409Y469899D02*
X740591D01*
X606827Y455499D02*
X740586D01*
X608500Y134199D02*
X740572D01*
X608445Y124299D02*
X740555D01*
X608496Y125199D02*
X740504D01*
X608500Y135099D02*
X740501D01*
X608500Y468999D02*
X740500D01*
X607524Y461799D02*
X740500D01*
X608080Y460899D02*
X740500D01*
X608388Y459999D02*
X740500D01*
X608499Y459099D02*
X740500D01*
X608428Y458199D02*
X740500D01*
X608166Y457299D02*
X740500D01*
X607672Y456399D02*
X740500D01*
X612895Y172899D02*
X736105D01*
X614259Y165699D02*
X734741D01*
X614647Y171999D02*
X734353D01*
X615199Y166599D02*
X733801D01*
X615251Y182799D02*
X733749D01*
X615405Y171099D02*
X733595D01*
X615699Y175599D02*
X733301D01*
X615708Y167499D02*
X733292D01*
X615816Y170199D02*
X733184D01*
X615946Y181899D02*
X733054D01*
X615955Y168399D02*
X733045D01*
X615989Y169299D02*
X733011D01*
X616000Y180999D02*
X733000D01*
X616000Y180099D02*
X733000D01*
X616000Y179199D02*
X733000D01*
X616000Y178299D02*
X733000D01*
X616000Y177399D02*
X733000D01*
X616000Y176499D02*
X733000D01*
X728681Y309699D02*
X732791D01*
X627110Y285399D02*
X732548D01*
X728807Y303399D02*
X732040D01*
X728776Y291699D02*
X732021D01*
X728889Y297099D02*
X731886D01*
X728905Y308799D02*
X731795D01*
X728638Y297999D02*
X731751D01*
X627293Y286299D02*
X731670D01*
X728931Y290799D02*
X731591D01*
X728935Y302499D02*
X731521D01*
X728450Y304299D02*
X731487D01*
X728387Y292599D02*
X731424D01*
X728927Y296199D02*
X731310D01*
X728918Y307899D02*
X731260D01*
X728123Y298899D02*
X731237D01*
X727082Y287199D02*
X731193D01*
X728879Y289899D02*
X731151D01*
X728859Y301599D02*
X731115D01*
X727853Y305199D02*
X731098D01*
X727834Y293499D02*
X731067D01*
X728758Y295299D02*
X731015D01*
X728722Y306999D02*
X730994D01*
X727987Y299799D02*
X730985D01*
X728078Y288099D02*
X730969D01*
X728613Y288999D02*
X730956D01*
X728564Y300699D02*
X730947D01*
X728282Y306099D02*
X730943D01*
X728352Y294399D02*
X730939D01*
X622000Y267399D02*
X726244D01*
X622591Y342099D02*
X725653D01*
X622863Y327699D02*
X725381D01*
X623226Y252999D02*
X725018D01*
X624677Y266499D02*
X723567D01*
X624853Y341199D02*
X723391D01*
X624957Y328599D02*
X723287D01*
X625117Y253899D02*
X723127D01*
X627268Y287199D02*
X722792D01*
X605698Y311499D02*
X722546D01*
X625935Y265599D02*
X722309D01*
X626049Y340299D02*
X722195D01*
X626117Y329499D02*
X722127D01*
X627191Y293499D02*
X722040D01*
X688193Y305199D02*
X722021D01*
X626224Y254799D02*
X722020D01*
X683838Y299799D02*
X721887D01*
X627031Y288099D02*
X721796D01*
X627282Y298899D02*
X721750D01*
X606575Y310599D02*
X721669D01*
X688118Y306099D02*
X721592D01*
X626851Y294399D02*
X721522D01*
X627307Y292599D02*
X721486D01*
X626792Y264699D02*
X721452D01*
X687991Y304299D02*
X721424D01*
X626873Y339399D02*
X721371D01*
X626923Y330399D02*
X721321D01*
X684741Y300699D02*
X721310D01*
X626536Y288999D02*
X721261D01*
X626999Y255699D02*
X721245D01*
X627282Y297999D02*
X721236D01*
X615453Y309699D02*
X721193D01*
X687739Y306999D02*
X721152D01*
X626244Y295299D02*
X721116D01*
X627217Y291699D02*
X721098D01*
X687435Y303399D02*
X721067D01*
X685641Y301599D02*
X721015D01*
X626309Y289899D02*
X720995D01*
X627072Y297099D02*
X720985D01*
X616449Y308799D02*
X720969D01*
X686860Y307899D02*
X720956D01*
X626614Y296199D02*
X720947D01*
X626906Y290799D02*
X720943D01*
X686541Y302499D02*
X720939D01*
X627412Y263799D02*
X720832D01*
X627471Y338499D02*
X720773D01*
X627507Y331299D02*
X720737D01*
X627562Y256599D02*
X720682D01*
X627859Y262899D02*
X720385D01*
X627901Y337599D02*
X720343D01*
X627926Y332199D02*
X720318D01*
X627965Y257499D02*
X720279D01*
X628166Y261999D02*
X720078D01*
X628193Y336699D02*
X720051D01*
X628209Y333099D02*
X720035D01*
X628234Y258399D02*
X720010D01*
X628351Y261099D02*
X719893D01*
X628365Y335799D02*
X719879D01*
X628373Y333999D02*
X719871D01*
X628384Y259299D02*
X719860D01*
X628422Y260199D02*
X719822D01*
X628424Y334899D02*
X719820D01*
X625162Y307899D02*
X683540D01*
X626309Y306999D02*
X682556D01*
X626907Y306099D02*
X681656D01*
X627217Y305199D02*
X680756D01*
X627307Y304299D02*
X652072D01*
X627073Y299799D02*
X651962D01*
X627191Y303399D02*
X651346D01*
X626615Y300699D02*
X651297D01*
X626850Y302499D02*
X651042D01*
X626243Y301599D02*
X651027D01*
X564630Y282699D02*
X622614D01*
X616984Y307899D02*
X621452D01*
X566537Y283599D02*
X620707D01*
X617129Y301599D02*
X620371D01*
X617229Y295299D02*
X620370D01*
X617250Y306999D02*
X620305D01*
X617093Y289899D02*
X620305D01*
X617288Y288999D02*
X620078D01*
X596462Y267399D02*
X620047D01*
X616934Y296199D02*
X620000D01*
X617297Y300699D02*
X619999D01*
X567317Y284499D02*
X619927D01*
X616723Y302499D02*
X619764D01*
X617305Y294399D02*
X619763D01*
X616653Y290799D02*
X619708D01*
X617301Y306099D02*
X619707D01*
X617275Y288099D02*
X619583D01*
X616358Y297099D02*
X619542D01*
X617259Y299799D02*
X619542D01*
X615696Y285399D02*
X619504D01*
X547788Y342099D02*
X619456D01*
X616204Y303399D02*
X619423D01*
X617177Y293499D02*
X619423D01*
X616223Y291699D02*
X619397D01*
X617146Y305199D02*
X619397D01*
X617051Y287199D02*
X619346D01*
X616493Y297999D02*
X619332D01*
X617007Y298899D02*
X619332D01*
X616574Y286299D02*
X619321D01*
X616757Y304299D02*
X619307D01*
X616820Y292599D02*
X619307D01*
X596442Y327699D02*
X619185D01*
X548423Y252999D02*
X618821D01*
X596270Y266499D02*
X617370D01*
X550050Y341199D02*
X617194D01*
X596209Y328599D02*
X617090D01*
X591479Y253899D02*
X616930D01*
X595833Y265599D02*
X616112D01*
X596916Y340299D02*
X615998D01*
X595718Y329499D02*
X615930D01*
X593179Y254799D02*
X615823D01*
X595031Y264699D02*
X615255D01*
X597757Y339399D02*
X615174D01*
X594814Y330399D02*
X615125D01*
X593928Y255699D02*
X615048D01*
X592867Y263799D02*
X614635D01*
X598215Y338499D02*
X614576D01*
X552704Y331299D02*
X614540D01*
X594333Y256599D02*
X614485D01*
X553056Y262899D02*
X614188D01*
X598424Y337599D02*
X614146D01*
X553123Y332199D02*
X614121D01*
X594502Y257499D02*
X614082D01*
X553363Y261999D02*
X613881D01*
X598423Y336699D02*
X613854D01*
X553406Y333099D02*
X613838D01*
X594464Y258399D02*
X613813D01*
X592745Y261099D02*
X613696D01*
X598214Y335799D02*
X613682D01*
X596912Y333999D02*
X613675D01*
X594212Y259299D02*
X613663D01*
X593698Y260199D02*
X613625D01*
X597755Y334899D02*
X613624D01*
X607051Y309699D02*
X611161D01*
X556895Y172899D02*
X611105D01*
X567740Y285399D02*
X610918D01*
X607492Y303399D02*
X610410D01*
X607461Y291699D02*
X610391D01*
X607574Y297099D02*
X610256D01*
X607275Y308799D02*
X610165D01*
X607323Y297999D02*
X610121D01*
X567923Y286299D02*
X610040D01*
X607616Y290799D02*
X609961D01*
X607620Y302499D02*
X609891D01*
X607135Y304299D02*
X609857D01*
X607072Y292599D02*
X609794D01*
X558259Y165699D02*
X609741D01*
X607612Y296199D02*
X609680D01*
X607288Y307899D02*
X609630D01*
X606808Y298899D02*
X609607D01*
X605767Y287199D02*
X609563D01*
X607564Y289899D02*
X609521D01*
X607544Y301599D02*
X609485D01*
X606468Y305199D02*
X609468D01*
X606519Y293499D02*
X609438D01*
X607443Y295299D02*
X609385D01*
X607092Y306999D02*
X609364D01*
X606672Y299799D02*
X609355D01*
X558647Y171999D02*
X609353D01*
X606763Y288099D02*
X609339D01*
X607298Y288999D02*
X609326D01*
X607249Y300699D02*
X609317D01*
X606652Y306099D02*
X609313D01*
X607037Y294399D02*
X609309D01*
X559199Y166599D02*
X608801D01*
X559251Y182799D02*
X608749D01*
X559405Y171099D02*
X608595D01*
X559699Y175599D02*
X608301D01*
X559708Y167499D02*
X608292D01*
X559816Y170199D02*
X608184D01*
X559946Y181899D02*
X608054D01*
X559955Y168399D02*
X608045D01*
X559989Y169299D02*
X608011D01*
X560000Y176499D02*
X608000D01*
X594110Y473499D02*
X603890D01*
X594937Y454599D02*
X603063D01*
X595322Y120699D02*
X602678D01*
X596413Y128799D02*
X601587D01*
X567898Y287199D02*
X601477D01*
X596563Y462699D02*
X601437D01*
X596698Y465399D02*
X601302D01*
X596702Y472599D02*
X601298D01*
X596827Y455499D02*
X601173D01*
X596946Y121599D02*
X601054D01*
X546328Y311499D02*
X600916D01*
X567821Y293499D02*
X600725D01*
X567847Y305199D02*
X600576D01*
X567702Y299799D02*
X600572D01*
X597442Y127899D02*
X600558D01*
X567661Y288099D02*
X600481D01*
X597524Y461799D02*
X600476D01*
X594937Y130599D02*
X600465D01*
X567912Y298899D02*
X600436D01*
X597599Y466299D02*
X600401D01*
X597601Y471699D02*
X600399D01*
X597672Y456399D02*
X600328D01*
X597741Y122499D02*
X600259D01*
X567481Y294399D02*
X600207D01*
X567937Y292599D02*
X600172D01*
X567937Y304299D02*
X600109D01*
X547205Y310599D02*
X600039D01*
X567245Y300699D02*
X599995D01*
X598032Y126999D02*
X599968D01*
X567537Y306099D02*
X599962D01*
X567166Y288999D02*
X599946D01*
X567912Y297999D02*
X599921D01*
X598080Y460899D02*
X599920D01*
X598124Y467199D02*
X599876D01*
X598125Y470799D02*
X599875D01*
X598166Y457299D02*
X599834D01*
X566874Y295299D02*
X599801D01*
X598205Y123399D02*
X599795D01*
X567847Y291699D02*
X599783D01*
X567821Y303399D02*
X599752D01*
X566873Y301599D02*
X599700D01*
X566939Y289899D02*
X599680D01*
X596563Y138699D02*
X599673D01*
X567702Y297099D02*
X599670D01*
X598364Y126099D02*
X599636D01*
X567244Y296199D02*
X599632D01*
X567536Y290799D02*
X599628D01*
X567480Y302499D02*
X599624D01*
X598388Y459999D02*
X599612D01*
X598409Y468099D02*
X599591D01*
X598409Y469899D02*
X599591D01*
X596827Y131499D02*
X599586D01*
X598428Y458199D02*
X599572D01*
X556083Y309699D02*
X599563D01*
X598445Y124299D02*
X599555D01*
X566939Y306999D02*
X599522D01*
X598496Y125199D02*
X599504D01*
X598499Y459099D02*
X599501D01*
X597524Y137799D02*
X599500D01*
X598080Y136899D02*
X599500D01*
X598388Y135999D02*
X599500D01*
X598499Y135099D02*
X599500D01*
X598428Y134199D02*
X599500D01*
X598166Y133299D02*
X599500D01*
X597672Y132399D02*
X599500D01*
X598500Y468999D02*
X599500D01*
X557079Y308799D02*
X599339D01*
X565792Y307899D02*
X599326D01*
X584110Y473499D02*
X593890D01*
X584937Y454599D02*
X593063D01*
X584937Y130599D02*
X593063D01*
X575399Y147699D02*
X592690D01*
X586962Y263799D02*
X592093D01*
X590968Y274599D02*
X592024D01*
X591007Y333999D02*
X591985D01*
X591010Y340299D02*
X591982D01*
X591048Y280899D02*
X591944D01*
X587197Y323199D02*
X591858D01*
X586413Y128799D02*
X591587D01*
X576444Y146799D02*
X591556D01*
X586563Y462699D02*
X591437D01*
X586698Y465399D02*
X591302D01*
X576725Y113499D02*
X591302D01*
X586702Y472599D02*
X591298D01*
X586827Y455499D02*
X591173D01*
X586827Y131499D02*
X591173D01*
X577344Y145899D02*
X590656D01*
X587442Y127899D02*
X590558D01*
X587524Y461799D02*
X590476D01*
X587599Y466299D02*
X590401D01*
X587601Y471699D02*
X590399D01*
X577641Y114399D02*
X590359D01*
X587672Y456399D02*
X590328D01*
X587672Y132399D02*
X590328D01*
X588909Y330399D02*
X590147D01*
X588950Y270999D02*
X590105D01*
X588032Y126999D02*
X589968D01*
X589125Y264699D02*
X589930D01*
X588080Y460899D02*
X589920D01*
X589161Y324099D02*
X589894D01*
X588124Y467199D02*
X589876D01*
X588125Y470799D02*
X589875D01*
X588166Y457299D02*
X589834D01*
X588166Y133299D02*
X589834D01*
X578244Y144999D02*
X589756D01*
X588370Y126099D02*
X589636D01*
X588388Y459999D02*
X589612D01*
X588409Y468099D02*
X589591D01*
X588409Y469899D02*
X589591D01*
X588428Y458199D02*
X589572D01*
X588554Y134199D02*
X589572D01*
X585574Y253899D02*
X589544D01*
X588499Y459099D02*
X589501D01*
X588500Y468999D02*
X589500D01*
X578541Y115299D02*
X589459D01*
X585687Y313299D02*
X589431D01*
X579144Y144099D02*
X588856D01*
X579441Y116199D02*
X588559D01*
X586794Y320499D02*
X588324D01*
X586839Y261099D02*
X588279D01*
X580044Y143199D02*
X587956D01*
X587279Y254799D02*
X587839D01*
X587330Y314199D02*
X587788D01*
X580341Y117099D02*
X587659D01*
X580944Y142299D02*
X587056D01*
X581241Y117999D02*
X586759D01*
X581056Y263799D02*
X586188D01*
X585063Y274599D02*
X586118D01*
X585101Y333999D02*
X586080D01*
X585105Y340299D02*
X586076D01*
X581948Y141399D02*
X586052D01*
X585142Y280899D02*
X586039D01*
X581291Y323199D02*
X585953D01*
X582141Y118899D02*
X585592D01*
X583340Y140499D02*
X584660D01*
X583003Y330399D02*
X584241D01*
X583044Y270999D02*
X584200D01*
X583041Y119799D02*
X584200D01*
X583220Y264699D02*
X584024D01*
X583256Y324099D02*
X583988D01*
X574110Y473499D02*
X583890D01*
X579668Y253899D02*
X583639D01*
X579781Y313299D02*
X583526D01*
X574937Y454599D02*
X583063D01*
X574937Y130599D02*
X583063D01*
X580889Y320499D02*
X582418D01*
X580934Y261099D02*
X582373D01*
X581374Y254799D02*
X581933D01*
X581424Y314199D02*
X581883D01*
X576413Y128799D02*
X581587D01*
X576563Y462699D02*
X581437D01*
X576698Y465399D02*
X581302D01*
X576702Y472599D02*
X581298D01*
X576827Y455499D02*
X581173D01*
X576827Y131499D02*
X581173D01*
X577442Y127899D02*
X580558D01*
X577524Y461799D02*
X580476D01*
X577599Y466299D02*
X580401D01*
X577601Y471699D02*
X580399D01*
X577672Y456399D02*
X580328D01*
X577672Y132399D02*
X580328D01*
X575151Y263799D02*
X580282D01*
X579157Y274599D02*
X580213D01*
X579196Y333999D02*
X580174D01*
X579199Y340299D02*
X580171D01*
X579237Y280899D02*
X580133D01*
X575386Y323199D02*
X580047D01*
X578032Y126999D02*
X579968D01*
X578080Y460899D02*
X579920D01*
X578124Y467199D02*
X579876D01*
X578125Y470799D02*
X579875D01*
X578166Y457299D02*
X579834D01*
X578166Y133299D02*
X579834D01*
X578364Y126099D02*
X579636D01*
X578388Y459999D02*
X579612D01*
X578409Y468099D02*
X579591D01*
X578409Y469899D02*
X579591D01*
X578428Y458199D02*
X579572D01*
X578496Y125199D02*
X579504D01*
X578499Y459099D02*
X579501D01*
X578500Y468999D02*
X579500D01*
X578428Y134199D02*
X579446D01*
X577097Y330399D02*
X578335D01*
X577139Y270999D02*
X578294D01*
X577314Y264699D02*
X578119D01*
X577350Y324099D02*
X578083D01*
X575880Y253899D02*
X577733D01*
X573876Y313299D02*
X577620D01*
X574983Y320499D02*
X576513D01*
X575519Y314199D02*
X575977D01*
X412492Y119799D02*
X574508D01*
X552609Y263799D02*
X574377D01*
X412651Y139599D02*
X574349D01*
X415874Y274599D02*
X574307D01*
X553569Y333999D02*
X574269D01*
X551246Y340299D02*
X574265D01*
X412741Y140499D02*
X574259D01*
X415954Y280899D02*
X574227D01*
X412102Y323199D02*
X574142D01*
X564110Y473499D02*
X573890D01*
X413352Y118899D02*
X573648D01*
X416734Y275499D02*
X573447D01*
X553620Y334899D02*
X573426D01*
X552070Y339399D02*
X573424D01*
X416777Y279999D02*
X573404D01*
X413641Y141399D02*
X573359D01*
X567535Y454599D02*
X573063D01*
X564937Y130599D02*
X573063D01*
X417203Y276399D02*
X572978D01*
X553562Y335799D02*
X572967D01*
X552668Y338499D02*
X572966D01*
X417225Y279099D02*
X572956D01*
X417420Y277299D02*
X572761D01*
X553390Y336699D02*
X572758D01*
X553098Y337599D02*
X572757D01*
X417427Y278199D02*
X572754D01*
X565322Y120699D02*
X572678D01*
X552119Y330399D02*
X572430D01*
X413855Y270999D02*
X572389D01*
X551989Y264699D02*
X572213D01*
X414067Y324099D02*
X572177D01*
X410592Y313299D02*
X571715D01*
X566413Y128799D02*
X571587D01*
X551314Y329499D02*
X571526D01*
X414740Y270099D02*
X571504D01*
X568327Y462699D02*
X571437D01*
X566563Y138699D02*
X571437D01*
X551132Y265599D02*
X571411D01*
X414852Y324999D02*
X571392D01*
X566698Y465399D02*
X571302D01*
X566702Y472599D02*
X571298D01*
X568414Y455499D02*
X571173D01*
X566827Y131499D02*
X571173D01*
X566946Y121599D02*
X571054D01*
X550154Y328599D02*
X571035D01*
X415220Y269199D02*
X571024D01*
X549874Y266499D02*
X570974D01*
X415280Y325899D02*
X570964D01*
X548059Y327699D02*
X570802D01*
X415447Y268299D02*
X570797D01*
X547197Y267399D02*
X570782D01*
X415465Y326799D02*
X570779D01*
X411700Y320499D02*
X570607D01*
X567442Y127899D02*
X570558D01*
X568500Y461799D02*
X570476D01*
X567524Y137799D02*
X570476D01*
X567599Y466299D02*
X570401D01*
X567601Y471699D02*
X570399D01*
X568500Y456399D02*
X570328D01*
X567672Y132399D02*
X570328D01*
X567741Y122499D02*
X570259D01*
X412212Y314199D02*
X570095D01*
X568032Y126999D02*
X569968D01*
X568500Y460899D02*
X569920D01*
X568080Y136899D02*
X569920D01*
X568124Y467199D02*
X569876D01*
X568125Y470799D02*
X569875D01*
X568500Y457299D02*
X569834D01*
X568166Y133299D02*
X569834D01*
X568205Y123399D02*
X569795D01*
X550314Y253899D02*
X569710D01*
X568364Y126099D02*
X569636D01*
X412675Y319599D02*
X569632D01*
X568500Y459999D02*
X569612D01*
X568388Y135999D02*
X569612D01*
X568409Y468099D02*
X569591D01*
X568409Y469899D02*
X569591D01*
X568500Y458199D02*
X569572D01*
X568428Y134199D02*
X569572D01*
X568445Y124299D02*
X569555D01*
X568496Y125199D02*
X569504D01*
X568500Y459099D02*
X569501D01*
X568499Y135099D02*
X569501D01*
X568500Y468999D02*
X569500D01*
X412946Y315099D02*
X569361D01*
X413200Y318699D02*
X569107D01*
X553548Y261099D02*
X569038D01*
X413343Y315999D02*
X568964D01*
X551421Y254799D02*
X568875D01*
X413459Y317799D02*
X568848D01*
X413504Y316899D02*
X568803D01*
X553619Y260199D02*
X568795D01*
X553581Y259299D02*
X568795D01*
X553431Y258399D02*
X568795D01*
X553162Y257499D02*
X568795D01*
X552759Y256599D02*
X568795D01*
X552196Y255699D02*
X568795D01*
X423110Y473499D02*
X563890D01*
X443000Y282699D02*
X563244D01*
X426535Y130599D02*
X563063D01*
X424322Y120699D02*
X562678D01*
X557614Y307899D02*
X562082D01*
X425413Y128799D02*
X561587D01*
X427327Y138699D02*
X561437D01*
X444907Y283599D02*
X561337D01*
X425698Y465399D02*
X561302D01*
X425702Y472599D02*
X561298D01*
X427414Y131499D02*
X561173D01*
X425946Y121599D02*
X561054D01*
X557759Y301599D02*
X561001D01*
X557859Y295299D02*
X561000D01*
X557880Y306999D02*
X560935D01*
X557723Y289899D02*
X560935D01*
X557918Y288999D02*
X560708D01*
X557564Y296199D02*
X560630D01*
X557927Y300699D02*
X560629D01*
X426442Y127899D02*
X560558D01*
X445687Y284499D02*
X560557D01*
X427500Y137799D02*
X560476D01*
X423937Y454599D02*
X560465D01*
X426599Y466299D02*
X560401D01*
X426601Y471699D02*
X560399D01*
X557353Y302499D02*
X560394D01*
X557935Y294399D02*
X560393D01*
X557283Y290799D02*
X560338D01*
X557931Y306099D02*
X560337D01*
X427500Y132399D02*
X560328D01*
X426741Y122499D02*
X560259D01*
X557905Y288099D02*
X560213D01*
X556988Y297099D02*
X560172D01*
X557889Y299799D02*
X560171D01*
X556326Y285399D02*
X560134D01*
X556834Y303399D02*
X560053D01*
X557806Y293499D02*
X560053D01*
X556853Y291699D02*
X560027D01*
X557776Y305199D02*
X560027D01*
X557681Y287199D02*
X559976D01*
X427032Y126999D02*
X559968D01*
X557123Y297999D02*
X559962D01*
X557637Y298899D02*
X559962D01*
X557204Y286299D02*
X559951D01*
X557387Y304299D02*
X559937D01*
X557450Y292599D02*
X559937D01*
X427500Y136899D02*
X559920D01*
X427124Y467199D02*
X559876D01*
X427125Y470799D02*
X559875D01*
X427500Y133299D02*
X559834D01*
X427205Y123399D02*
X559795D01*
X425563Y462699D02*
X559673D01*
X427364Y126099D02*
X559636D01*
X427500Y135999D02*
X559612D01*
X427409Y468099D02*
X559591D01*
X427409Y469899D02*
X559591D01*
X425827Y455499D02*
X559586D01*
X427500Y134199D02*
X559572D01*
X427445Y124299D02*
X559555D01*
X427496Y125199D02*
X559504D01*
X427500Y135099D02*
X559501D01*
X427500Y468999D02*
X559500D01*
X426524Y461799D02*
X559500D01*
X427080Y460899D02*
X559500D01*
X427388Y459999D02*
X559500D01*
X427499Y459099D02*
X559500D01*
X427428Y458199D02*
X559500D01*
X427166Y457299D02*
X559500D01*
X426672Y456399D02*
X559500D01*
X431895Y172899D02*
X555105D01*
X433259Y165699D02*
X553741D01*
X433647Y171999D02*
X553353D01*
X434199Y166599D02*
X552801D01*
X434251Y182799D02*
X552749D01*
X434405Y171099D02*
X552595D01*
X434699Y175599D02*
X552301D01*
X434708Y167499D02*
X552292D01*
X434816Y170199D02*
X552184D01*
X434946Y181899D02*
X552054D01*
X434955Y168399D02*
X552045D01*
X434989Y169299D02*
X552011D01*
X435000Y180999D02*
X552000D01*
X435000Y180099D02*
X552000D01*
X435000Y179199D02*
X552000D01*
X435000Y178299D02*
X552000D01*
X435000Y177399D02*
X552000D01*
X435000Y176499D02*
X552000D01*
X547681Y309699D02*
X551791D01*
X446110Y285399D02*
X551548D01*
X547807Y303399D02*
X551040D01*
X547776Y291699D02*
X551021D01*
X547889Y297099D02*
X550886D01*
X547905Y308799D02*
X550795D01*
X547638Y297999D02*
X550751D01*
X446293Y286299D02*
X550670D01*
X547931Y290799D02*
X550591D01*
X547935Y302499D02*
X550521D01*
X547450Y304299D02*
X550487D01*
X547387Y292599D02*
X550424D01*
X547927Y296199D02*
X550310D01*
X547918Y307899D02*
X550260D01*
X547123Y298899D02*
X550237D01*
X546082Y287199D02*
X550193D01*
X547879Y289899D02*
X550151D01*
X547859Y301599D02*
X550115D01*
X546853Y305199D02*
X550098D01*
X546834Y293499D02*
X550067D01*
X547758Y295299D02*
X550015D01*
X547722Y306999D02*
X549994D01*
X546987Y299799D02*
X549985D01*
X547078Y288099D02*
X549969D01*
X547613Y288999D02*
X549956D01*
X547564Y300699D02*
X549947D01*
X547282Y306099D02*
X549943D01*
X547352Y294399D02*
X549939D01*
X441000Y267399D02*
X545244D01*
X441591Y342099D02*
X544653D01*
X441863Y327699D02*
X544381D01*
X442226Y252999D02*
X544018D01*
X443677Y266499D02*
X542567D01*
X443853Y341199D02*
X542391D01*
X443957Y328599D02*
X542287D01*
X444117Y253899D02*
X542127D01*
X446268Y287199D02*
X541792D01*
X424698Y311499D02*
X541546D01*
X444935Y265599D02*
X541309D01*
X445049Y340299D02*
X541195D01*
X445117Y329499D02*
X541127D01*
X446191Y293499D02*
X541040D01*
X508141Y305199D02*
X541021D01*
X445224Y254799D02*
X541020D01*
X502725Y299799D02*
X540887D01*
X446031Y288099D02*
X540796D01*
X446282Y298899D02*
X540750D01*
X425575Y310599D02*
X540669D01*
X508853Y306099D02*
X540592D01*
X445851Y294399D02*
X540522D01*
X446307Y292599D02*
X540486D01*
X445792Y264699D02*
X540452D01*
X507241Y304299D02*
X540424D01*
X445873Y339399D02*
X540371D01*
X445923Y330399D02*
X540321D01*
X503641Y300699D02*
X540310D01*
X445536Y288999D02*
X540261D01*
X445999Y255699D02*
X540245D01*
X446282Y297999D02*
X540236D01*
X508241Y309699D02*
X540193D01*
X509158Y306999D02*
X540152D01*
X445244Y295299D02*
X540116D01*
X446217Y291699D02*
X540098D01*
X506341Y303399D02*
X540067D01*
X504541Y301599D02*
X540015D01*
X445309Y289899D02*
X539995D01*
X446072Y297099D02*
X539985D01*
X508904Y308799D02*
X539969D01*
X509173Y307899D02*
X539956D01*
X445614Y296199D02*
X539947D01*
X445906Y290799D02*
X539943D01*
X505441Y302499D02*
X539939D01*
X446412Y263799D02*
X539832D01*
X446471Y338499D02*
X539773D01*
X446507Y331299D02*
X539737D01*
X446562Y256599D02*
X539682D01*
X446859Y262899D02*
X539385D01*
X446901Y337599D02*
X539343D01*
X446926Y332199D02*
X539318D01*
X446965Y257499D02*
X539279D01*
X447166Y261999D02*
X539078D01*
X447193Y336699D02*
X539051D01*
X447209Y333099D02*
X539035D01*
X447234Y258399D02*
X539010D01*
X447351Y261099D02*
X538893D01*
X447365Y335799D02*
X538879D01*
X447373Y333999D02*
X538871D01*
X447384Y259299D02*
X538860D01*
X447422Y260199D02*
X538822D01*
X447424Y334899D02*
X538820D01*
X434453Y309699D02*
X504159D01*
X435449Y308799D02*
X503256D01*
X444162Y307899D02*
X502356D01*
X445309Y306999D02*
X501456D01*
X445907Y306099D02*
X500556D01*
X446217Y305199D02*
X499648D01*
X446073Y299799D02*
X463875D01*
X446307Y304299D02*
X463759D01*
X445615Y300699D02*
X463147D01*
X446191Y303399D02*
X463096D01*
X445243Y301599D02*
X462842D01*
X445850Y302499D02*
X462827D01*
X383630Y282699D02*
X441614D01*
X435984Y307899D02*
X440452D01*
X385537Y283599D02*
X439707D01*
X436129Y301599D02*
X439371D01*
X436229Y295299D02*
X439370D01*
X436250Y306999D02*
X439305D01*
X436093Y289899D02*
X439305D01*
X436288Y288999D02*
X439078D01*
X415462Y267399D02*
X439047D01*
X435934Y296199D02*
X439000D01*
X436297Y300699D02*
X438999D01*
X386317Y284499D02*
X438927D01*
X435723Y302499D02*
X438764D01*
X436305Y294399D02*
X438763D01*
X435653Y290799D02*
X438708D01*
X436301Y306099D02*
X438707D01*
X436275Y288099D02*
X438583D01*
X435358Y297099D02*
X438542D01*
X436259Y299799D02*
X438542D01*
X434696Y285399D02*
X438504D01*
X366788Y342099D02*
X438456D01*
X435204Y303399D02*
X438423D01*
X436177Y293499D02*
X438423D01*
X435223Y291699D02*
X438397D01*
X436146Y305199D02*
X438397D01*
X436051Y287199D02*
X438346D01*
X435493Y297999D02*
X438332D01*
X436007Y298899D02*
X438332D01*
X435574Y286299D02*
X438321D01*
X435757Y304299D02*
X438307D01*
X435820Y292599D02*
X438307D01*
X415442Y327699D02*
X438185D01*
X367423Y252999D02*
X437821D01*
X415270Y266499D02*
X436370D01*
X369050Y341199D02*
X436194D01*
X415209Y328599D02*
X436090D01*
X410479Y253899D02*
X435930D01*
X414833Y265599D02*
X435112D01*
X415916Y340299D02*
X434998D01*
X414718Y329499D02*
X434930D01*
X412179Y254799D02*
X434823D01*
X414031Y264699D02*
X434255D01*
X416757Y339399D02*
X434174D01*
X413814Y330399D02*
X434125D01*
X412928Y255699D02*
X434048D01*
X411867Y263799D02*
X433635D01*
X417215Y338499D02*
X433576D01*
X371704Y331299D02*
X433540D01*
X413333Y256599D02*
X433485D01*
X372056Y262899D02*
X433188D01*
X417424Y337599D02*
X433146D01*
X372123Y332199D02*
X433121D01*
X413502Y257499D02*
X433082D01*
X372363Y261999D02*
X432881D01*
X417423Y336699D02*
X432854D01*
X372406Y333099D02*
X432838D01*
X413464Y258399D02*
X432813D01*
X411745Y261099D02*
X432696D01*
X417214Y335799D02*
X432682D01*
X415912Y333999D02*
X432675D01*
X413212Y259299D02*
X432663D01*
X412698Y260199D02*
X432625D01*
X416755Y334899D02*
X432624D01*
X426051Y309699D02*
X430161D01*
X375895Y172899D02*
X430105D01*
X386740Y285399D02*
X429918D01*
X426492Y303399D02*
X429410D01*
X426461Y291699D02*
X429391D01*
X426574Y297099D02*
X429256D01*
X426275Y308799D02*
X429165D01*
X426323Y297999D02*
X429121D01*
X386923Y286299D02*
X429040D01*
X426616Y290799D02*
X428961D01*
X426620Y302499D02*
X428891D01*
X426135Y304299D02*
X428857D01*
X426072Y292599D02*
X428794D01*
X377259Y165699D02*
X428741D01*
X426612Y296199D02*
X428680D01*
X426288Y307899D02*
X428630D01*
X425808Y298899D02*
X428607D01*
X424767Y287199D02*
X428563D01*
X426564Y289899D02*
X428521D01*
X426544Y301599D02*
X428485D01*
X425468Y305199D02*
X428468D01*
X425519Y293499D02*
X428438D01*
X426443Y295299D02*
X428385D01*
X426092Y306999D02*
X428364D01*
X425672Y299799D02*
X428355D01*
X377647Y171999D02*
X428353D01*
X425763Y288099D02*
X428339D01*
X426298Y288999D02*
X428326D01*
X426249Y300699D02*
X428317D01*
X425652Y306099D02*
X428313D01*
X426037Y294399D02*
X428309D01*
X378199Y166599D02*
X427801D01*
X378251Y182799D02*
X427749D01*
X378405Y171099D02*
X427595D01*
X378699Y175599D02*
X427301D01*
X378708Y167499D02*
X427292D01*
X378816Y170199D02*
X427184D01*
X378946Y181899D02*
X427054D01*
X378955Y168399D02*
X427045D01*
X378989Y169299D02*
X427011D01*
X379000Y176499D02*
X427000D01*
X413110Y473499D02*
X422890D01*
X413937Y454599D02*
X422063D01*
X414322Y120699D02*
X421678D01*
X415413Y128799D02*
X420587D01*
X386898Y287199D02*
X420477D01*
X415563Y462699D02*
X420437D01*
X415698Y465399D02*
X420302D01*
X415702Y472599D02*
X420298D01*
X415827Y455499D02*
X420173D01*
X415946Y121599D02*
X420054D01*
X365328Y311499D02*
X419916D01*
X386821Y293499D02*
X419725D01*
X386847Y305199D02*
X419576D01*
X386702Y299799D02*
X419572D01*
X416442Y127899D02*
X419558D01*
X386661Y288099D02*
X419481D01*
X416524Y461799D02*
X419476D01*
X413937Y130599D02*
X419465D01*
X386912Y298899D02*
X419436D01*
X416599Y466299D02*
X419401D01*
X416601Y471699D02*
X419399D01*
X416672Y456399D02*
X419328D01*
X416741Y122499D02*
X419259D01*
X386481Y294399D02*
X419207D01*
X386937Y292599D02*
X419172D01*
X386937Y304299D02*
X419109D01*
X366205Y310599D02*
X419039D01*
X386245Y300699D02*
X418995D01*
X417032Y126999D02*
X418968D01*
X386537Y306099D02*
X418962D01*
X386166Y288999D02*
X418946D01*
X386912Y297999D02*
X418921D01*
X417080Y460899D02*
X418920D01*
X417124Y467199D02*
X418876D01*
X417125Y470799D02*
X418875D01*
X417166Y457299D02*
X418834D01*
X385874Y295299D02*
X418801D01*
X417205Y123399D02*
X418795D01*
X386847Y291699D02*
X418783D01*
X386821Y303399D02*
X418752D01*
X385873Y301599D02*
X418700D01*
X385939Y289899D02*
X418680D01*
X415563Y138699D02*
X418673D01*
X386702Y297099D02*
X418670D01*
X417364Y126099D02*
X418636D01*
X386244Y296199D02*
X418632D01*
X386536Y290799D02*
X418628D01*
X386480Y302499D02*
X418624D01*
X417388Y459999D02*
X418612D01*
X417409Y468099D02*
X418591D01*
X417409Y469899D02*
X418591D01*
X415827Y131499D02*
X418586D01*
X417428Y458199D02*
X418572D01*
X375083Y309699D02*
X418563D01*
X417445Y124299D02*
X418555D01*
X385939Y306999D02*
X418522D01*
X417496Y125199D02*
X418504D01*
X417499Y459099D02*
X418501D01*
X416524Y137799D02*
X418500D01*
X417080Y136899D02*
X418500D01*
X417388Y135999D02*
X418500D01*
X417499Y135099D02*
X418500D01*
X417428Y134199D02*
X418500D01*
X417166Y133299D02*
X418500D01*
X416672Y132399D02*
X418500D01*
X417500Y468999D02*
X418500D01*
X376079Y308799D02*
X418339D01*
X384792Y307899D02*
X418326D01*
X403110Y473499D02*
X412890D01*
X403937Y454599D02*
X412063D01*
X403937Y130599D02*
X412063D01*
X394544Y147699D02*
X411601D01*
X405962Y263799D02*
X411093D01*
X409968Y274599D02*
X411024D01*
X410007Y333999D02*
X410985D01*
X410010Y340299D02*
X410982D01*
X410048Y280899D02*
X410944D01*
X406197Y323199D02*
X410858D01*
X405413Y128799D02*
X410587D01*
X395444Y146799D02*
X410556D01*
X405563Y462699D02*
X410437D01*
X405698Y465399D02*
X410302D01*
X405702Y472599D02*
X410298D01*
X395594Y113499D02*
X410275D01*
X405827Y455499D02*
X410173D01*
X405827Y131499D02*
X410173D01*
X396344Y145899D02*
X409656D01*
X406442Y127899D02*
X409558D01*
X406524Y461799D02*
X409476D01*
X406599Y466299D02*
X409401D01*
X406601Y471699D02*
X409399D01*
X396641Y114399D02*
X409359D01*
X406672Y456399D02*
X409328D01*
X406672Y132399D02*
X409328D01*
X407909Y330399D02*
X409147D01*
X407950Y270999D02*
X409105D01*
X407032Y126999D02*
X408968D01*
X408125Y264699D02*
X408930D01*
X407080Y460899D02*
X408920D01*
X408161Y324099D02*
X408894D01*
X407124Y467199D02*
X408876D01*
X407125Y470799D02*
X408875D01*
X407166Y457299D02*
X408834D01*
X407166Y133299D02*
X408834D01*
X397244Y144999D02*
X408756D01*
X407370Y126099D02*
X408636D01*
X407388Y459999D02*
X408612D01*
X407409Y468099D02*
X408591D01*
X407409Y469899D02*
X408591D01*
X407428Y458199D02*
X408572D01*
X407554Y134199D02*
X408572D01*
X404574Y253899D02*
X408544D01*
X407499Y459099D02*
X408501D01*
X407500Y468999D02*
X408500D01*
X397541Y115299D02*
X408459D01*
X404687Y313299D02*
X408431D01*
X398144Y144099D02*
X407856D01*
X398441Y116199D02*
X407559D01*
X405794Y320499D02*
X407324D01*
X405839Y261099D02*
X407279D01*
X399044Y143199D02*
X406956D01*
X406279Y254799D02*
X406839D01*
X406330Y314199D02*
X406788D01*
X399341Y117099D02*
X406659D01*
X399944Y142299D02*
X406056D01*
X400241Y117999D02*
X405759D01*
X400056Y263799D02*
X405188D01*
X404063Y274599D02*
X405118D01*
X404101Y333999D02*
X405080D01*
X404105Y340299D02*
X405076D01*
X400948Y141399D02*
X405052D01*
X404142Y280899D02*
X405039D01*
X400291Y323199D02*
X404953D01*
X401408Y118899D02*
X404592D01*
X402340Y140499D02*
X403660D01*
X402003Y330399D02*
X403241D01*
X402044Y270999D02*
X403200D01*
X402820Y119799D02*
X403180D01*
X402220Y264699D02*
X403024D01*
X402256Y324099D02*
X402988D01*
X393110Y473499D02*
X402890D01*
X398668Y253899D02*
X402639D01*
X398781Y313299D02*
X402526D01*
X393937Y454599D02*
X402063D01*
X393937Y130599D02*
X402063D01*
X399889Y320499D02*
X401418D01*
X399934Y261099D02*
X401373D01*
X400374Y254799D02*
X400933D01*
X400424Y314199D02*
X400883D01*
X395413Y128799D02*
X400587D01*
X395563Y462699D02*
X400437D01*
X395698Y465399D02*
X400302D01*
X395702Y472599D02*
X400298D01*
X395827Y455499D02*
X400173D01*
X395827Y131499D02*
X400173D01*
X396442Y127899D02*
X399558D01*
X396524Y461799D02*
X399476D01*
X396599Y466299D02*
X399401D01*
X396601Y471699D02*
X399399D01*
X396672Y456399D02*
X399328D01*
X396672Y132399D02*
X399328D01*
X394151Y263799D02*
X399282D01*
X398157Y274599D02*
X399213D01*
X398196Y333999D02*
X399174D01*
X398199Y340299D02*
X399171D01*
X398237Y280899D02*
X399133D01*
X394386Y323199D02*
X399047D01*
X397032Y126999D02*
X398968D01*
X397080Y460899D02*
X398920D01*
X397124Y467199D02*
X398876D01*
X397125Y470799D02*
X398875D01*
X397166Y457299D02*
X398834D01*
X397166Y133299D02*
X398834D01*
X397364Y126099D02*
X398630D01*
X397388Y459999D02*
X398612D01*
X397409Y468099D02*
X398591D01*
X397409Y469899D02*
X398591D01*
X397428Y458199D02*
X398572D01*
X397499Y459099D02*
X398501D01*
X397500Y468999D02*
X398500D01*
X397428Y134199D02*
X398446D01*
X396097Y330399D02*
X397335D01*
X396139Y270999D02*
X397294D01*
X396314Y264699D02*
X397119D01*
X396350Y324099D02*
X397083D01*
X394880Y253899D02*
X396733D01*
X392876Y313299D02*
X396620D01*
X393983Y320499D02*
X395513D01*
X394519Y314199D02*
X394977D01*
X231492Y119799D02*
X393508D01*
X371609Y263799D02*
X393377D01*
X231651Y139599D02*
X393349D01*
X234874Y274599D02*
X393307D01*
X372569Y333999D02*
X393269D01*
X370246Y340299D02*
X393265D01*
X231741Y140499D02*
X393259D01*
X234954Y280899D02*
X393227D01*
X231102Y323199D02*
X393142D01*
X383110Y473499D02*
X392890D01*
X235734Y275499D02*
X392447D01*
X372620Y334899D02*
X392426D01*
X371070Y339399D02*
X392424D01*
X235777Y279999D02*
X392404D01*
X232641Y141399D02*
X392359D01*
X386535Y454599D02*
X392063D01*
X383937Y130599D02*
X392063D01*
X236203Y276399D02*
X391978D01*
X372562Y335799D02*
X391967D01*
X371668Y338499D02*
X391966D01*
X236225Y279099D02*
X391956D01*
X236420Y277299D02*
X391761D01*
X372390Y336699D02*
X391758D01*
X372098Y337599D02*
X391757D01*
X236427Y278199D02*
X391754D01*
X384322Y120699D02*
X391678D01*
X233541Y142299D02*
X391459D01*
X371119Y330399D02*
X391430D01*
X232855Y270999D02*
X391389D01*
X370989Y264699D02*
X391213D01*
X233067Y324099D02*
X391177D01*
X229592Y313299D02*
X390715D01*
X385413Y128799D02*
X390587D01*
X234448Y143199D02*
X390552D01*
X370314Y329499D02*
X390526D01*
X233740Y270099D02*
X390504D01*
X387327Y462699D02*
X390437D01*
X385563Y138699D02*
X390437D01*
X370132Y265599D02*
X390411D01*
X233852Y324999D02*
X390392D01*
X385698Y465399D02*
X390302D01*
X385702Y472599D02*
X390298D01*
X387414Y455499D02*
X390173D01*
X385827Y131499D02*
X390173D01*
X385946Y121599D02*
X390054D01*
X369154Y328599D02*
X390035D01*
X234220Y269199D02*
X390024D01*
X368874Y266499D02*
X389974D01*
X234280Y325899D02*
X389964D01*
X367059Y327699D02*
X389802D01*
X234447Y268299D02*
X389797D01*
X366197Y267399D02*
X389782D01*
X234465Y326799D02*
X389779D01*
X230700Y320499D02*
X389607D01*
X386442Y127899D02*
X389558D01*
X387500Y461799D02*
X389476D01*
X386524Y137799D02*
X389476D01*
X386599Y466299D02*
X389401D01*
X386601Y471699D02*
X389399D01*
X387500Y456399D02*
X389328D01*
X386672Y132399D02*
X389328D01*
X386741Y122499D02*
X389259D01*
X231212Y314199D02*
X389095D01*
X387032Y126999D02*
X388968D01*
X387500Y460899D02*
X388920D01*
X387080Y136899D02*
X388920D01*
X387124Y467199D02*
X388876D01*
X387125Y470799D02*
X388875D01*
X387500Y457299D02*
X388834D01*
X387166Y133299D02*
X388834D01*
X387205Y123399D02*
X388795D01*
X369314Y253899D02*
X388710D01*
X387364Y126099D02*
X388636D01*
X231675Y319599D02*
X388632D01*
X387500Y459999D02*
X388612D01*
X387388Y135999D02*
X388612D01*
X387409Y468099D02*
X388591D01*
X387409Y469899D02*
X388591D01*
X387500Y458199D02*
X388572D01*
X387428Y134199D02*
X388572D01*
X387445Y124299D02*
X388555D01*
X387496Y125199D02*
X388504D01*
X387500Y459099D02*
X388501D01*
X387499Y135099D02*
X388501D01*
X387500Y468999D02*
X388500D01*
X231946Y315099D02*
X388361D01*
X232200Y318699D02*
X388107D01*
X372548Y261099D02*
X388038D01*
X232343Y315999D02*
X387964D01*
X370421Y254799D02*
X387875D01*
X232459Y317799D02*
X387848D01*
X232504Y316899D02*
X387803D01*
X372619Y260199D02*
X387795D01*
X372581Y259299D02*
X387795D01*
X372431Y258399D02*
X387795D01*
X372162Y257499D02*
X387795D01*
X371759Y256599D02*
X387795D01*
X371196Y255699D02*
X387795D01*
X242110Y473499D02*
X382890D01*
X262000Y282699D02*
X382244D01*
X245535Y130599D02*
X382063D01*
X243322Y120699D02*
X381678D01*
X376614Y307899D02*
X381082D01*
X244413Y128799D02*
X380587D01*
X246327Y138699D02*
X380437D01*
X263907Y283599D02*
X380337D01*
X244698Y465399D02*
X380302D01*
X244702Y472599D02*
X380298D01*
X246414Y131499D02*
X380173D01*
X244946Y121599D02*
X380054D01*
X376759Y301599D02*
X380001D01*
X376859Y295299D02*
X380000D01*
X376880Y306999D02*
X379935D01*
X376723Y289899D02*
X379935D01*
X376918Y288999D02*
X379708D01*
X376564Y296199D02*
X379630D01*
X376927Y300699D02*
X379629D01*
X245442Y127899D02*
X379558D01*
X264687Y284499D02*
X379557D01*
X246500Y137799D02*
X379476D01*
X242937Y454599D02*
X379465D01*
X245599Y466299D02*
X379401D01*
X245601Y471699D02*
X379399D01*
X376353Y302499D02*
X379394D01*
X376935Y294399D02*
X379393D01*
X376283Y290799D02*
X379338D01*
X376931Y306099D02*
X379337D01*
X246500Y132399D02*
X379328D01*
X245741Y122499D02*
X379259D01*
X376905Y288099D02*
X379213D01*
X375988Y297099D02*
X379172D01*
X376889Y299799D02*
X379171D01*
X375326Y285399D02*
X379134D01*
X375834Y303399D02*
X379053D01*
X376806Y293499D02*
X379053D01*
X375853Y291699D02*
X379027D01*
X376776Y305199D02*
X379027D01*
X376681Y287199D02*
X378976D01*
X246032Y126999D02*
X378968D01*
X376123Y297999D02*
X378962D01*
X376637Y298899D02*
X378962D01*
X376204Y286299D02*
X378951D01*
X376387Y304299D02*
X378937D01*
X376450Y292599D02*
X378937D01*
X246500Y136899D02*
X378920D01*
X246124Y467199D02*
X378876D01*
X246125Y470799D02*
X378875D01*
X246500Y133299D02*
X378834D01*
X246205Y123399D02*
X378795D01*
X244563Y462699D02*
X378673D01*
X246364Y126099D02*
X378636D01*
X246500Y135999D02*
X378612D01*
X246409Y468099D02*
X378591D01*
X246409Y469899D02*
X378591D01*
X244827Y455499D02*
X378586D01*
X246500Y134199D02*
X378572D01*
X246445Y124299D02*
X378555D01*
X246496Y125199D02*
X378504D01*
X246500Y135099D02*
X378501D01*
X246500Y468999D02*
X378500D01*
X245524Y461799D02*
X378500D01*
X246080Y460899D02*
X378500D01*
X246388Y459999D02*
X378500D01*
X246499Y459099D02*
X378500D01*
X246428Y458199D02*
X378500D01*
X246166Y457299D02*
X378500D01*
X245672Y456399D02*
X378500D01*
X250895Y172899D02*
X374105D01*
X252259Y165699D02*
X372741D01*
X252647Y171999D02*
X372353D01*
X253199Y166599D02*
X371801D01*
X253251Y182799D02*
X371749D01*
X253405Y171099D02*
X371595D01*
X253699Y175599D02*
X371301D01*
X253708Y167499D02*
X371292D01*
X253816Y170199D02*
X371184D01*
X253946Y181899D02*
X371054D01*
X253955Y168399D02*
X371045D01*
X253989Y169299D02*
X371011D01*
X254000Y180999D02*
X371000D01*
X254000Y180099D02*
X371000D01*
X254000Y179199D02*
X371000D01*
X254000Y178299D02*
X371000D01*
X254000Y177399D02*
X371000D01*
X254000Y176499D02*
X371000D01*
X366681Y309699D02*
X370791D01*
X265110Y285399D02*
X370548D01*
X366807Y303399D02*
X370040D01*
X366776Y291699D02*
X370021D01*
X366889Y297099D02*
X369886D01*
X366905Y308799D02*
X369795D01*
X366638Y297999D02*
X369751D01*
X265293Y286299D02*
X369670D01*
X366931Y290799D02*
X369591D01*
X366935Y302499D02*
X369521D01*
X366450Y304299D02*
X369487D01*
X366387Y292599D02*
X369424D01*
X366927Y296199D02*
X369310D01*
X366918Y307899D02*
X369260D01*
X366123Y298899D02*
X369237D01*
X365082Y287199D02*
X369193D01*
X366879Y289899D02*
X369151D01*
X366859Y301599D02*
X369115D01*
X365853Y305199D02*
X369098D01*
X365834Y293499D02*
X369067D01*
X366758Y295299D02*
X369015D01*
X366722Y306999D02*
X368994D01*
X365987Y299799D02*
X368985D01*
X366078Y288099D02*
X368969D01*
X366613Y288999D02*
X368956D01*
X366564Y300699D02*
X368947D01*
X366282Y306099D02*
X368943D01*
X366352Y294399D02*
X368939D01*
X260000Y267399D02*
X364244D01*
X260591Y342099D02*
X363653D01*
X260863Y327699D02*
X363381D01*
X261226Y252999D02*
X363018D01*
X262677Y266499D02*
X361567D01*
X262853Y341199D02*
X361391D01*
X262957Y328599D02*
X361287D01*
X263117Y253899D02*
X361127D01*
X265268Y287199D02*
X360792D01*
X243698Y311499D02*
X360546D01*
X263935Y265599D02*
X360309D01*
X264049Y340299D02*
X360195D01*
X264117Y329499D02*
X360127D01*
X316241Y293499D02*
X360040D01*
X327753Y305199D02*
X360021D01*
X264224Y254799D02*
X360020D01*
X322541Y299799D02*
X359887D01*
X265031Y288099D02*
X359796D01*
X321641Y298899D02*
X359750D01*
X244575Y310599D02*
X359669D01*
X328058Y306099D02*
X359592D01*
X317141Y294399D02*
X359522D01*
X315341Y292599D02*
X359486D01*
X264792Y264699D02*
X359452D01*
X327041Y304299D02*
X359424D01*
X264873Y339399D02*
X359371D01*
X264923Y330399D02*
X359321D01*
X323441Y300699D02*
X359310D01*
X264536Y288999D02*
X359261D01*
X264999Y255699D02*
X359245D01*
X320741Y297999D02*
X359236D01*
X253453Y309699D02*
X359193D01*
X328073Y306999D02*
X359152D01*
X318041Y295299D02*
X359116D01*
X314205Y291699D02*
X359098D01*
X326141Y303399D02*
X359067D01*
X324341Y301599D02*
X359015D01*
X264309Y289899D02*
X358995D01*
X319841Y297099D02*
X358985D01*
X327141Y308799D02*
X358969D01*
X327804Y307899D02*
X358956D01*
X318941Y296199D02*
X358947D01*
X264906Y290799D02*
X358943D01*
X325241Y302499D02*
X358939D01*
X265412Y263799D02*
X358832D01*
X265471Y338499D02*
X358773D01*
X265507Y331299D02*
X358737D01*
X265562Y256599D02*
X358682D01*
X265859Y262899D02*
X358385D01*
X265901Y337599D02*
X358343D01*
X265926Y332199D02*
X358318D01*
X265965Y257499D02*
X358279D01*
X266166Y261999D02*
X358078D01*
X266193Y336699D02*
X358051D01*
X266209Y333099D02*
X358035D01*
X266234Y258399D02*
X358010D01*
X266351Y261099D02*
X357893D01*
X266365Y335799D02*
X357879D01*
X266373Y333999D02*
X357871D01*
X266384Y259299D02*
X357860D01*
X266422Y260199D02*
X357822D01*
X266424Y334899D02*
X357820D01*
X254449Y308799D02*
X323059D01*
X263162Y307899D02*
X322156D01*
X264309Y306999D02*
X321256D01*
X264907Y306099D02*
X320356D01*
X265217Y305199D02*
X319456D01*
X265307Y304299D02*
X318556D01*
X265191Y303399D02*
X317656D01*
X264850Y302499D02*
X316756D01*
X264243Y301599D02*
X315856D01*
X264615Y300699D02*
X314956D01*
X265073Y299799D02*
X314056D01*
X265282Y298899D02*
X313156D01*
X265282Y297999D02*
X312256D01*
X265217Y291699D02*
X286995D01*
X265072Y297099D02*
X286990D01*
X265307Y292599D02*
X285901D01*
X264614Y296199D02*
X285899D01*
X265191Y293499D02*
X285439D01*
X264244Y295299D02*
X285438D01*
X264851Y294399D02*
X285300D01*
X202630Y282699D02*
X260614D01*
X254984Y307899D02*
X259452D01*
X204537Y283599D02*
X258707D01*
X255129Y301599D02*
X258371D01*
X255229Y295299D02*
X258370D01*
X255250Y306999D02*
X258305D01*
X255093Y289899D02*
X258305D01*
X255288Y288999D02*
X258078D01*
X234462Y267399D02*
X258047D01*
X254934Y296199D02*
X258000D01*
X255297Y300699D02*
X257999D01*
X205317Y284499D02*
X257927D01*
X254723Y302499D02*
X257764D01*
X255305Y294399D02*
X257763D01*
X254653Y290799D02*
X257708D01*
X255301Y306099D02*
X257707D01*
X255275Y288099D02*
X257583D01*
X254358Y297099D02*
X257542D01*
X255259Y299799D02*
X257542D01*
X253696Y285399D02*
X257504D01*
X185788Y342099D02*
X257456D01*
X254204Y303399D02*
X257423D01*
X255177Y293499D02*
X257423D01*
X254223Y291699D02*
X257397D01*
X255146Y305199D02*
X257397D01*
X255051Y287199D02*
X257346D01*
X254493Y297999D02*
X257332D01*
X255007Y298899D02*
X257332D01*
X254574Y286299D02*
X257321D01*
X254757Y304299D02*
X257307D01*
X254820Y292599D02*
X257307D01*
X234442Y327699D02*
X257185D01*
X186423Y252999D02*
X256821D01*
X234270Y266499D02*
X255370D01*
X188050Y341199D02*
X255194D01*
X234209Y328599D02*
X255090D01*
X229479Y253899D02*
X254930D01*
X233833Y265599D02*
X254112D01*
X234916Y340299D02*
X253998D01*
X233718Y329499D02*
X253930D01*
X231179Y254799D02*
X253823D01*
X233031Y264699D02*
X253255D01*
X235757Y339399D02*
X253174D01*
X232814Y330399D02*
X253125D01*
X231928Y255699D02*
X253048D01*
X230867Y263799D02*
X252635D01*
X236215Y338499D02*
X252576D01*
X190704Y331299D02*
X252540D01*
X232333Y256599D02*
X252485D01*
X191056Y262899D02*
X252188D01*
X236424Y337599D02*
X252146D01*
X191123Y332199D02*
X252121D01*
X232502Y257499D02*
X252082D01*
X191363Y261999D02*
X251881D01*
X236423Y336699D02*
X251854D01*
X191406Y333099D02*
X251838D01*
X232464Y258399D02*
X251813D01*
X230745Y261099D02*
X251696D01*
X236214Y335799D02*
X251682D01*
X234912Y333999D02*
X251675D01*
X232212Y259299D02*
X251663D01*
X231698Y260199D02*
X251625D01*
X235755Y334899D02*
X251624D01*
X245051Y309699D02*
X249161D01*
X194895Y172899D02*
X249105D01*
X205740Y285399D02*
X248918D01*
X245492Y303399D02*
X248410D01*
X245461Y291699D02*
X248391D01*
X245574Y297099D02*
X248256D01*
X245275Y308799D02*
X248165D01*
X245323Y297999D02*
X248121D01*
X205923Y286299D02*
X248040D01*
X245616Y290799D02*
X247961D01*
X245620Y302499D02*
X247891D01*
X245135Y304299D02*
X247857D01*
X245072Y292599D02*
X247794D01*
X196259Y165699D02*
X247741D01*
X245612Y296199D02*
X247680D01*
X245288Y307899D02*
X247630D01*
X244808Y298899D02*
X247607D01*
X243767Y287199D02*
X247563D01*
X245564Y289899D02*
X247521D01*
X245544Y301599D02*
X247485D01*
X244468Y305199D02*
X247468D01*
X244519Y293499D02*
X247438D01*
X245443Y295299D02*
X247385D01*
X245092Y306999D02*
X247364D01*
X244672Y299799D02*
X247355D01*
X196647Y171999D02*
X247353D01*
X244763Y288099D02*
X247339D01*
X245298Y288999D02*
X247326D01*
X245249Y300699D02*
X247317D01*
X244652Y306099D02*
X247313D01*
X245037Y294399D02*
X247309D01*
X197199Y166599D02*
X246801D01*
X197251Y182799D02*
X246749D01*
X197405Y171099D02*
X246595D01*
X197699Y175599D02*
X246301D01*
X197708Y167499D02*
X246292D01*
X197816Y170199D02*
X246184D01*
X197946Y181899D02*
X246054D01*
X197955Y168399D02*
X246045D01*
X197989Y169299D02*
X246011D01*
X198000Y176499D02*
X246000D01*
X232110Y473499D02*
X241890D01*
X232937Y454599D02*
X241063D01*
X233322Y120699D02*
X240678D01*
X234413Y128799D02*
X239587D01*
X205898Y287199D02*
X239477D01*
X234563Y462699D02*
X239437D01*
X234698Y465399D02*
X239302D01*
X234702Y472599D02*
X239298D01*
X234827Y455499D02*
X239173D01*
X234946Y121599D02*
X239054D01*
X184328Y311499D02*
X238916D01*
X205821Y293499D02*
X238725D01*
X205847Y305199D02*
X238576D01*
X205702Y299799D02*
X238572D01*
X235442Y127899D02*
X238558D01*
X205661Y288099D02*
X238481D01*
X235524Y461799D02*
X238476D01*
X232937Y130599D02*
X238465D01*
X205912Y298899D02*
X238436D01*
X235599Y466299D02*
X238401D01*
X235601Y471699D02*
X238399D01*
X235672Y456399D02*
X238328D01*
X235741Y122499D02*
X238259D01*
X205481Y294399D02*
X238207D01*
X205937Y292599D02*
X238172D01*
X205937Y304299D02*
X238109D01*
X185205Y310599D02*
X238039D01*
X205245Y300699D02*
X237995D01*
X236032Y126999D02*
X237968D01*
X205537Y306099D02*
X237962D01*
X205166Y288999D02*
X237946D01*
X205912Y297999D02*
X237921D01*
X236080Y460899D02*
X237920D01*
X236124Y467199D02*
X237876D01*
X236125Y470799D02*
X237875D01*
X236166Y457299D02*
X237834D01*
X204874Y295299D02*
X237801D01*
X236205Y123399D02*
X237795D01*
X205847Y291699D02*
X237783D01*
X205821Y303399D02*
X237752D01*
X204873Y301599D02*
X237700D01*
X204939Y289899D02*
X237680D01*
X234563Y138699D02*
X237673D01*
X205702Y297099D02*
X237670D01*
X236364Y126099D02*
X237636D01*
X205244Y296199D02*
X237632D01*
X205536Y290799D02*
X237628D01*
X205480Y302499D02*
X237624D01*
X236388Y459999D02*
X237612D01*
X236409Y468099D02*
X237591D01*
X236409Y469899D02*
X237591D01*
X234827Y131499D02*
X237586D01*
X236428Y458199D02*
X237572D01*
X194083Y309699D02*
X237563D01*
X236445Y124299D02*
X237555D01*
X204939Y306999D02*
X237522D01*
X236496Y125199D02*
X237504D01*
X236499Y459099D02*
X237501D01*
X235524Y137799D02*
X237500D01*
X236080Y136899D02*
X237500D01*
X236388Y135999D02*
X237500D01*
X236499Y135099D02*
X237500D01*
X236428Y134199D02*
X237500D01*
X236166Y133299D02*
X237500D01*
X235672Y132399D02*
X237500D01*
X236500Y468999D02*
X237500D01*
X195079Y308799D02*
X237339D01*
X203792Y307899D02*
X237326D01*
X222110Y473499D02*
X231890D01*
X212044Y148599D02*
X231372D01*
X222937Y454599D02*
X231063D01*
X222937Y130599D02*
X231063D01*
X212944Y147699D02*
X230456D01*
X224962Y263799D02*
X230093D01*
X228968Y274599D02*
X230024D01*
X229007Y333999D02*
X229985D01*
X229010Y340299D02*
X229982D01*
X229048Y280899D02*
X229944D01*
X225197Y323199D02*
X229858D01*
X224413Y128799D02*
X229587D01*
X213844Y146799D02*
X229556D01*
X224563Y462699D02*
X229437D01*
X104200Y113499D02*
X229406D01*
X224698Y465399D02*
X229302D01*
X224702Y472599D02*
X229298D01*
X224827Y455499D02*
X229173D01*
X224827Y131499D02*
X229173D01*
X214744Y145899D02*
X228656D01*
X225442Y127899D02*
X228558D01*
X225524Y461799D02*
X228476D01*
X225599Y466299D02*
X228401D01*
X225601Y471699D02*
X228399D01*
X104200Y114399D02*
X228359D01*
X225672Y456399D02*
X228328D01*
X225672Y132399D02*
X228328D01*
X226909Y330399D02*
X228147D01*
X226950Y270999D02*
X228105D01*
X226032Y126999D02*
X227968D01*
X227125Y264699D02*
X227930D01*
X226080Y460899D02*
X227920D01*
X227161Y324099D02*
X227894D01*
X226124Y467199D02*
X227876D01*
X226125Y470799D02*
X227875D01*
X226166Y457299D02*
X227834D01*
X226166Y133299D02*
X227834D01*
X215644Y144999D02*
X227756D01*
X226370Y126099D02*
X227636D01*
X226388Y459999D02*
X227612D01*
X226409Y468099D02*
X227591D01*
X226409Y469899D02*
X227591D01*
X226428Y458199D02*
X227572D01*
X226554Y134199D02*
X227572D01*
X223574Y253899D02*
X227544D01*
X226499Y459099D02*
X227501D01*
X226500Y468999D02*
X227500D01*
X104200Y115299D02*
X227459D01*
X223687Y313299D02*
X227431D01*
X216544Y144099D02*
X226856D01*
X104200Y116199D02*
X226559D01*
X224794Y320499D02*
X226324D01*
X224839Y261099D02*
X226279D01*
X217444Y143199D02*
X225956D01*
X225279Y254799D02*
X225839D01*
X225330Y314199D02*
X225788D01*
X104200Y117099D02*
X225659D01*
X218799Y142299D02*
X225056D01*
X104200Y117999D02*
X224759D01*
X219056Y263799D02*
X224188D01*
X223063Y274599D02*
X224118D01*
X223101Y333999D02*
X224080D01*
X223105Y340299D02*
X224076D01*
X219844Y141399D02*
X224052D01*
X223142Y280899D02*
X224039D01*
X219291Y323199D02*
X223953D01*
X104200Y118899D02*
X223592D01*
X220744Y140499D02*
X222660D01*
X221003Y330399D02*
X222241D01*
X221044Y270999D02*
X222200D01*
X104200Y119799D02*
X222200D01*
X221220Y264699D02*
X222024D01*
X221256Y324099D02*
X221988D01*
X212110Y473499D02*
X221890D01*
X217668Y253899D02*
X221639D01*
X217781Y313299D02*
X221526D01*
X212937Y454599D02*
X221063D01*
X212937Y130599D02*
X221063D01*
X213322Y120699D02*
X220678D01*
X218889Y320499D02*
X220418D01*
X218934Y261099D02*
X220373D01*
X219374Y254799D02*
X219933D01*
X219424Y314199D02*
X219883D01*
X214413Y128799D02*
X219587D01*
X214563Y462699D02*
X219437D01*
X214698Y465399D02*
X219302D01*
X214702Y472599D02*
X219298D01*
X214827Y455499D02*
X219173D01*
X214827Y131499D02*
X219173D01*
X214946Y121599D02*
X219054D01*
X215442Y127899D02*
X218558D01*
X215524Y461799D02*
X218476D01*
X215599Y466299D02*
X218401D01*
X215601Y471699D02*
X218399D01*
X215672Y456399D02*
X218328D01*
X215672Y132399D02*
X218328D01*
X213151Y263799D02*
X218282D01*
X215741Y122499D02*
X218259D01*
X217157Y274599D02*
X218213D01*
X217196Y333999D02*
X218174D01*
X217199Y340299D02*
X218171D01*
X217237Y280899D02*
X218133D01*
X213386Y323199D02*
X218047D01*
X216032Y126999D02*
X217968D01*
X216080Y460899D02*
X217920D01*
X216124Y467199D02*
X217876D01*
X216125Y470799D02*
X217875D01*
X216166Y457299D02*
X217834D01*
X216166Y133299D02*
X217834D01*
X216205Y123399D02*
X217795D01*
X216364Y126099D02*
X217636D01*
X216388Y459999D02*
X217612D01*
X216409Y468099D02*
X217591D01*
X216409Y469899D02*
X217591D01*
X216428Y458199D02*
X217572D01*
X216428Y134199D02*
X217572D01*
X216445Y124299D02*
X217555D01*
X216496Y125199D02*
X217504D01*
X216499Y459099D02*
X217501D01*
X216500Y468999D02*
X217500D01*
X216502Y135099D02*
X217498D01*
X215097Y330399D02*
X216335D01*
X215139Y270999D02*
X216294D01*
X215314Y264699D02*
X216119D01*
X215350Y324099D02*
X216083D01*
X213880Y253899D02*
X215733D01*
X211876Y313299D02*
X215620D01*
X212983Y320499D02*
X214513D01*
X213519Y314199D02*
X213977D01*
X190609Y263799D02*
X212377D01*
X162600Y274599D02*
X212307D01*
X191569Y333999D02*
X212269D01*
X189246Y340299D02*
X212265D01*
X162600Y280899D02*
X212227D01*
X104200Y323199D02*
X212142D01*
X202110Y473499D02*
X211890D01*
X104200Y139599D02*
X211809D01*
X104200Y140499D02*
X211659D01*
X162600Y275499D02*
X211447D01*
X191620Y334899D02*
X211426D01*
X190070Y339399D02*
X211424D01*
X162600Y279999D02*
X211404D01*
X205535Y454599D02*
X211063D01*
X202937Y130599D02*
X211063D01*
X162600Y276399D02*
X210978D01*
X191562Y335799D02*
X210967D01*
X190668Y338499D02*
X210966D01*
X162600Y279099D02*
X210956D01*
X162600Y277299D02*
X210761D01*
X104200Y141399D02*
X210759D01*
X191390Y336699D02*
X210758D01*
X191098Y337599D02*
X210757D01*
X162600Y278199D02*
X210754D01*
X203322Y120699D02*
X210678D01*
X190119Y330399D02*
X210430D01*
X162600Y270999D02*
X210389D01*
X189989Y264699D02*
X210213D01*
X104200Y324099D02*
X210177D01*
X104200Y142299D02*
X209859D01*
X104200Y313299D02*
X209715D01*
X204413Y128799D02*
X209587D01*
X189314Y329499D02*
X209526D01*
X162600Y270099D02*
X209504D01*
X206327Y462699D02*
X209437D01*
X204563Y138699D02*
X209437D01*
X189132Y265599D02*
X209411D01*
X104200Y324999D02*
X209392D01*
X204698Y465399D02*
X209302D01*
X204702Y472599D02*
X209298D01*
X206414Y455499D02*
X209173D01*
X204827Y131499D02*
X209173D01*
X204946Y121599D02*
X209054D01*
X188154Y328599D02*
X209035D01*
X162600Y269199D02*
X209024D01*
X187874Y266499D02*
X208974D01*
X104200Y325899D02*
X208964D01*
X104200Y143199D02*
X208959D01*
X186059Y327699D02*
X208802D01*
X162600Y268299D02*
X208797D01*
X185197Y267399D02*
X208782D01*
X104200Y326799D02*
X208779D01*
X104200Y320499D02*
X208607D01*
X205442Y127899D02*
X208558D01*
X206500Y461799D02*
X208476D01*
X205524Y137799D02*
X208476D01*
X205599Y466299D02*
X208401D01*
X205601Y471699D02*
X208399D01*
X206500Y456399D02*
X208328D01*
X205672Y132399D02*
X208328D01*
X205741Y122499D02*
X208259D01*
X104200Y314199D02*
X208095D01*
X104200Y144099D02*
X208059D01*
X206032Y126999D02*
X207968D01*
X206500Y460899D02*
X207920D01*
X206080Y136899D02*
X207920D01*
X206124Y467199D02*
X207876D01*
X206125Y470799D02*
X207875D01*
X206500Y457299D02*
X207834D01*
X206166Y133299D02*
X207834D01*
X206205Y123399D02*
X207795D01*
X188314Y253899D02*
X207710D01*
X206364Y126099D02*
X207636D01*
X104200Y319599D02*
X207632D01*
X206500Y459999D02*
X207612D01*
X206388Y135999D02*
X207612D01*
X206409Y468099D02*
X207591D01*
X206409Y469899D02*
X207591D01*
X206500Y458199D02*
X207572D01*
X206428Y134199D02*
X207572D01*
X206445Y124299D02*
X207555D01*
X206496Y125199D02*
X207504D01*
X206500Y459099D02*
X207501D01*
X206499Y135099D02*
X207501D01*
X206500Y468999D02*
X207500D01*
X104200Y315099D02*
X207361D01*
X104200Y144999D02*
X207159D01*
X104200Y318699D02*
X207107D01*
X191548Y261099D02*
X207038D01*
X104200Y315999D02*
X206964D01*
X189421Y254799D02*
X206875D01*
X104200Y317799D02*
X206848D01*
X104200Y316899D02*
X206803D01*
X191619Y260199D02*
X206795D01*
X191581Y259299D02*
X206795D01*
X191431Y258399D02*
X206795D01*
X191162Y257499D02*
X206795D01*
X190759Y256599D02*
X206795D01*
X190196Y255699D02*
X206795D01*
X104200Y145899D02*
X206259D01*
X104200Y146799D02*
X205359D01*
X104200Y147699D02*
X204459D01*
X104200Y148599D02*
X203559D01*
X104200Y149499D02*
X202659D01*
X104200Y473499D02*
X201890D01*
X104200Y150399D02*
X201759D01*
X162600Y282699D02*
X201244D01*
X104200Y130599D02*
X201063D01*
X104200Y151299D02*
X200859D01*
X104200Y120699D02*
X200678D01*
X195614Y307899D02*
X200082D01*
X104200Y152199D02*
X199959D01*
X104200Y128799D02*
X199587D01*
X104200Y138699D02*
X199437D01*
X162600Y283599D02*
X199337D01*
X104200Y465399D02*
X199302D01*
X104200Y472599D02*
X199298D01*
X104200Y131499D02*
X199173D01*
X104200Y153099D02*
X199059D01*
X104200Y121599D02*
X199054D01*
X195759Y301599D02*
X199001D01*
X195859Y295299D02*
X199000D01*
X195880Y306999D02*
X198935D01*
X195723Y289899D02*
X198935D01*
X195918Y288999D02*
X198708D01*
X195564Y296199D02*
X198630D01*
X195927Y300699D02*
X198629D01*
X104200Y127899D02*
X198558D01*
X162600Y284499D02*
X198557D01*
X104200Y137799D02*
X198476D01*
X104200Y454599D02*
X198465D01*
X104200Y466299D02*
X198401D01*
X104200Y471699D02*
X198399D01*
X195353Y302499D02*
X198394D01*
X195935Y294399D02*
X198393D01*
X195283Y290799D02*
X198338D01*
X195931Y306099D02*
X198337D01*
X104200Y132399D02*
X198328D01*
X104200Y122499D02*
X198259D01*
X195905Y288099D02*
X198213D01*
X194988Y297099D02*
X198172D01*
X195889Y299799D02*
X198171D01*
X104200Y153999D02*
X198159D01*
X194326Y285399D02*
X198134D01*
X194834Y303399D02*
X198053D01*
X195806Y293499D02*
X198053D01*
X194853Y291699D02*
X198027D01*
X195776Y305199D02*
X198027D01*
X195681Y287199D02*
X197976D01*
X104200Y126999D02*
X197968D01*
X195123Y297999D02*
X197962D01*
X195637Y298899D02*
X197962D01*
X195204Y286299D02*
X197951D01*
X195387Y304299D02*
X197937D01*
X195450Y292599D02*
X197937D01*
X104200Y136899D02*
X197920D01*
X104200Y467199D02*
X197876D01*
X104200Y470799D02*
X197875D01*
X104200Y133299D02*
X197834D01*
X104200Y123399D02*
X197795D01*
X104200Y462699D02*
X197673D01*
X104200Y126099D02*
X197636D01*
X104200Y135999D02*
X197612D01*
X104200Y468099D02*
X197591D01*
X104200Y469899D02*
X197591D01*
X104200Y455499D02*
X197586D01*
X104200Y134199D02*
X197572D01*
X104200Y124299D02*
X197555D01*
X104200Y125199D02*
X197504D01*
X104200Y135099D02*
X197501D01*
X104200Y468999D02*
X197500D01*
X104200Y461799D02*
X197500D01*
X104200Y460899D02*
X197500D01*
X104200Y459999D02*
X197500D01*
X104200Y459099D02*
X197500D01*
X104200Y458199D02*
X197500D01*
X104200Y457299D02*
X197500D01*
X104200Y456399D02*
X197500D01*
X104200Y154899D02*
X197259D01*
X104200Y155799D02*
X196359D01*
X104200Y156699D02*
X195459D01*
X104200Y157599D02*
X194559D01*
X104200Y158499D02*
X193659D01*
X187744Y172899D02*
X193105D01*
X104200Y159399D02*
X192759D01*
X104200Y160299D02*
X191859D01*
X188644Y171999D02*
X191353D01*
X104200Y161199D02*
X190959D01*
X177844Y182799D02*
X190749D01*
X189544Y171099D02*
X190595D01*
X185044Y175599D02*
X190301D01*
X104200Y162099D02*
X190059D01*
X178744Y181899D02*
X190054D01*
X179644Y180999D02*
X190000D01*
X180544Y180099D02*
X190000D01*
X181444Y179199D02*
X190000D01*
X182344Y178299D02*
X190000D01*
X183244Y177399D02*
X190000D01*
X184144Y176499D02*
X190000D01*
X185681Y309699D02*
X189791D01*
X162600Y285399D02*
X189548D01*
X104200Y162999D02*
X189159D01*
X185807Y303399D02*
X189040D01*
X185776Y291699D02*
X189021D01*
X185889Y297099D02*
X188886D01*
X185905Y308799D02*
X188795D01*
X185638Y297999D02*
X188751D01*
X162600Y286299D02*
X188670D01*
X185931Y290799D02*
X188591D01*
X185935Y302499D02*
X188521D01*
X185450Y304299D02*
X188487D01*
X185387Y292599D02*
X188424D01*
X185927Y296199D02*
X188310D01*
X185918Y307899D02*
X188260D01*
X104200Y163899D02*
X188259D01*
X185123Y298899D02*
X188237D01*
X184082Y287199D02*
X188193D01*
X185879Y289899D02*
X188151D01*
X185859Y301599D02*
X188115D01*
X184853Y305199D02*
X188098D01*
X184834Y293499D02*
X188067D01*
X185758Y295299D02*
X188015D01*
X185722Y306999D02*
X187994D01*
X184987Y299799D02*
X187985D01*
X185078Y288099D02*
X187969D01*
X185613Y288999D02*
X187956D01*
X185564Y300699D02*
X187947D01*
X185282Y306099D02*
X187943D01*
X185352Y294399D02*
X187939D01*
X104200Y164799D02*
X187359D01*
X104200Y165699D02*
X186459D01*
X104200Y166599D02*
X185559D01*
X104200Y167499D02*
X184659D01*
X104200Y168399D02*
X183759D01*
X162600Y267399D02*
X183244D01*
X104200Y169299D02*
X182859D01*
X104200Y342099D02*
X182653D01*
X104200Y327699D02*
X182381D01*
X162600Y252999D02*
X182018D01*
X104200Y170199D02*
X181959D01*
X104200Y171099D02*
X181059D01*
X162600Y266499D02*
X180567D01*
X104200Y341199D02*
X180391D01*
X104200Y328599D02*
X180287D01*
X104200Y171999D02*
X180159D01*
X162600Y253899D02*
X180127D01*
X162600Y287199D02*
X179792D01*
X104200Y311499D02*
X179546D01*
X162600Y265599D02*
X179309D01*
X104200Y172899D02*
X179259D01*
X104200Y340299D02*
X179195D01*
X104200Y329499D02*
X179127D01*
X162600Y293499D02*
X179040D01*
X162573Y305199D02*
X179021D01*
X162600Y254799D02*
X179020D01*
X162600Y299799D02*
X178887D01*
X162600Y288099D02*
X178796D01*
X162600Y298899D02*
X178750D01*
X104200Y310599D02*
X178669D01*
X162304Y306099D02*
X178592D01*
X162600Y294399D02*
X178522D01*
X162600Y292599D02*
X178486D01*
X162600Y264699D02*
X178452D01*
X162600Y304299D02*
X178424D01*
X104200Y339399D02*
X178371D01*
X104200Y173799D02*
X178359D01*
X104200Y330399D02*
X178321D01*
X162600Y300699D02*
X178310D01*
X162600Y288999D02*
X178261D01*
X162600Y255699D02*
X178245D01*
X162600Y297999D02*
X178236D01*
X104200Y309699D02*
X178193D01*
X161641Y306999D02*
X178152D01*
X162600Y295299D02*
X178116D01*
X162600Y291699D02*
X178098D01*
X162600Y303399D02*
X178067D01*
X162600Y301599D02*
X178015D01*
X162600Y289899D02*
X177995D01*
X162600Y297099D02*
X177985D01*
X104200Y308799D02*
X177969D01*
X104200Y307899D02*
X177956D01*
X162600Y296199D02*
X177947D01*
X162600Y290799D02*
X177943D01*
X162600Y302499D02*
X177939D01*
X162600Y263799D02*
X177832D01*
X104200Y338499D02*
X177773D01*
X104200Y331299D02*
X177737D01*
X162600Y256599D02*
X177682D01*
X104200Y174699D02*
X177459D01*
X162600Y262899D02*
X177385D01*
X104200Y337599D02*
X177343D01*
X104200Y332199D02*
X177318D01*
X162600Y257499D02*
X177279D01*
X162600Y261999D02*
X177078D01*
X104200Y336699D02*
X177051D01*
X104200Y333099D02*
X177035D01*
X162600Y258399D02*
X177010D01*
X162600Y261099D02*
X176893D01*
X104200Y335799D02*
X176879D01*
X104200Y333999D02*
X176871D01*
X162600Y259299D02*
X176860D01*
X162600Y260199D02*
X176822D01*
X104200Y334899D02*
X176820D01*
X104200Y175599D02*
X176559D01*
X104200Y176499D02*
X175659D01*
X104200Y177399D02*
X174759D01*
X104200Y178299D02*
X173859D01*
X104200Y179199D02*
X172959D01*
X104200Y180099D02*
X172059D01*
X104200Y180999D02*
X171159D01*
X104200Y181899D02*
X170447D01*
X104200Y182799D02*
X170142D01*
X104200Y217899D02*
X170100D01*
X104200Y216999D02*
X170100D01*
X104200Y216099D02*
X170100D01*
X104200Y215199D02*
X170100D01*
X104200Y214299D02*
X170100D01*
X104200Y213399D02*
X170100D01*
X104200Y212499D02*
X170100D01*
X104200Y211599D02*
X170100D01*
X104200Y210699D02*
X170100D01*
X104200Y209799D02*
X170100D01*
X104200Y208899D02*
X170100D01*
X104200Y207999D02*
X170100D01*
X104200Y207099D02*
X170100D01*
X104200Y206199D02*
X170100D01*
X104200Y205299D02*
X170100D01*
X104200Y204399D02*
X170100D01*
X104200Y203499D02*
X170100D01*
X104200Y202599D02*
X170100D01*
X104200Y201699D02*
X170100D01*
X104200Y200799D02*
X170100D01*
X104200Y199899D02*
X170100D01*
X104200Y198999D02*
X170100D01*
X104200Y198099D02*
X170100D01*
X104200Y197199D02*
X170100D01*
X104200Y196299D02*
X170100D01*
X104200Y195399D02*
X170100D01*
X104200Y194499D02*
X170100D01*
X104200Y193599D02*
X170100D01*
X104200Y192699D02*
X170100D01*
X104200Y191799D02*
X170100D01*
X104200Y190899D02*
X170100D01*
X104200Y189999D02*
X170100D01*
X104200Y189099D02*
X170100D01*
X104200Y188199D02*
X170100D01*
X104200Y187299D02*
X170100D01*
X104200Y186399D02*
X170100D01*
X104200Y185499D02*
X170100D01*
X104200Y184599D02*
X170100D01*
X104200Y183699D02*
X170100D01*
X104200Y218799D02*
X170034D01*
X104200Y219699D02*
X169159D01*
X104200Y220599D02*
X168259D01*
X104200Y221499D02*
X167359D01*
X104200Y222399D02*
X166459D01*
X104200Y223299D02*
X165559D01*
X104200Y224199D02*
X164659D01*
X104200Y225099D02*
X163759D01*
X104200Y225999D02*
X162859D01*
X104200Y226899D02*
X161959D01*
X104200Y227799D02*
X161059D01*
X104200Y228699D02*
X160159D01*
X104200Y229599D02*
X159259D01*
X104200Y230499D02*
X158359D01*
X104200Y306999D02*
X157559D01*
X104200Y231399D02*
X157459D01*
X104200Y306099D02*
X156896D01*
X104200Y232299D02*
X156851D01*
X104200Y305199D02*
X156627D01*
X104200Y233199D02*
X156615D01*
X104200Y304299D02*
X156600D01*
X104200Y303399D02*
X156600D01*
X104200Y302499D02*
X156600D01*
X104200Y301599D02*
X156600D01*
X104200Y300699D02*
X156600D01*
X104200Y299799D02*
X156600D01*
X104200Y298899D02*
X156600D01*
X104200Y297999D02*
X156600D01*
X104200Y297099D02*
X156600D01*
X104200Y296199D02*
X156600D01*
X104200Y295299D02*
X156600D01*
X104200Y294399D02*
X156600D01*
X104200Y293499D02*
X156600D01*
X104200Y292599D02*
X156600D01*
X104200Y291699D02*
X156600D01*
X104200Y290799D02*
X156600D01*
X104200Y289899D02*
X156600D01*
X104200Y288999D02*
X156600D01*
X104200Y288099D02*
X156600D01*
X104200Y287199D02*
X156600D01*
X104200Y286299D02*
X156600D01*
X104200Y285399D02*
X156600D01*
X104200Y284499D02*
X156600D01*
X104200Y283599D02*
X156600D01*
X104200Y282699D02*
X156600D01*
X104200Y281799D02*
X156600D01*
X104200Y280899D02*
X156600D01*
X104200Y279999D02*
X156600D01*
X104200Y279099D02*
X156600D01*
X104200Y278199D02*
X156600D01*
X104200Y277299D02*
X156600D01*
X104200Y276399D02*
X156600D01*
X104200Y275499D02*
X156600D01*
X104200Y274599D02*
X156600D01*
X104200Y273699D02*
X156600D01*
X104200Y272799D02*
X156600D01*
X104200Y271899D02*
X156600D01*
X104200Y270999D02*
X156600D01*
X104200Y270099D02*
X156600D01*
X104200Y269199D02*
X156600D01*
X104200Y268299D02*
X156600D01*
X104200Y267399D02*
X156600D01*
X104200Y266499D02*
X156600D01*
X104200Y265599D02*
X156600D01*
X104200Y264699D02*
X156600D01*
X104200Y263799D02*
X156600D01*
X104200Y262899D02*
X156600D01*
X104200Y261999D02*
X156600D01*
X104200Y261099D02*
X156600D01*
X104200Y260199D02*
X156600D01*
X104200Y259299D02*
X156600D01*
X104200Y258399D02*
X156600D01*
X104200Y257499D02*
X156600D01*
X104200Y256599D02*
X156600D01*
X104200Y255699D02*
X156600D01*
X104200Y254799D02*
X156600D01*
X104200Y253899D02*
X156600D01*
X104200Y252999D02*
X156600D01*
X104200Y252099D02*
X156600D01*
X104200Y251199D02*
X156600D01*
X104200Y250299D02*
X156600D01*
X104200Y249399D02*
X156600D01*
X104200Y248499D02*
X156600D01*
X104200Y247599D02*
X156600D01*
X104200Y246699D02*
X156600D01*
X104200Y245799D02*
X156600D01*
X104200Y244899D02*
X156600D01*
X104200Y243999D02*
X156600D01*
X104200Y243099D02*
X156600D01*
X104200Y242199D02*
X156600D01*
X104200Y241299D02*
X156600D01*
X104200Y240399D02*
X156600D01*
X104200Y239499D02*
X156600D01*
X104200Y238599D02*
X156600D01*
X104200Y237699D02*
X156600D01*
X104200Y236799D02*
X156600D01*
X104200Y235899D02*
X156600D01*
X104200Y234999D02*
X156600D01*
X104200Y234099D02*
X156600D01*
X100000Y100000D02*
X887000D01*
Y494000*
X100000*
Y100000*
G54D32*
X242000Y125000D03*
X232000Y135000D03*
Y125000D03*
X222000Y135000D03*
Y125000D03*
X212000Y135000D03*
Y125000D03*
X202000Y135000D03*
Y125000D03*
X423000D03*
X413000Y135000D03*
Y125000D03*
X403000Y135000D03*
Y125000D03*
X393000Y135000D03*
Y125000D03*
X383000Y135000D03*
Y125000D03*
X604000D03*
X594000Y135000D03*
Y125000D03*
X584000Y135000D03*
Y125000D03*
X574000Y135000D03*
Y125000D03*
X564000Y135000D03*
Y125000D03*
X785000D03*
X775000Y135000D03*
Y125000D03*
X765000Y135000D03*
Y125000D03*
X755000Y135000D03*
Y125000D03*
X745000Y135000D03*
Y125000D03*
X202000Y469000D03*
X212000Y459000D03*
Y469000D03*
X222000Y459000D03*
Y469000D03*
X232000Y459000D03*
Y469000D03*
X242000Y459000D03*
Y469000D03*
X383000D03*
X393000Y459000D03*
Y469000D03*
X403000Y459000D03*
Y469000D03*
X413000Y459000D03*
Y469000D03*
X423000Y459000D03*
Y469000D03*
X564000D03*
X574000Y459000D03*
Y469000D03*
X584000Y459000D03*
Y469000D03*
X594000Y459000D03*
Y469000D03*
X604000Y459000D03*
Y469000D03*
X745000D03*
X755000Y459000D03*
Y469000D03*
X765000Y459000D03*
Y469000D03*
X775000Y459000D03*
Y469000D03*
X785000Y459000D03*
Y469000D03*
G54D33*
X242000Y135000D03*
X423000D03*
X604000D03*
X785000D03*
X202000Y459000D03*
X383000D03*
X564000D03*
X745000D03*
G54D34*
X194000Y169000D03*
X250000D03*
X375000D03*
X431000D03*
X556000D03*
X612000D03*
X737000D03*
X793000D03*
X212764Y267780D03*
X214732Y277780D03*
X216701Y257780D03*
X218669Y267780D03*
X220638Y277780D03*
X222606Y257780D03*
X224575Y267780D03*
X226543Y277780D03*
X228512Y257780D03*
X230480Y267780D03*
X232449Y277780D03*
X261307Y286638D03*
X251307Y288607D03*
X241622Y290575D03*
X261307Y292544D03*
X251307Y294512D03*
X241622Y296481D03*
X261307Y298449D03*
X251307Y300418D03*
X241622Y302386D03*
X261307Y304355D03*
X251307Y306323D03*
X241307Y308292D03*
X232449Y337150D03*
X230480Y327150D03*
X228512Y317150D03*
X226543Y337150D03*
X224575Y327150D03*
X222606Y317150D03*
X220638Y337150D03*
X218669Y327150D03*
X216701Y317150D03*
X214732Y337150D03*
X212764Y327150D03*
X210795Y317150D03*
X181937Y308292D03*
X191937Y306323D03*
X201937Y304355D03*
X181937Y302386D03*
X191937Y300418D03*
X201937Y298449D03*
X181937Y296481D03*
X191937Y294512D03*
X201937Y292544D03*
X181937Y290575D03*
X191937Y288607D03*
X201937Y286638D03*
X393764Y267780D03*
X395732Y277780D03*
X397701Y257780D03*
X399669Y267780D03*
X401638Y277780D03*
X403606Y257780D03*
X405575Y267780D03*
X407543Y277780D03*
X409512Y257780D03*
X411480Y267780D03*
X413449Y277780D03*
X442307Y286638D03*
X432307Y288607D03*
X422622Y290575D03*
X442307Y292544D03*
X432307Y294512D03*
X422622Y296481D03*
X442307Y298449D03*
X432307Y300418D03*
X422622Y302386D03*
X442307Y304355D03*
X432307Y306323D03*
X422307Y308292D03*
X413449Y337150D03*
X411480Y327150D03*
X409512Y317150D03*
X407543Y337150D03*
X405575Y327150D03*
X403606Y317150D03*
X401638Y337150D03*
X399669Y327150D03*
X397701Y317150D03*
X395732Y337150D03*
X393764Y327150D03*
X391795Y317150D03*
X362937Y308292D03*
X372937Y306323D03*
X382937Y304355D03*
X362937Y302386D03*
X372937Y300418D03*
X382937Y298449D03*
X362937Y296481D03*
X372937Y294512D03*
X382937Y292544D03*
X362937Y290575D03*
X372937Y288607D03*
X382937Y286638D03*
X574764Y267780D03*
X576732Y277780D03*
X578701Y257780D03*
X580669Y267780D03*
X582638Y277780D03*
X584606Y257780D03*
X586575Y267780D03*
X588543Y277780D03*
X590512Y257780D03*
X592480Y267780D03*
X594449Y277780D03*
X623307Y286638D03*
X613307Y288607D03*
X603622Y290575D03*
X623307Y292544D03*
X613307Y294512D03*
X603622Y296481D03*
X623307Y298449D03*
X613307Y300418D03*
X603622Y302386D03*
X623307Y304355D03*
X613307Y306323D03*
X603307Y308292D03*
X594449Y337150D03*
X592480Y327150D03*
X590512Y317150D03*
X588543Y337150D03*
X586575Y327150D03*
X584606Y317150D03*
X582638Y337150D03*
X580669Y327150D03*
X578701Y317150D03*
X576732Y337150D03*
X574764Y327150D03*
X572795Y317150D03*
X543937Y308292D03*
X553937Y306323D03*
X563937Y304355D03*
X543937Y302386D03*
X553937Y300418D03*
X563937Y298449D03*
X543937Y296481D03*
X553937Y294512D03*
X563937Y292544D03*
X543937Y290575D03*
X553937Y288607D03*
X563937Y286638D03*
X755764Y267780D03*
X757732Y277780D03*
X759701Y257780D03*
X761669Y267780D03*
X763638Y277780D03*
X765606Y257780D03*
X767575Y267780D03*
X769543Y277780D03*
X771512Y257780D03*
X773480Y267780D03*
X775449Y277780D03*
X804307Y286638D03*
X794307Y288607D03*
X784622Y290575D03*
X804307Y292544D03*
X794307Y294512D03*
X784622Y296481D03*
X804307Y298449D03*
X794307Y300418D03*
X784622Y302386D03*
X804307Y304355D03*
X794307Y306323D03*
X784307Y308292D03*
X775449Y337150D03*
X773480Y327150D03*
X771512Y317150D03*
X769543Y337150D03*
X767575Y327150D03*
X765606Y317150D03*
X763638Y337150D03*
X761669Y327150D03*
X759701Y317150D03*
X757732Y337150D03*
X755764Y327150D03*
X753795Y317150D03*
X724937Y308292D03*
X734937Y306323D03*
X744937Y304355D03*
X724937Y302386D03*
X734937Y300418D03*
X744937Y298449D03*
X724937Y296481D03*
X734937Y294512D03*
X744937Y292544D03*
X724937Y290575D03*
X734937Y288607D03*
X744937Y286638D03*
G54D35*
X184220Y260063D03*
X259024D03*
Y334867D03*
X184220D03*
X365220Y260063D03*
X440024D03*
Y334867D03*
X365220D03*
X546220Y260063D03*
X621024D03*
Y334867D03*
X546220D03*
X727220Y260063D03*
X802024D03*
Y334867D03*
X727220D03*
G54D37*
X740939Y463061D02*
X742879Y461121D01*
X740939Y454939D02*
X742879Y456879D01*
X749061Y454939D02*
X747121Y456879D01*
X749061Y463061D02*
X747121Y461121D01*
X559939Y463061D02*
X561879Y461121D01*
X559939Y454939D02*
X561879Y456879D01*
X568061Y454939D02*
X566121Y456879D01*
X568061Y463061D02*
X566121Y461121D01*
X378939Y463061D02*
X380879Y461121D01*
X378939Y454939D02*
X380879Y456879D01*
X387061Y454939D02*
X385121Y456879D01*
X387061Y463061D02*
X385121Y461121D01*
X197939Y463061D02*
X199879Y461121D01*
X197939Y454939D02*
X199879Y456879D01*
X206061Y454939D02*
X204121Y456879D01*
X206061Y463061D02*
X204121Y461121D01*
X789061Y130939D02*
X787121Y132879D01*
X789061Y139061D02*
X787121Y137121D01*
X780939Y139061D02*
X782879Y137121D01*
X780939Y130939D02*
X782879Y132879D01*
X791479Y297341D02*
X792539Y296280D01*
X791479Y291684D02*
X792539Y292744D01*
X797135Y291684D02*
X796075Y292744D01*
X797135Y297341D02*
X796075Y296280D01*
X608061Y130939D02*
X606121Y132879D01*
X608061Y139061D02*
X606121Y137121D01*
X599939Y139061D02*
X601879Y137121D01*
X599939Y130939D02*
X601879Y132879D01*
X610479Y297341D02*
X611539Y296280D01*
X610479Y291684D02*
X611539Y292744D01*
X616135Y291684D02*
X615075Y292744D01*
X616135Y297341D02*
X615075Y296280D01*
X427061Y130939D02*
X425121Y132879D01*
X427061Y139061D02*
X425121Y137121D01*
X418939Y139061D02*
X420879Y137121D01*
X418939Y130939D02*
X420879Y132879D01*
X429479Y297341D02*
X430539Y296280D01*
X429479Y291684D02*
X430539Y292744D01*
X435135Y291684D02*
X434075Y292744D01*
X435135Y297341D02*
X434075Y296280D01*
X246061Y130939D02*
X244121Y132879D01*
X246061Y139061D02*
X244121Y137121D01*
X237939Y139061D02*
X239879Y137121D01*
X237939Y130939D02*
X239879Y132879D01*
X248479Y297341D02*
X249539Y296280D01*
X248479Y291684D02*
X249539Y292744D01*
X254135Y291684D02*
X253075Y292744D01*
X254135Y297341D02*
X253075Y296280D01*
G54D49*
G54D51*
X288300Y146300D03*
X465800Y145200D03*
X656900Y144500D03*
X299600Y279400D03*
X324200Y280000D03*
X503700Y278600D03*
X659900Y282000D03*
X686300Y279500D03*
X841900Y282600D03*
X142800Y286700D03*
X288300Y294400D03*
X465800Y302100D03*
X654000Y302000D03*
X137600Y310400D03*
X159600Y304800D03*
X317500Y307100D03*
X325100Y306600D03*
X497900Y307600D03*
X506200Y307500D03*
X677200Y305300D03*
X685200Y305400D03*
G54D52*
X226243Y120757D02*
X223500Y125000D01*
X225182Y121818*
X222000Y123500*
X226243Y120757*
X225867Y121000D02*
X226086D01*
X224029Y124000D02*
X224146D01*
X223000Y122854D02*
Y122971D01*
X226000Y120914D02*
Y121133D01*
X398757Y120757D02*
X403000Y123500D01*
X399818Y121818*
X401500Y125000*
X398757Y120757*
X398914Y121000D02*
X399133D01*
X400854Y124000D02*
X400971D01*
X400000Y121561D02*
Y121914D01*
Y122162D02*
Y122680D01*
X403000Y123500D02*
X403000D01*
X407243Y120757D02*
X404500Y125000D01*
X406182Y121818*
X403000Y123500*
X407243Y120757*
X406867Y121000D02*
X407086D01*
X405029Y124000D02*
X405146D01*
X403000Y123500D02*
X403000D01*
X406000Y121561D02*
Y121914D01*
Y122162D02*
Y122680D01*
X588243Y120757D02*
X585500Y125000D01*
X587182Y121818*
X584000Y123500*
X588243Y120757*
X587867Y121000D02*
X588086D01*
X586029Y124000D02*
X586146D01*
X586000Y122207D02*
Y122443D01*
Y124054D02*
Y124227D01*
X760757Y120757D02*
X765000Y123500D01*
X761818Y121818*
X763500Y125000*
X760757Y120757*
X760914Y121000D02*
X761133D01*
X762854Y124000D02*
X762971D01*
X763000Y122207D02*
Y122443D01*
Y124054D02*
Y124227D01*
X226243Y139243D02*
X222000Y136500D01*
X225182Y138182*
X223500Y135000*
X226243Y139243*
X224029Y136000D02*
X224146D01*
X225867Y139000D02*
X226086D01*
X223000Y137029D02*
Y137146D01*
X226000Y138867D02*
Y139086D01*
X398757Y139243D02*
X401500Y135000D01*
X399818Y138182*
X403000Y136500*
X398757Y139243*
X400854Y136000D02*
X400971D01*
X398914Y139000D02*
X399133D01*
X400000Y137320D02*
Y137838D01*
Y138086D02*
Y138439D01*
X403000Y136500D02*
X403000D01*
X407243Y139243D02*
X403000Y136500D01*
X406182Y138182*
X404500Y135000*
X407243Y139243*
X405029Y136000D02*
X405146D01*
X406867Y139000D02*
X407086D01*
X403000Y136500D02*
X403000D01*
X406000Y137320D02*
Y137838D01*
Y138086D02*
Y138439D01*
X579757Y139243D02*
X582500Y135000D01*
X580818Y138182*
X584000Y136500*
X579757Y139243*
X581854Y136000D02*
X581971D01*
X579914Y139000D02*
X580133D01*
X580000Y138867D02*
Y139086D01*
X583000Y137029D02*
Y137146D01*
X588243Y139243D02*
X584000Y136500D01*
X587182Y138182*
X585500Y135000*
X588243Y139243*
X586029Y136000D02*
X586146D01*
X587867Y139000D02*
X588086D01*
X586000Y135773D02*
Y135946D01*
Y137557D02*
Y137793D01*
X760757Y139243D02*
X763500Y135000D01*
X761818Y138182*
X765000Y136500*
X760757Y139243*
X762854Y136000D02*
X762971D01*
X760914Y139000D02*
X761133D01*
X763000Y135773D02*
Y135946D01*
Y137557D02*
Y137793D01*
X394100Y116100D02*
X230900D01*
X222000Y125000*
X394100Y116100D02*
X403000Y125000D01*
X574800Y115800D02*
X412200D01*
X403000Y125000*
X574800Y115800D02*
X584000Y125000D01*
X584000*
X755900Y115900D02*
X593100D01*
X584000Y125000*
X755900Y115900D02*
X765000Y125000D01*
X222000Y135000D02*
X233300Y146300D01*
X288300*
X222000Y135000D02*
X217300Y139700D01*
X216700*
X173100Y183300*
Y220000*
X159600Y233500*
Y304800*
X403000Y135000D02*
X391700Y146300D01*
X288300*
X403000Y135000D02*
X413100Y145100D01*
X573900*
X584000Y135000*
X594000Y145000*
X765000Y135000D02*
X755500Y144500D01*
X656900Y145000D02*
X594000D01*
X656900Y144500D02*
X706200D01*
Y145000D02*
X656900D01*
X755500Y144500D02*
X755000Y145000D01*
X706200*
X755500Y144500D02*
X706200D01*
X288300Y294400D02*
X312900D01*
X325100Y306600*
X465800Y302100D02*
X500800D01*
X506200Y307500*
X654000Y302000D02*
X677200D01*
X681800*
X685200Y305400*
G54D56*
X194000Y179000D03*
X250000D03*
X375000D03*
X431000D03*
X556000D03*
X612000D03*
X737000D03*
X793000D03*
X210795Y257780D03*
X391795D03*
X572795D03*
X753795D03*
G74*
X0Y0D02*
M02*
