%
T1C.012F095S3
X01428Y02867
X01596Y03048
X01376Y03104
X03175Y03071
X03251Y03066
X02883Y02944
X03242Y028
X02996Y02794
X02883Y01463
X04658Y01452
X05037Y02786
X04658Y03021
X05062Y03075
X04979Y03076
X0654Y0302
X06599Y0282
X06569Y01445
X06863Y02795
X06772Y03053
X06852Y03054
X08419Y02826
T2C.031F197S55
X02108Y025778
X020194Y028664
X019194Y028861
X018194Y029058
X020194Y029254
X019194Y029451
X018194Y029648
X020194Y029845
X019194Y030042
X018194Y030239
X020194Y030435
X019194Y030632
X018194Y030829
X02108Y031715
X023245Y033715
X022654Y033715
X022064Y033715
X021473Y033715
X022457Y032715
X021867Y032715
X023048Y032715
X021276Y032715
X02167Y031715
X022851Y031715
X022261Y031715
X022064Y027778
X022654Y027778
X021473Y027778
X023245Y027778
X021276Y026778
X021867Y026778
X023048Y026778
X022457Y026778
X022851Y025778
X022261Y025778
X02167Y025778
X026131Y028664
X025131Y028861
X024162Y029058
X026131Y029254
X025131Y029451
X024162Y029648
X026131Y029845
X025131Y030042
X024162Y030239
X026131Y030435
X025131Y030632
X024131Y030829
X036294Y030829
X037294Y030632
X038294Y030435
X036294Y030239
X037294Y030042
X038294Y029845
X036294Y029648
X037294Y029451
X038294Y029254
X036294Y029058
X037294Y028861
X038294Y028664
X03918Y025778
X03977Y025778
X040361Y025778
X040951Y025778
X039376Y026778
X039967Y026778
X040557Y026778
X041148Y026778
X039573Y027778
X040164Y027778
X040754Y027778
X040361Y031715
X040951Y031715
X03918Y031715
X03977Y031715
X039376Y032715
X039967Y032715
X040557Y032715
X041148Y032715
X039573Y033715
X040754Y033715
X040164Y033715
X041345Y033715
X042231Y030829
X043231Y030632
X044231Y030435
X042262Y030239
X043231Y030042
X044231Y029845
X042262Y029648
X043231Y029451
X044231Y029254
X042262Y029058
X043231Y028861
X044231Y028664
X041345Y027778
X055394Y028861
X054394Y029058
X055394Y029451
X054394Y029648
X055394Y030042
X054394Y030239
X055394Y030632
X054394Y030829
X058264Y033715
X057673Y033715
X058657Y032715
X058067Y032715
X057476Y032715
X058461Y031715
X05787Y031715
X05728Y031715
X056394Y030435
X056394Y029845
X056394Y029254
X056394Y028664
X058264Y027778
X057673Y027778
X058067Y026778
X058657Y026778
X057476Y026778
X058461Y025778
X05787Y025778
X05728Y025778
X059051Y025778
X059248Y026778
X058854Y027778
X059445Y027778
X062331Y028664
X061331Y028861
X060362Y029058
X062331Y029254
X061331Y029451
X060362Y029648
X062331Y029845
X061331Y030042
X060362Y030239
X062331Y030435
X061331Y030632
X060331Y030829
X059051Y031715
X059248Y032715
X059445Y033715
X058854Y033715
X072494Y030829
X073494Y030632
X072494Y030239
X073494Y030042
X072494Y029648
X073494Y029451
X072494Y029058
X073494Y028861
X07538Y025778
X07597Y025778
X075576Y026778
X076167Y026778
X075773Y027778
X074494Y028664
X074494Y029254
X074494Y029845
X074494Y030435
X07597Y031715
X07538Y031715
X075576Y032715
X076167Y032715
X075773Y033715
X077545Y033715
X076954Y033715
X076364Y033715
X076757Y032715
X077348Y032715
X077151Y031715
X076561Y031715
X078431Y030829
X078462Y030239
X078462Y029648
X078462Y029058
X077545Y027778
X076364Y027778
X076954Y027778
X077348Y026778
X076757Y026778
X076561Y025778
X077151Y025778
X080431Y028664
X079431Y028861
X080431Y029254
X079431Y029451
X080431Y029845
X079431Y030042
X080431Y030435
X079431Y030632
T3C.035F197S55
X0194Y0169
X025Y0169
X025Y0179
X0194Y0179
X0375Y0179
X0431Y0179
X0375Y0169
X0431Y0169
X0556Y0169
X0612Y0169
X0612Y0179
X0556Y0179
X0737Y0179
X0737Y0169
X0793Y0169
X0793Y0179
T4C.04F139S55
X0212Y0125
X0202Y0125
X0202Y0135
X0212Y0135
X0202Y0459
X0212Y0459
X0202Y0469
X0212Y0469
X0222Y0469
X0232Y0469
X0242Y0469
X0222Y0459
X0232Y0459
X0242Y0459
X0242Y0135
X0232Y0135
X0222Y0135
X0242Y0125
X0232Y0125
X0222Y0125
X0383Y0125
X0383Y0135
X0383Y0459
X0383Y0469
X0393Y0469
X0403Y0469
X0413Y0469
X0423Y0469
X0393Y0459
X0403Y0459
X0413Y0459
X0423Y0459
X0423Y0135
X0413Y0135
X0393Y0135
X0403Y0135
X0423Y0125
X0413Y0125
X0393Y0125
X0403Y0125
X0584Y0125
X0574Y0125
X0564Y0125
X0584Y0135
X0564Y0135
X0574Y0135
X0564Y0459
X0574Y0459
X0584Y0459
X0574Y0469
X0564Y0469
X0584Y0469
X0594Y0469
X0604Y0469
X0594Y0459
X0604Y0459
X0594Y0135
X0604Y0135
X0594Y0125
X0604Y0125
X0755Y0125
X0745Y0125
X0745Y0135
X0755Y0135
X0745Y0459
X0755Y0459
X0745Y0469
X0755Y0469
X0765Y0469
X0775Y0469
X0785Y0469
X0765Y0459
X0775Y0459
X0785Y0459
X0765Y0135
X0775Y0135
X0785Y0135
X0765Y0125
X0775Y0125
X0785Y0125
T5C.126F035S794
X018422Y026006
X025902Y026006
X025902Y033487
X018422Y033487
X036522Y033487
X036522Y026006
X044002Y026006
X054622Y026006
X044002Y033487
X054622Y033487
X062102Y033487
X072722Y033487
X072722Y026006
X062102Y026006
X080202Y026006
X080202Y033487
M30
