*
*
G04 PADS 9.5 Build Number: 522968 generated Gerber (RS-274-X) file*
G04 PC Version=2.1*
*
%IN "ICP Gang Adapter, M058S"*%
*
%MOIN*%
*
%FSLAX35Y35*%
*
*
*
*
G04 PC Standard Apertures*
*
*
G04 Thermal Relief Aperture macro.*
%AMTER*
1,1,$1,0,0*
1,0,$1-$2,0,0*
21,0,$3,$4,0,0,45*
21,0,$3,$4,0,0,135*
%
*
*
G04 Annular Aperture macro.*
%AMANN*
1,1,$1,0,0*
1,0,$2,0,0*
%
*
*
G04 Odd Aperture macro.*
%AMODD*
1,1,$1,0,0*
1,0,$1-0.005,0,0*
%
*
*
G04 PC Custom Aperture Macros*
*
*
*
*
*
*
G04 PC Aperture Table*
*
%ADD016C,0.01*%
%ADD017C,0.005*%
%ADD021C,0.008*%
%ADD022C,0.006*%
%ADD037C,0.015*%
%ADD049C,0.001*%
*
*
*
*
G04 PC Circuitry*
G04 Layer Name ICP Gang Adapter, M058S - circuitry*
%LPD*%
*
*
G04 PC Custom Flashes*
G04 Layer Name ICP Gang Adapter, M058S - flashes*
%LPD*%
*
*
G04 PC Circuitry*
G04 Layer Name ICP Gang Adapter, M058S - circuitry*
%LPD*%
*
G54D16*
G01X198900Y164200D02*
G75*
G03X188900I-5000J9403D01*
G01X189100Y164000D02*
X199100D01*
X190000Y178000D02*
X187500D01*
Y175000*
X185500D02*
X190500D01*
X188000Y171500*
X187500Y172000*
X185500Y175000*
Y171000D02*
X190500D01*
X188000D02*
Y168000D01*
X190500*
X254900Y164200D02*
G03X244900I-5000J9403D01*
G01X245100Y164000D02*
X255100D01*
X246000Y178000D02*
X243500D01*
Y175000*
X241500D02*
X246500D01*
X244000Y171500*
X243500Y172000*
X241500Y175000*
Y171000D02*
X246500D01*
X244000D02*
Y168000D01*
X246500*
X379900Y164200D02*
G03X369900I-5000J9403D01*
G01X370100Y164000D02*
X380100D01*
X371000Y178000D02*
X368500D01*
Y175000*
X366500D02*
X371500D01*
X369000Y171500*
X368500Y172000*
X366500Y175000*
Y171000D02*
X371500D01*
X369000D02*
Y168000D01*
X371500*
X435900Y164200D02*
G03X425900I-5000J9403D01*
G01X426100Y164000D02*
X436100D01*
X427000Y178000D02*
X424500D01*
Y175000*
X422500D02*
X427500D01*
X425000Y171500*
X424500Y172000*
X422500Y175000*
Y171000D02*
X427500D01*
X425000D02*
Y168000D01*
X427500*
X560900Y164200D02*
G03X550900I-5000J9403D01*
G01X551100Y164000D02*
X561100D01*
X552000Y178000D02*
X549500D01*
Y175000*
X547500D02*
X552500D01*
X550000Y171500*
X549500Y172000*
X547500Y175000*
Y171000D02*
X552500D01*
X550000D02*
Y168000D01*
X552500*
X616900Y164200D02*
G03X606900I-5000J9403D01*
G01X607100Y164000D02*
X617100D01*
X608000Y178000D02*
X605500D01*
Y175000*
X603500D02*
X608500D01*
X606000Y171500*
X605500Y172000*
X603500Y175000*
Y171000D02*
X608500D01*
X606000D02*
Y168000D01*
X608500*
X741900Y164200D02*
G03X731900I-5000J9403D01*
G01X732100Y164000D02*
X742100D01*
X733000Y178000D02*
X730500D01*
Y175000*
X728500D02*
X733500D01*
X731000Y171500*
X730500Y172000*
X728500Y175000*
Y171000D02*
X733500D01*
X731000D02*
Y168000D01*
X733500*
X797900Y164200D02*
G03X787900I-5000J9403D01*
G01X788100Y164000D02*
X798100D01*
X789000Y178000D02*
X786500D01*
Y175000*
X784500D02*
X789500D01*
X787000Y171500*
X786500Y172000*
X784500Y175000*
Y171000D02*
X789500D01*
X787000D02*
Y168000D01*
X789500*
X209811Y285654D02*
Y309276D01*
X233433*
Y285654*
X209811*
X162567Y201008D02*
Y374237D01*
X280677*
Y201008*
X162567*
X184220D02*
Y218725D01*
X259024*
Y201008*
X390811Y285654D02*
Y309276D01*
X414433*
Y285654*
X390811*
X343567Y201008D02*
Y374237D01*
X461677*
Y201008*
X343567*
X365220D02*
Y218725D01*
X440024*
Y201008*
X571811Y285654D02*
Y309276D01*
X595433*
Y285654*
X571811*
X524567Y201008D02*
Y374237D01*
X642677*
Y201008*
X524567*
X546220D02*
Y218725D01*
X621024*
Y201008*
X752811Y285654D02*
Y309276D01*
X776433*
Y285654*
X752811*
X705567Y201008D02*
Y374237D01*
X823677*
Y201008*
X705567*
X727220D02*
Y218725D01*
X802024*
Y201008*
X123844Y467000D02*
X114000D01*
X121500Y458818D02*
X122438Y459159D01*
X122438D02*
X123375Y459841D01*
X123844Y460523*
Y461886*
X123375Y462568*
X122438Y463250*
X122438D02*
X121500Y463591D01*
X120094Y463932*
X117750*
X116344Y463591*
X115406Y463250*
X114469Y462568*
X114000Y461886*
Y460523*
X114469Y459841*
X115406Y459159*
X116344Y458818*
X123844Y455750D02*
X114000D01*
X123844D02*
Y452682D01*
X123375Y451659*
X122906Y451318*
X121969Y450977*
X120563*
X120563D02*
X119625Y451318D01*
X119156Y451659*
X118688Y452682*
X118688D02*
Y455750D01*
X121500Y434955D02*
X122438Y435295D01*
X122438D02*
X123375Y435977D01*
X123844Y436659*
Y438023*
X123375Y438705*
X122438Y439386*
X122438D02*
X121500Y439727D01*
X120094Y440068*
X117750*
X116344Y439727*
X115406Y439386*
X114469Y438705*
X114000Y438023*
Y436659*
X114469Y435977*
X115406Y435295*
X116344Y434955*
X117750*
Y436659D02*
Y434955D01*
X120563Y427795D02*
X114000D01*
X119156D02*
X120094Y428477D01*
X120563Y429159*
X120563D02*
Y430182D01*
X120563D02*
X120094Y430864D01*
X119156Y431545*
X117750Y431886*
X116813*
X116813D02*
X115406Y431545D01*
X114469Y430864*
X114000Y430182*
Y429159*
X114469Y428477*
X115406Y427795*
X120563Y424727D02*
X114000D01*
X118688D02*
X120094Y423705D01*
X120563Y423023*
X120563D02*
Y422000D01*
X120563D02*
X120094Y421318D01*
X118688Y420977*
X118688D02*
X114000D01*
X120563Y413818D02*
X113062D01*
X113062D02*
X111656Y414159D01*
X111187Y414500*
X111187D02*
X110719Y415182D01*
Y416205*
X111187Y416886*
X119156Y413818D02*
X120094Y414500D01*
X120563Y415182*
X120563D02*
Y416205D01*
X120563D02*
X120094Y416886D01*
X119156Y417568*
X117750Y417909*
X116813*
X116813D02*
X115406Y417568D01*
X114469Y416886*
X114000Y416205*
Y415182*
X114469Y414500*
X115406Y413818*
X123844Y400182D02*
X114000Y402909D01*
X123844Y400182D02*
X114000Y397455D01*
X117281Y401886D02*
Y398477D01*
X123844Y390295D02*
X114000D01*
X119156D02*
X120094Y390977D01*
X120563Y391659*
X120563D02*
Y392682D01*
X120563D02*
X120094Y393364D01*
X119156Y394045*
X117750Y394386*
X116813*
X116813D02*
X115406Y394045D01*
X114469Y393364*
X114000Y392682*
Y391659*
X114469Y390977*
X115406Y390295*
X120563Y383136D02*
X114000D01*
X119156D02*
X120094Y383818D01*
X120563Y384500*
X120563D02*
Y385523D01*
X120563D02*
X120094Y386205D01*
X119156Y386886*
X117750Y387227*
X116813*
X116813D02*
X115406Y386886D01*
X114469Y386205*
X114000Y385523*
Y384500*
X114469Y383818*
X115406Y383136*
X120563Y380068D02*
X110719D01*
X119156D02*
X120094Y379386D01*
X120563Y378705*
X120563D02*
Y377682D01*
X120563D02*
X120094Y377000D01*
X119156Y376318*
X117750Y375977*
X116813*
X116813D02*
X115406Y376318D01*
X114469Y377000*
X114000Y377682*
Y378705*
X114469Y379386*
X115406Y380068*
X123844Y371886D02*
X115875D01*
X114469Y371545*
X114000Y370864*
Y370182*
X120563Y372909D02*
Y370523D01*
X117750Y367114D02*
Y363023D01*
X118688*
X118688D02*
X119625Y363364D01*
X120094Y363705*
X120563Y364386*
X120563D02*
Y365409D01*
X120563D02*
X120094Y366091D01*
X119156Y366773*
X117750Y367114*
X116813*
X116813D02*
X115406Y366773D01*
X114469Y366091*
X114000Y365409*
Y364386*
X114469Y363705*
X115406Y363023*
X120563Y359955D02*
X114000D01*
X117750D02*
X119156Y359614D01*
X120094Y358932*
X120563Y358250*
X120563D02*
Y357227D01*
X114469Y353477D02*
X114000Y353818D01*
X114469Y354159*
X114938Y353818*
X114938D02*
X114469Y353477D01*
X113531*
X112594Y353818*
X112125Y354159*
X123844Y342568D02*
X114000D01*
X123844D02*
X114000Y339841D01*
X123844Y337114D02*
X114000Y339841D01*
X123844Y337114D02*
X114000D01*
X123844Y332000D02*
X123375Y333023D01*
X121969Y333705*
X119625Y334045*
X118219*
X115875Y333705*
X114469Y333023*
X114000Y332000*
Y331318*
X114469Y330295*
X115875Y329614*
X118219Y329273*
X119625*
X121969Y329614*
X123375Y330295*
X123844Y331318*
Y332000*
Y321773D02*
Y325182D01*
X119625Y325523*
X120094Y325182*
X120563Y324159*
X120563D02*
Y323136D01*
X120563D02*
X120094Y322114D01*
X119156Y321432*
X117750Y321091*
X116813Y321432*
X116813D02*
X115406Y321773D01*
X114469Y322455*
X114000Y323477*
Y324500*
X114469Y325523*
X114938Y325864*
X114938D02*
X115875Y326205D01*
X123844Y316318D02*
X123375Y317341D01*
X122438Y317682*
X122438D02*
X121500D01*
X120563Y317341*
X120563D02*
X120094Y316659D01*
X119625Y315295*
X119156Y314273*
X118219Y313591*
X117281Y313250*
X115875*
X114938Y313591*
X114938D02*
X114469Y313932D01*
X114000Y314955*
Y316318*
X114469Y317341*
X114938Y317682*
X114938D02*
X115875Y318023D01*
X117281*
X118219Y317682*
X119156Y317000*
X119625Y315977*
X120094Y314614*
X120563Y313932*
X120563D02*
X121500Y313591D01*
X122438*
X122438D02*
X123375Y313932D01*
X123844Y314955*
Y316318*
X122438Y305409D02*
X123375Y306091D01*
X123844Y307114*
Y308477*
X123375Y309500*
X122438Y310182*
X122438D02*
X121500D01*
X120563Y309841*
X120563D02*
X120094Y309500D01*
X119625Y308818*
X118688Y306773*
X118688D02*
X118219Y306091D01*
X117750Y305750*
X116813Y305409*
X116813D02*
X115406D01*
X114469Y306091*
X114000Y307114*
Y308477*
X114469Y309500*
X115406Y310182*
X123844Y294500D02*
X114000D01*
Y290409*
X125719Y277114D02*
X124781Y277795D01*
X123375Y278477*
X121500Y279159*
X119156Y279500*
X117281*
X114938Y279159*
X114938D02*
X113062Y278477D01*
X113062D02*
X111656Y277795D01*
X110719Y277114*
X123844Y274045D02*
X114000D01*
Y269955*
X123844Y264841D02*
X123375Y265523D01*
X122438Y266205*
X122438D02*
X121500Y266545D01*
X120094Y266886*
X117750*
X116344Y266545*
X115406Y266205*
X114469Y265523*
X114000Y264841*
Y263477*
X114469Y262795*
X115406Y262114*
X116344Y261773*
X117750Y261432*
X120094*
X121500Y261773*
X122438Y262114*
X122438D02*
X123375Y262795D01*
X123844Y263477*
Y264841*
X115875Y263818D02*
X113062Y261773D01*
X123844Y258364D02*
X114000D01*
X123844D02*
Y253932D01*
X119156Y258364D02*
Y255636D01*
X123844Y250864D02*
X114000D01*
X123844D02*
Y247795D01*
X123375Y246773*
X122906Y246432*
X121969Y246091*
X120563*
X120563D02*
X119625Y246432D01*
X119156Y246773*
X118688Y247795*
X118688D02*
Y250864D01*
X123844Y239614D02*
X117281Y243023D01*
Y237909*
X123844Y239614D02*
X114000D01*
X123844Y233136D02*
X123375Y234159D01*
X122438Y234500*
X122438D02*
X121500D01*
X120563Y234159*
X120563D02*
X120094Y233477D01*
X119625Y232114*
X119156Y231091*
X118219Y230409*
X117281Y230068*
X115875*
X114938Y230409*
X114938D02*
X114469Y230750D01*
X114000Y231773*
Y233136*
X114469Y234159*
X114938Y234500*
X114938D02*
X115875Y234841D01*
X117281*
X118219Y234500*
X119156Y233818*
X119625Y232795*
X120094Y231432*
X120563Y230750*
X120563D02*
X121500Y230409D01*
X122438*
X122438D02*
X123375Y230750D01*
X123844Y231773*
Y233136*
X125719Y227000D02*
X124781Y226318D01*
X123375Y225636*
X121500Y224955*
X119156Y224614*
X117281*
X114938Y224955*
X114938D02*
X113062Y225636D01*
X113062D02*
X111656Y226318D01*
X110719Y227000*
X100000Y100000D02*
X887000D01*
Y494000*
X100000*
Y100000*
G54D17*
X190000Y190281D02*
Y187000D01*
X191364*
X192386Y190281D02*
Y187000D01*
Y190281D02*
X193864D01*
X192386Y188719D02*
X193295D01*
X192386Y187000D02*
X193864D01*
X194886Y190281D02*
Y187000D01*
Y190281D02*
X195682D01*
X196023Y190125*
X196250Y189813*
X196250D02*
X196364Y189500D01*
X196477Y189031*
Y188250*
X196364Y187781*
X196250Y187469*
X196023Y187156*
X195682Y187000*
X194886*
X197500Y189656D02*
X197727Y189813D01*
X197727D02*
X198068Y190281D01*
Y187000*
X246000Y190281D02*
Y187000D01*
X247364*
X248386Y190281D02*
Y187000D01*
Y190281D02*
X249864D01*
X248386Y188719D02*
X249295D01*
X248386Y187000D02*
X249864D01*
X250886Y190281D02*
Y187000D01*
Y190281D02*
X251682D01*
X252023Y190125*
X252250Y189813*
X252250D02*
X252364Y189500D01*
X252477Y189031*
Y188250*
X252364Y187781*
X252250Y187469*
X252023Y187156*
X251682Y187000*
X250886*
X253614Y189500D02*
Y189656D01*
X253727Y189969*
X253841Y190125*
X254068Y190281*
X254523*
X254750Y190125*
X254864Y189969*
X254977Y189656*
Y189344*
X254864Y189031*
X254636Y188563*
X254636D02*
X253500Y187000D01*
X255091*
X370000Y190281D02*
Y187000D01*
X371364*
X372386Y190281D02*
Y187000D01*
Y190281D02*
X373864D01*
X372386Y188719D02*
X373295D01*
X372386Y187000D02*
X373864D01*
X374886Y190281D02*
Y187000D01*
Y190281D02*
X375682D01*
X376023Y190125*
X376250Y189813*
X376250D02*
X376364Y189500D01*
X376477Y189031*
Y188250*
X376364Y187781*
X376250Y187469*
X376023Y187156*
X375682Y187000*
X374886*
X377727Y190281D02*
X378977D01*
X378295Y189031*
X378636*
X378864Y188875*
X378977Y188719*
X379091Y188250*
Y187938*
X379091D02*
X378977Y187469D01*
X378750Y187156*
X378409Y187000*
X378068*
X377727Y187156*
X377614Y187313*
X377614D02*
X377500Y187625D01*
X428000Y190281D02*
Y187000D01*
X429364*
X430386Y190281D02*
Y187000D01*
Y190281D02*
X431864D01*
X430386Y188719D02*
X431295D01*
X430386Y187000D02*
X431864D01*
X432886Y190281D02*
Y187000D01*
Y190281D02*
X433682D01*
X434023Y190125*
X434250Y189813*
X434250D02*
X434364Y189500D01*
X434477Y189031*
Y188250*
X434364Y187781*
X434250Y187469*
X434023Y187156*
X433682Y187000*
X432886*
X436636Y190281D02*
X435500Y188094D01*
X437205*
X436636Y190281D02*
Y187000D01*
X552000Y190281D02*
Y187000D01*
X553364*
X554386Y190281D02*
Y187000D01*
Y190281D02*
X555864D01*
X554386Y188719D02*
X555295D01*
X554386Y187000D02*
X555864D01*
X556886Y190281D02*
Y187000D01*
Y190281D02*
X557682D01*
X558023Y190125*
X558250Y189813*
X558250D02*
X558364Y189500D01*
X558477Y189031*
Y188250*
X558364Y187781*
X558250Y187469*
X558023Y187156*
X557682Y187000*
X556886*
X560977Y190281D02*
X559841D01*
X559727Y188875*
X559841Y189031*
X560182Y189188*
X560182D02*
X560523D01*
X560523D02*
X560864Y189031D01*
X561091Y188719*
X561205Y188250*
X561091Y187938*
X561091D02*
X560977Y187469D01*
X560750Y187156*
X560409Y187000*
X560068*
X559727Y187156*
X559614Y187313*
X559614D02*
X559500Y187625D01*
X608000Y190281D02*
Y187000D01*
X609364*
X610386Y190281D02*
Y187000D01*
Y190281D02*
X611864D01*
X610386Y188719D02*
X611295D01*
X610386Y187000D02*
X611864D01*
X612886Y190281D02*
Y187000D01*
Y190281D02*
X613682D01*
X614023Y190125*
X614250Y189813*
X614250D02*
X614364Y189500D01*
X614477Y189031*
Y188250*
X614364Y187781*
X614250Y187469*
X614023Y187156*
X613682Y187000*
X612886*
X616864Y189813D02*
X616750Y190125D01*
X616409Y190281*
X616182*
X615841Y190125*
X615614Y189656*
X615500Y188875*
Y188094*
X615614Y187469*
X615841Y187156*
X616182Y187000*
X616295*
X616636Y187156*
X616864Y187469*
X616977Y187938*
X616977D02*
Y188094D01*
X616864Y188563*
X616864D02*
X616636Y188875D01*
X616295Y189031*
X616182*
X615841Y188875*
X615614Y188563*
X615614D02*
X615500Y188094D01*
X732000Y190281D02*
Y187000D01*
X733364*
X734386Y190281D02*
Y187000D01*
Y190281D02*
X735864D01*
X734386Y188719D02*
X735295D01*
X734386Y187000D02*
X735864D01*
X736886Y190281D02*
Y187000D01*
Y190281D02*
X737682D01*
X738023Y190125*
X738250Y189813*
X738250D02*
X738364Y189500D01*
X738477Y189031*
Y188250*
X738364Y187781*
X738250Y187469*
X738023Y187156*
X737682Y187000*
X736886*
X741091Y190281D02*
X739955Y187000D01*
X739500Y190281D02*
X741091D01*
X788000D02*
Y187000D01*
X789364*
X790386Y190281D02*
Y187000D01*
Y190281D02*
X791864D01*
X790386Y188719D02*
X791295D01*
X790386Y187000D02*
X791864D01*
X792886Y190281D02*
Y187000D01*
Y190281D02*
X793682D01*
X794023Y190125*
X794250Y189813*
X794250D02*
X794364Y189500D01*
X794477Y189031*
Y188250*
X794364Y187781*
X794250Y187469*
X794023Y187156*
X793682Y187000*
X792886*
X796068Y190281D02*
X795727Y190125D01*
X795614Y189813*
X795614D02*
Y189500D01*
X795727Y189188*
X795727D02*
X795955Y189031D01*
X796409Y188875*
X796750Y188719*
X796977Y188406*
X797091Y188094*
Y187625*
X796977Y187313*
X796977D02*
X796864Y187156D01*
X796523Y187000*
X796068*
X795727Y187156*
X795614Y187313*
X795614D02*
X795500Y187625D01*
Y188094*
X795614Y188406*
X795841Y188719*
X796182Y188875*
X796636Y189031*
X796864Y189188*
X796864D02*
X796977Y189500D01*
Y189813*
X796977D02*
X796864Y190125D01*
X796523Y190281*
X796068*
X277900Y214781D02*
Y212438D01*
X277900D02*
X278014Y211969D01*
X278241Y211656*
X278582Y211500*
X278809*
X279150Y211656*
X279377Y211969*
X279491Y212438*
X279491D02*
Y214781D01*
X280514Y214156D02*
X280741Y214313D01*
X280741D02*
X281082Y214781D01*
Y211500*
X453000Y213681D02*
Y211338D01*
X453000D02*
X453114Y210869D01*
X453341Y210556*
X453682Y210400*
X453909*
X454250Y210556*
X454477Y210869*
X454591Y211338*
X454591D02*
Y213681D01*
X455727Y212900D02*
Y213056D01*
X455841Y213369*
X455955Y213525*
X456182Y213681*
X456636*
X456864Y213525*
X456977Y213369*
X457091Y213056*
Y212744*
X456977Y212431*
X456750Y211963*
X456750D02*
X455614Y210400D01*
X457205*
X641800Y215581D02*
Y213238D01*
X641800D02*
X641914Y212769D01*
X642141Y212456*
X642482Y212300*
X642709*
X643050Y212456*
X643277Y212769*
X643391Y213238*
X643391D02*
Y215581D01*
X644641D02*
X645891D01*
X645209Y214331*
X645550*
X645777Y214175*
X645891Y214019*
X646005Y213550*
Y213238*
X646005D02*
X645891Y212769D01*
X645664Y212456*
X645323Y212300*
X644982*
X644641Y212456*
X644527Y212613*
X644527D02*
X644414Y212925D01*
X820200Y216281D02*
Y213938D01*
X820200D02*
X820314Y213469D01*
X820541Y213156*
X820882Y213000*
X821109*
X821450Y213156*
X821677Y213469*
X821791Y213938*
X821791D02*
Y216281D01*
X823950D02*
X822814Y214094D01*
X824518*
X823950Y216281D02*
Y213000D01*
G54D21*
X297600Y284800D02*
X296600Y285800D01*
Y294800*
X297600Y295800*
X301600*
X302600Y294800*
Y285800*
X301600Y284800*
X297600*
X300600Y290300D02*
G03X300600I-1000J0D01*
G01X476100Y266100D02*
X475100Y267100D01*
Y276100*
X476100Y277100*
X480100*
X481100Y276100*
Y267100*
X480100Y266100*
X476100*
X479100Y271600D02*
G03X479100I-1000J0D01*
G01X657900Y285300D02*
X656900Y286300D01*
Y295300*
X657900Y296300*
X661900*
X662900Y295300*
Y286300*
X661900Y285300*
X657900*
X660900Y290800D02*
G03X660900I-1000J0D01*
G01X839900Y286200D02*
X838900Y287200D01*
Y296200*
X839900Y297200*
X843900*
X844900Y296200*
Y287200*
X843900Y286200*
X839900*
X842900Y291700D02*
G03X842900I-1000J0D01*
G01X139600Y307300D02*
X140600Y306300D01*
Y297300*
X139600Y296300*
X135600*
X134600Y297300*
Y306300*
X135600Y307300*
X139600*
X138600Y301800D02*
G03X138600I-1000J0D01*
G01X319500Y302400D02*
X320500Y301400D01*
Y292400*
X319500Y291400*
X315500*
X314500Y292400*
Y301400*
X315500Y302400*
X319500*
X318500Y296900D02*
G03X318500I-1000J0D01*
G01X499900Y302900D02*
X500900Y301900D01*
Y292900*
X499900Y291900*
X495900*
X494900Y292900*
Y301900*
X495900Y302900*
X499900*
X498900Y297400D02*
G03X498900I-1000J0D01*
G01X679200Y302100D02*
X680200Y301100D01*
Y292100*
X679200Y291100*
X675200*
X674200Y292100*
Y301100*
X675200Y302100*
X679200*
X678200Y296600D02*
G03X678200I-1000J0D01*
G54D22*
G01X140300Y271300D02*
Y283300D01*
X145300*
Y271300*
X140300*
X142539Y277300D02*
G03X142539I-539J0D01*
G01X144139D02*
G03X144139I-539J0D01*
G01X143339D02*
G03X143339I-539J0D01*
G01X147600Y307800D02*
Y295800D01*
X142600*
Y307800*
X147600*
X146439Y301800D02*
G03X146439I-539J0D01*
G01X144839D02*
G03X144839I-539J0D01*
G01X145639D02*
G03X145639I-539J0D01*
G01X321700Y265600D02*
Y277600D01*
X326700*
Y265600*
X321700*
X323939Y271600D02*
G03X323939I-539J0D01*
G01X325539D02*
G03X325539I-539J0D01*
G01X324739D02*
G03X324739I-539J0D01*
G01X327600Y303000D02*
Y291000D01*
X322600*
Y303000*
X327600*
X326439Y297000D02*
G03X326439I-539J0D01*
G01X324839D02*
G03X324839I-539J0D01*
G01X325639D02*
G03X325639I-539J0D01*
G01X501200Y263500D02*
Y275500D01*
X506200*
Y263500*
X501200*
X503439Y269500D02*
G03X503439I-539J0D01*
G01X505039D02*
G03X505039I-539J0D01*
G01X504239D02*
G03X504239I-539J0D01*
G01X508700Y303100D02*
Y291100D01*
X503700*
Y303100*
X508700*
X507539Y297100D02*
G03X507539I-539J0D01*
G01X505939D02*
G03X505939I-539J0D01*
G01X506739D02*
G03X506739I-539J0D01*
G01X683800Y265000D02*
Y277000D01*
X688800*
Y265000*
X683800*
X686039Y271000D02*
G03X686039I-539J0D01*
G01X687639D02*
G03X687639I-539J0D01*
G01X686839D02*
G03X686839I-539J0D01*
G01X687700Y302500D02*
Y290500D01*
X682700*
Y302500*
X687700*
X686539Y296500D02*
G03X686539I-539J0D01*
G01X684939D02*
G03X684939I-539J0D01*
G01X685739D02*
G03X685739I-539J0D01*
G01X298200Y300045D02*
X297825Y299909D01*
X297450Y299636*
X297262Y299364*
Y298818*
X297450Y298545*
X297825Y298273*
X298200Y298136*
X298762Y298000*
X299700*
X300262Y298136*
X300637Y298273*
X301012Y298545*
X301200Y298818*
Y299364*
X301012Y299636*
X300637Y299909*
X300262Y300045*
X298012Y301273D02*
X297825Y301545D01*
X297262Y301955*
X301200*
X476300Y281045D02*
X475925Y280909D01*
X475550Y280636*
X475362Y280364*
Y279818*
X475550Y279545*
X475925Y279273*
X476300Y279136*
X476862Y279000*
X477800*
X478362Y279136*
X478737Y279273*
X479112Y279545*
X479300Y279818*
Y280364*
X479112Y280636*
X478737Y280909*
X478362Y281045*
X476300Y282409D02*
X476112D01*
X475737Y282545*
X475550Y282682*
X475362Y282955*
Y283500*
X475550Y283773*
X475737Y283909*
X476112Y284045*
X476487*
X476862Y283909*
X477425Y283636*
X479300Y282273*
Y284182*
X658300Y300045D02*
X657925Y299909D01*
X657550Y299636*
X657362Y299364*
Y298818*
X657550Y298545*
X657925Y298273*
X658300Y298136*
X658862Y298000*
X659800*
X660362Y298136*
X660737Y298273*
X661112Y298545*
X661300Y298818*
Y299364*
X661112Y299636*
X660737Y299909*
X660362Y300045*
X657362Y301545D02*
Y303045D01*
X658862Y302227*
Y302636*
X659050Y302909*
X659237Y303045*
X659800Y303182*
X660175*
X660737Y303045*
X661112Y302773*
X661300Y302364*
Y301955*
X661112Y301545*
X660925Y301409*
X660550Y301273*
X840400Y301045D02*
X840025Y300909D01*
X839650Y300636*
X839462Y300364*
Y299818*
X839650Y299545*
X840025Y299273*
X840400Y299136*
X840962Y299000*
X841900*
X842462Y299136*
X842837Y299273*
X843212Y299545*
X843400Y299818*
Y300364*
X843212Y300636*
X842837Y300909*
X842462Y301045*
X839462Y303636D02*
X842087Y302273D01*
Y304318*
X839462Y303636D02*
X843400D01*
X129600Y298245D02*
X129225Y298109D01*
X128850Y297836*
X128662Y297564*
X128662D02*
Y297018D01*
X128662D02*
X128850Y296745D01*
X129225Y296473*
X129600Y296336*
X130162Y296200*
X130162D02*
X131100D01*
X131662Y296336*
X131662D02*
X132037Y296473D01*
X132037D02*
X132412Y296745D01*
X132412D02*
X132600Y297018D01*
Y297564*
X132412Y297836*
X132412D02*
X132037Y298109D01*
X132037D02*
X131662Y298245D01*
X128662Y301245D02*
Y299882D01*
X128662D02*
X130350Y299745D01*
X130162Y299882*
X130162D02*
X129975Y300291D01*
Y300700*
X130162Y301109*
X130162D02*
X130537Y301382D01*
X130537D02*
X131100Y301518D01*
X131475Y301382*
X132037Y301245*
X132037D02*
X132412Y300973D01*
X132412D02*
X132600Y300564D01*
Y300155*
X132412Y299745*
X132412D02*
X132225Y299609D01*
X131850Y299473*
X309500Y293345D02*
X309125Y293209D01*
X308750Y292936*
X308562Y292664*
X308562D02*
Y292118D01*
X308562D02*
X308750Y291845D01*
X309125Y291573*
X309500Y291436*
X310062Y291300*
X310062D02*
X311000D01*
X311562Y291436*
X311562D02*
X311937Y291573D01*
X311937D02*
X312312Y291845D01*
X312312D02*
X312500Y292118D01*
Y292664*
X312312Y292936*
X312312D02*
X311937Y293209D01*
X311937D02*
X311562Y293345D01*
X309125Y296209D02*
X308750Y296073D01*
X308562Y295664*
X308562D02*
Y295391D01*
X308562D02*
X308750Y294982D01*
X309312Y294709*
X309312D02*
X310250Y294573D01*
X311187*
X311187D02*
X311937Y294709D01*
X311937D02*
X312312Y294982D01*
X312312D02*
X312500Y295391D01*
Y295527*
X312312Y295936*
X312312D02*
X311937Y296209D01*
X311937D02*
X311375Y296345D01*
X311187*
X311187D02*
X310625Y296209D01*
X310250Y295936*
X310062Y295527*
X310062D02*
Y295391D01*
X310062D02*
X310250Y294982D01*
X310625Y294709*
X311187Y294573*
X489900Y293845D02*
X489525Y293709D01*
X489150Y293436*
X488962Y293164*
X488962D02*
Y292618D01*
X488962D02*
X489150Y292345D01*
X489525Y292073*
X489900Y291936*
X490462Y291800*
X490462D02*
X491400D01*
X491962Y291936*
X491962D02*
X492337Y292073D01*
X492337D02*
X492712Y292345D01*
X492712D02*
X492900Y292618D01*
Y293164*
X492712Y293436*
X492712D02*
X492337Y293709D01*
X492337D02*
X491962Y293845D01*
X488962Y296982D02*
X492900Y295618D01*
X488962Y295073D02*
Y296982D01*
X669200Y293045D02*
X668825Y292909D01*
X668450Y292636*
X668262Y292364*
X668262D02*
Y291818D01*
X668262D02*
X668450Y291545D01*
X668825Y291273*
X669200Y291136*
X669762Y291000*
X669762D02*
X670700D01*
X671262Y291136*
X671262D02*
X671637Y291273D01*
X671637D02*
X672012Y291545D01*
X672012D02*
X672200Y291818D01*
Y292364*
X672012Y292636*
X672012D02*
X671637Y292909D01*
X671637D02*
X671262Y293045D01*
X668262Y294955D02*
X668450Y294545D01*
X668825Y294409*
X669200*
X669575Y294545*
X669762Y294818*
X669762D02*
X669950Y295364D01*
X670137Y295773*
X670137D02*
X670512Y296045D01*
X670512D02*
X670887Y296182D01*
X670887D02*
X671450D01*
X671825Y296045*
X672012Y295909*
X672012D02*
X672200Y295500D01*
Y294955*
X672012Y294545*
X672012D02*
X671825Y294409D01*
X671450Y294273*
X670887*
X670887D02*
X670512Y294409D01*
X670512D02*
X670137Y294682D01*
X670137D02*
X669950Y295091D01*
X669762Y295636*
X669762D02*
X669575Y295909D01*
X669200Y296045*
X668825*
X668450Y295909*
X668262Y295500*
X668262D02*
Y294955D01*
X133862Y275200D02*
X137800D01*
Y276836*
X134612Y278064D02*
X134425Y278336D01*
X133862Y278745*
X133862D02*
X137800D01*
X142962Y310700D02*
X146900D01*
Y312336*
X143900Y313700D02*
X143712D01*
X143337Y313836*
X143150Y313973*
X142962Y314245*
Y314791*
X143150Y315064*
X143337Y315200*
X143712Y315336*
X144087*
X144462Y315200*
X145025Y314927*
X146900Y313564*
Y315473*
X314962Y269300D02*
X318900D01*
Y270936*
X314962Y272436D02*
Y273936D01*
X314962D02*
X316462Y273118D01*
X316462D02*
Y273527D01*
X316462D02*
X316650Y273800D01*
X316837Y273936*
X316837D02*
X317400Y274073D01*
X317775*
X318337Y273936*
X318337D02*
X318712Y273664D01*
X318712D02*
X318900Y273255D01*
Y272845*
X318712Y272436*
X318712D02*
X318525Y272300D01*
X318150Y272164*
X323362Y305000D02*
X327300D01*
Y306636*
X323362Y309227D02*
X325987Y307864D01*
Y309909*
X323362Y309227D02*
X327300D01*
X494862Y267400D02*
X498800D01*
Y269036*
X494862Y272036D02*
Y270673D01*
X494862D02*
X496550Y270536D01*
X496362Y270673*
X496362D02*
X496175Y271082D01*
Y271491*
X496362Y271900*
X496362D02*
X496737Y272173D01*
X496737D02*
X497300Y272309D01*
X497675Y272173*
X498237Y272036*
X498237D02*
X498612Y271764D01*
X498612D02*
X498800Y271355D01*
Y270945*
X498612Y270536*
X498612D02*
X498425Y270400D01*
X498050Y270264*
X503762Y305000D02*
X507700D01*
Y306636*
X504325Y309500D02*
X503950Y309364D01*
X503762Y308955*
Y308682*
X503950Y308273*
X504512Y308000*
X505450Y307864*
X506387*
X507137Y308000*
X507512Y308273*
X507700Y308682*
Y308818*
X507512Y309227*
X507137Y309500*
X506575Y309636*
X506387*
X505825Y309500*
X505450Y309227*
X505262Y308818*
Y308682*
X505450Y308273*
X505825Y308000*
X506387Y307864*
X678362Y269100D02*
X682300D01*
Y270736*
X678362Y273873D02*
X682300Y272509D01*
X678362Y271964D02*
Y273873D01*
X683062Y305600D02*
X687000D01*
Y307236*
X683062Y309145D02*
X683250Y308736D01*
X683625Y308600*
X684000*
X684375Y308736*
X684562Y309009*
X684750Y309555*
X684937Y309964*
X685312Y310236*
X685687Y310373*
X686250*
X686625Y310236*
X686812Y310100*
X687000Y309691*
Y309145*
X686812Y308736*
X686625Y308600*
X686250Y308464*
X685687*
X685312Y308600*
X684937Y308873*
X684750Y309282*
X684562Y309827*
X684375Y310100*
X684000Y310236*
X683625*
X683250Y310100*
X683062Y309691*
Y309145*
G54D37*
X217636Y176625D02*
X214455Y156625D01*
X220364Y176625D02*
X217182Y156625D01*
X214455Y168500D02*
X220818D01*
X214000Y164750D02*
X220364D01*
X224909Y171625D02*
X225818Y172250D01*
X227182Y174125*
Y161000*
X397636Y178625D02*
X394455Y158625D01*
X400364Y178625D02*
X397182Y158625D01*
X394455Y170500D02*
X400818D01*
X394000Y166750D02*
X400364D01*
X405364Y173000D02*
Y173625D01*
X405818Y174875*
X406273Y175500*
X407182Y176125*
X409000*
X409909Y175500*
X410364Y174875*
X410818Y173625*
Y172375*
X410364Y171125*
X409455Y169250*
X404909Y163000*
X411273*
X577636Y176625D02*
X574455Y156625D01*
X580364Y176625D02*
X577182Y156625D01*
X574455Y168500D02*
X580818D01*
X574000Y164750D02*
X580364D01*
X585818Y174125D02*
X590818D01*
X588091Y169125*
X589455*
X590364Y168500*
X590818Y167875*
X591273Y166000*
Y164750*
X590818Y162875*
X589909Y161625*
X588545Y161000*
X587182*
X585818Y161625*
X585364Y162250*
X584909Y163500*
X759636Y176625D02*
X756455Y156625D01*
X762364Y176625D02*
X759182Y156625D01*
X756455Y168500D02*
X762818D01*
X756000Y164750D02*
X762364D01*
X771455Y174125D02*
X766909Y165375D01*
X773727*
X771455Y174125D02*
Y161000D01*
G54D49*
X145000Y394000D02*
Y385800D01*
X144800Y395400D02*
Y384200D01*
X144600Y396400D02*
Y383200D01*
X144400Y397200D02*
Y382400D01*
X144200Y397800D02*
Y381800D01*
X144000Y398400D02*
Y381200D01*
X143800Y398600D02*
Y381200D01*
X143600Y398600D02*
Y381200D01*
X143400Y398600D02*
Y381200D01*
X143200Y460600D02*
Y458400D01*
Y398600D02*
Y381200D01*
Y355400D02*
Y353200D01*
X143000Y462200D02*
Y456800D01*
Y409200D02*
Y404000D01*
Y398600D02*
Y381200D01*
Y375800D02*
Y370600D01*
Y357000D02*
Y351600D01*
X142800Y463200D02*
Y456000D01*
Y449400D02*
Y444600D01*
Y437800D02*
Y433000D01*
Y431800D02*
Y427400D01*
Y419600D02*
Y415200D01*
Y410000D02*
Y403000D01*
Y398600D02*
Y381200D01*
Y376800D02*
Y369600D01*
Y357800D02*
Y350600D01*
X142600Y463800D02*
Y455200D01*
Y449400D02*
Y444600D01*
Y437800D02*
Y433000D01*
Y431800D02*
Y427400D01*
Y419800D02*
Y415200D01*
Y410800D02*
Y402400D01*
Y398600D02*
Y381200D01*
Y377400D02*
Y369000D01*
Y358400D02*
Y350000D01*
X142400Y464400D02*
Y454800D01*
Y449400D02*
Y444600D01*
Y437800D02*
Y433000D01*
Y431800D02*
Y427200D01*
Y419800D02*
Y415400D01*
Y411200D02*
Y401800D01*
Y398600D02*
Y381200D01*
Y378000D02*
Y368400D01*
Y359000D02*
Y349400D01*
X142200Y464800D02*
Y454400D01*
Y449400D02*
Y444600D01*
Y437800D02*
Y433000D01*
Y431600D02*
Y427000D01*
Y420000D02*
Y415400D01*
Y411800D02*
Y401200D01*
Y398600D02*
Y381200D01*
Y378400D02*
Y368000D01*
Y359400D02*
Y349000D01*
X142000Y465200D02*
Y454000D01*
Y449400D02*
Y444600D01*
Y437800D02*
Y433000D01*
Y431400D02*
Y427000D01*
Y420200D02*
Y415600D01*
Y412000D02*
Y400800D01*
Y392200D02*
Y387400D01*
Y378800D02*
Y367600D01*
Y359800D02*
Y348600D01*
X141800Y465600D02*
Y453600D01*
Y449400D02*
Y444600D01*
Y437800D02*
Y433000D01*
Y431400D02*
Y426800D01*
Y420200D02*
Y415600D01*
Y412400D02*
Y400600D01*
Y392200D02*
Y387400D01*
Y379200D02*
Y367200D01*
Y360200D02*
Y348400D01*
X141600Y465800D02*
Y453400D01*
Y449400D02*
Y444600D01*
Y437800D02*
Y433000D01*
Y431200D02*
Y426800D01*
Y420400D02*
Y415800D01*
Y412800D02*
Y400200D01*
Y392200D02*
Y387400D01*
Y379400D02*
Y367000D01*
Y360400D02*
Y348000D01*
X141400Y466000D02*
Y453000D01*
Y449400D02*
Y444600D01*
Y437800D02*
Y433000D01*
Y431200D02*
Y426600D01*
Y420400D02*
Y416000D01*
Y413000D02*
Y400000D01*
Y392200D02*
Y387400D01*
Y379800D02*
Y366600D01*
Y360800D02*
Y347800D01*
X141200Y466200D02*
Y452800D01*
Y449400D02*
Y444600D01*
Y437800D02*
Y433000D01*
Y431000D02*
Y426400D01*
Y420600D02*
Y416000D01*
Y413200D02*
Y399800D01*
Y392200D02*
Y387400D01*
Y380000D02*
Y366400D01*
Y361000D02*
Y347600D01*
X141000Y466400D02*
Y452600D01*
Y449400D02*
Y444600D01*
Y437800D02*
Y433000D01*
Y431000D02*
Y426400D01*
Y420600D02*
Y416200D01*
Y413600D02*
Y399400D01*
Y392200D02*
Y387400D01*
Y380200D02*
Y366200D01*
Y361200D02*
Y347400D01*
X140800Y466600D02*
Y452400D01*
Y449400D02*
Y444600D01*
Y437800D02*
Y433000D01*
Y430800D02*
Y426200D01*
Y420800D02*
Y416200D01*
Y413800D02*
Y399200D01*
Y392200D02*
Y387400D01*
Y380400D02*
Y366000D01*
Y361400D02*
Y347200D01*
X140600Y466800D02*
Y452200D01*
Y449400D02*
Y444600D01*
Y437800D02*
Y433000D01*
Y430600D02*
Y426200D01*
Y421000D02*
Y416400D01*
Y414000D02*
Y399000D01*
Y392200D02*
Y387400D01*
Y380600D02*
Y365800D01*
Y361600D02*
Y347000D01*
X140400Y467000D02*
Y452200D01*
Y449400D02*
Y444600D01*
Y437800D02*
Y433000D01*
Y430600D02*
Y426000D01*
Y421000D02*
Y416600D01*
Y414000D02*
Y399000D01*
Y392200D02*
Y387400D01*
Y380800D02*
Y365600D01*
Y361600D02*
Y346800D01*
X140200Y467200D02*
Y452000D01*
Y449400D02*
Y444600D01*
Y437800D02*
Y433000D01*
Y430400D02*
Y425800D01*
Y421200D02*
Y416600D01*
Y414200D02*
Y398800D01*
Y392200D02*
Y387400D01*
Y381000D02*
Y365400D01*
Y361800D02*
Y346600D01*
X140000Y467200D02*
Y460600D01*
Y458600D02*
Y452000D01*
Y449400D02*
Y444600D01*
Y437800D02*
Y433000D01*
Y430400D02*
Y425800D01*
Y421200D02*
Y416800D01*
Y414400D02*
Y398600D01*
Y392200D02*
Y387400D01*
Y381000D02*
Y365400D01*
Y361800D02*
Y355200D01*
Y353200D02*
Y346600D01*
X139800Y467400D02*
Y461200D01*
Y458000D02*
Y451800D01*
Y449400D02*
Y444600D01*
Y437800D02*
Y433000D01*
Y430200D02*
Y425600D01*
Y421400D02*
Y416800D01*
Y414400D02*
Y407800D01*
Y405200D02*
Y398600D01*
Y392200D02*
Y387400D01*
Y381200D02*
Y374400D01*
Y372000D02*
Y365200D01*
Y362000D02*
Y355800D01*
Y352600D02*
Y346400D01*
X139600Y467400D02*
Y461600D01*
Y457600D02*
Y451800D01*
Y449400D02*
Y444600D01*
Y437800D02*
Y433000D01*
Y430000D02*
Y425600D01*
Y421600D02*
Y417000D01*
Y414600D02*
Y408400D01*
Y404600D02*
Y398400D01*
Y392200D02*
Y387400D01*
Y381400D02*
Y375200D01*
Y371400D02*
Y365200D01*
Y362000D02*
Y356200D01*
Y352200D02*
Y346400D01*
X139400Y467400D02*
Y461800D01*
Y457200D02*
Y451600D01*
Y449400D02*
Y444600D01*
Y437800D02*
Y433000D01*
Y430000D02*
Y425400D01*
Y421600D02*
Y417200D01*
Y414800D02*
Y408800D01*
Y404200D02*
Y398200D01*
Y392200D02*
Y387400D01*
Y381400D02*
Y375600D01*
Y370800D02*
Y365000D01*
Y362200D02*
Y356600D01*
Y352000D02*
Y346400D01*
X139200Y467600D02*
Y462000D01*
Y457000D02*
Y451600D01*
Y449400D02*
Y444600D01*
Y437800D02*
Y433000D01*
Y429800D02*
Y425400D01*
Y421800D02*
Y417200D01*
Y414800D02*
Y409200D01*
Y403800D02*
Y398200D01*
Y392200D02*
Y387400D01*
Y381600D02*
Y375800D01*
Y370600D02*
Y365000D01*
Y362200D02*
Y356800D01*
Y351800D02*
Y346200D01*
X139000Y467600D02*
Y462200D01*
Y456800D02*
Y451600D01*
Y449400D02*
Y444600D01*
Y437800D02*
Y433000D01*
Y429800D02*
Y425200D01*
Y421800D02*
Y417400D01*
Y414800D02*
Y409400D01*
Y403600D02*
Y398200D01*
Y392200D02*
Y387400D01*
Y381600D02*
Y376200D01*
Y370200D02*
Y364800D01*
Y362200D02*
Y357000D01*
Y351600D02*
Y346200D01*
X138800Y467600D02*
Y462400D01*
Y456800D02*
Y451600D01*
Y449400D02*
Y444600D01*
Y437800D02*
Y433000D01*
Y429600D02*
Y425000D01*
Y422000D02*
Y417400D01*
Y415000D02*
Y409600D01*
Y403400D02*
Y398000D01*
Y392200D02*
Y387400D01*
Y381600D02*
Y376400D01*
Y370000D02*
Y364800D01*
Y362200D02*
Y357000D01*
Y351400D02*
Y346200D01*
X138600Y467600D02*
Y462600D01*
Y456600D02*
Y451400D01*
Y449400D02*
Y444600D01*
Y437800D02*
Y433000D01*
Y429400D02*
Y425000D01*
Y422200D02*
Y417600D01*
Y415000D02*
Y409800D01*
Y403200D02*
Y398000D01*
Y392200D02*
Y387400D01*
Y381800D02*
Y376600D01*
Y370000D02*
Y364600D01*
Y362400D02*
Y357200D01*
Y351200D02*
Y346200D01*
X138400Y467600D02*
Y462600D01*
Y456600D02*
Y451400D01*
Y449400D02*
Y444600D01*
Y437800D02*
Y433000D01*
Y429400D02*
Y424800D01*
Y422200D02*
Y417600D01*
Y415000D02*
Y410000D01*
Y403000D02*
Y398000D01*
Y392200D02*
Y387400D01*
Y381800D02*
Y376600D01*
Y369800D02*
Y364600D01*
Y362400D02*
Y357200D01*
Y351200D02*
Y346200D01*
X138200Y467600D02*
Y462800D01*
Y456400D02*
Y451400D01*
Y449400D02*
Y444600D01*
Y437800D02*
Y433000D01*
Y429200D02*
Y424800D01*
Y422400D02*
Y417800D01*
Y415200D02*
Y410000D01*
Y403000D02*
Y397800D01*
Y392200D02*
Y387400D01*
Y381800D02*
Y376800D01*
Y369600D02*
Y364600D01*
Y362400D02*
Y357400D01*
Y351200D02*
Y346200D01*
X138000Y467600D02*
Y462800D01*
Y456400D02*
Y451400D01*
Y449400D02*
Y444600D01*
Y437800D02*
Y433000D01*
Y429200D02*
Y424600D01*
Y422400D02*
Y418000D01*
Y415200D02*
Y410200D01*
Y402800D02*
Y397800D01*
Y392200D02*
Y387400D01*
Y381800D02*
Y376800D01*
Y369600D02*
Y364600D01*
Y362400D02*
Y357400D01*
Y351000D02*
Y346200D01*
X137800Y467600D02*
Y462800D01*
Y456400D02*
Y451400D01*
Y449400D02*
Y444600D01*
Y437800D02*
Y433000D01*
Y429000D02*
Y424400D01*
Y422600D02*
Y418000D01*
Y415200D02*
Y410200D01*
Y402800D02*
Y397800D01*
Y392200D02*
Y387400D01*
Y382000D02*
Y377000D01*
Y369400D02*
Y364600D01*
Y362400D02*
Y357400D01*
Y351000D02*
Y346200D01*
X137600Y467600D02*
Y462800D01*
Y456200D02*
Y451400D01*
Y449400D02*
Y444600D01*
Y437800D02*
Y433000D01*
Y428800D02*
Y424400D01*
Y422600D02*
Y418200D01*
Y415200D02*
Y410200D01*
Y402800D02*
Y397800D01*
Y392200D02*
Y387400D01*
Y382000D02*
Y377000D01*
Y369400D02*
Y364400D01*
Y362400D02*
Y357600D01*
Y351000D02*
Y346200D01*
X137400Y467600D02*
Y462800D01*
Y456200D02*
Y451400D01*
Y449400D02*
Y444600D01*
Y437800D02*
Y433000D01*
Y428800D02*
Y424200D01*
Y422800D02*
Y418200D01*
Y415200D02*
Y410400D01*
Y402600D02*
Y397800D01*
Y392200D02*
Y387400D01*
Y382000D02*
Y377000D01*
Y369400D02*
Y364400D01*
Y362400D02*
Y357600D01*
Y351000D02*
Y346200D01*
X137200Y467600D02*
Y463000D01*
Y456200D02*
Y451400D01*
Y449400D02*
Y444600D01*
Y437800D02*
Y433000D01*
Y428600D02*
Y424200D01*
Y423000D02*
Y418400D01*
Y415200D02*
Y410400D01*
Y402600D02*
Y397800D01*
Y392200D02*
Y387400D01*
Y382000D02*
Y377000D01*
Y369400D02*
Y364400D01*
Y362400D02*
Y357600D01*
Y350800D02*
Y346200D01*
X137000Y467600D02*
Y463000D01*
Y456200D02*
Y451400D01*
Y449400D02*
Y444600D01*
Y437800D02*
Y433000D01*
Y428600D02*
Y424000D01*
Y423000D02*
Y418600D01*
Y415200D02*
Y410400D01*
Y402600D02*
Y397800D01*
Y392200D02*
Y387400D01*
Y382000D02*
Y377000D01*
Y369400D02*
Y364400D01*
Y362400D02*
Y357600D01*
Y350800D02*
Y346200D01*
X136800Y467600D02*
Y463000D01*
Y456200D02*
Y451400D01*
Y449400D02*
Y444600D01*
Y437800D02*
Y433000D01*
Y428400D02*
Y424000D01*
Y423200D02*
Y418600D01*
Y415200D02*
Y410400D01*
Y402600D02*
Y397800D01*
Y392200D02*
Y387400D01*
Y382000D02*
Y377000D01*
Y369400D02*
Y364400D01*
Y362400D02*
Y357600D01*
Y350800D02*
Y346200D01*
X136600Y467600D02*
Y463000D01*
Y456200D02*
Y451400D01*
Y449400D02*
Y444600D01*
Y437800D02*
Y433000D01*
Y428400D02*
Y423800D01*
Y423200D02*
Y418800D01*
Y415200D02*
Y410400D01*
Y402600D02*
Y397800D01*
Y392200D02*
Y387400D01*
Y382000D02*
Y377000D01*
Y369400D02*
Y364400D01*
Y362400D02*
Y357600D01*
Y350800D02*
Y346200D01*
X136400Y467600D02*
Y463000D01*
Y456200D02*
Y451400D01*
Y449400D02*
Y444400D01*
Y438000D02*
Y433000D01*
Y428200D02*
Y423600D01*
Y423400D02*
Y418800D01*
Y415200D02*
Y410200D01*
Y402800D02*
Y397800D01*
Y392200D02*
Y387400D01*
Y382000D02*
Y377000D01*
Y369400D02*
Y364400D01*
Y362400D02*
Y357600D01*
Y350800D02*
Y346200D01*
X136200Y467600D02*
Y463000D01*
Y456200D02*
Y451400D01*
Y449400D02*
Y444400D01*
Y438000D02*
Y433000D01*
Y428000D02*
Y419000D01*
Y415200D02*
Y410200D01*
Y402800D02*
Y397800D01*
Y392200D02*
Y387400D01*
Y382000D02*
Y377000D01*
Y369400D02*
Y364600D01*
Y362400D02*
Y357600D01*
Y350800D02*
Y346200D01*
X136000Y467600D02*
Y463000D01*
Y456200D02*
Y451400D01*
Y449400D02*
Y444400D01*
Y438000D02*
Y433000D01*
Y428000D02*
Y419200D01*
Y415200D02*
Y410200D01*
Y402800D02*
Y397800D01*
Y392200D02*
Y387400D01*
Y381800D02*
Y376800D01*
Y369600D02*
Y364600D01*
Y362400D02*
Y357600D01*
Y350800D02*
Y346200D01*
X135800Y467600D02*
Y463000D01*
Y456200D02*
Y451400D01*
Y449400D02*
Y444400D01*
Y438000D02*
Y433000D01*
Y427800D02*
Y419200D01*
Y415200D02*
Y410000D01*
Y403000D02*
Y397800D01*
Y392200D02*
Y387400D01*
Y381800D02*
Y376800D01*
Y369600D02*
Y364600D01*
Y362400D02*
Y357600D01*
Y350800D02*
Y346200D01*
X135600Y467600D02*
Y463000D01*
Y456200D02*
Y451400D01*
Y449400D02*
Y444200D01*
Y438200D02*
Y433000D01*
Y427800D02*
Y419400D01*
Y415000D02*
Y410000D01*
Y403000D02*
Y398000D01*
Y392200D02*
Y387400D01*
Y381800D02*
Y376600D01*
Y369800D02*
Y364600D01*
Y362400D02*
Y357600D01*
Y350800D02*
Y346200D01*
X135400Y467600D02*
Y463000D01*
Y456200D02*
Y451400D01*
Y449200D02*
Y444200D01*
Y438200D02*
Y433200D01*
Y427600D02*
Y419400D01*
Y415000D02*
Y409800D01*
Y403200D02*
Y398000D01*
Y392200D02*
Y387400D01*
Y381800D02*
Y376400D01*
Y370000D02*
Y364600D01*
Y362400D02*
Y357600D01*
Y350800D02*
Y346200D01*
X135200Y467600D02*
Y463000D01*
Y456200D02*
Y451400D01*
Y449200D02*
Y444000D01*
Y438400D02*
Y433200D01*
Y427400D02*
Y419600D01*
Y415000D02*
Y409600D01*
Y403400D02*
Y398000D01*
Y392200D02*
Y387400D01*
Y381600D02*
Y376400D01*
Y370000D02*
Y364800D01*
Y362400D02*
Y357600D01*
Y350800D02*
Y346200D01*
X135000Y467600D02*
Y463000D01*
Y456200D02*
Y451400D01*
Y449200D02*
Y443800D01*
Y438600D02*
Y433200D01*
Y427400D02*
Y419800D01*
Y414800D02*
Y409400D01*
Y403600D02*
Y398200D01*
Y392200D02*
Y387400D01*
Y381600D02*
Y376200D01*
Y370200D02*
Y364800D01*
Y362400D02*
Y357600D01*
Y350800D02*
Y346200D01*
X134800Y467600D02*
Y463000D01*
Y456200D02*
Y451400D01*
Y449200D02*
Y443600D01*
Y438800D02*
Y433200D01*
Y427200D02*
Y419800D01*
Y414800D02*
Y409200D01*
Y403800D02*
Y398200D01*
Y392200D02*
Y387400D01*
Y381400D02*
Y375800D01*
Y370600D02*
Y365000D01*
Y362400D02*
Y357600D01*
Y350800D02*
Y346200D01*
X134600Y467600D02*
Y463000D01*
Y456200D02*
Y451400D01*
Y449200D02*
Y443400D01*
Y439000D02*
Y433400D01*
Y427200D02*
Y420000D01*
Y414600D02*
Y408800D01*
Y404200D02*
Y398200D01*
Y392200D02*
Y387400D01*
Y381400D02*
Y375600D01*
Y370800D02*
Y365000D01*
Y362400D02*
Y357600D01*
Y350800D02*
Y346200D01*
X134400Y467600D02*
Y463000D01*
Y456200D02*
Y451400D01*
Y449000D02*
Y443200D01*
Y439200D02*
Y433400D01*
Y427000D02*
Y420000D01*
Y414600D02*
Y408400D01*
Y404600D02*
Y398400D01*
Y392200D02*
Y387400D01*
Y381400D02*
Y375200D01*
Y371200D02*
Y365200D01*
Y362400D02*
Y357600D01*
Y350800D02*
Y346200D01*
X134200Y467600D02*
Y463000D01*
Y456200D02*
Y451400D01*
Y449000D02*
Y442800D01*
Y439600D02*
Y433400D01*
Y426800D02*
Y420200D01*
Y414400D02*
Y407800D01*
Y405200D02*
Y398600D01*
Y392200D02*
Y387400D01*
Y381200D02*
Y374400D01*
Y372000D02*
Y365200D01*
Y362400D02*
Y357600D01*
Y350800D02*
Y346200D01*
X134000Y467600D02*
Y463000D01*
Y456200D02*
Y451400D01*
Y448800D02*
Y442000D01*
Y440400D02*
Y433600D01*
Y426800D02*
Y420200D01*
Y414400D02*
Y398600D01*
Y392200D02*
Y387400D01*
Y381000D02*
Y365400D01*
Y362400D02*
Y357600D01*
Y350800D02*
Y346200D01*
X133800Y467600D02*
Y463000D01*
Y456200D02*
Y451400D01*
Y448800D02*
Y433600D01*
Y426600D02*
Y420400D01*
Y414200D02*
Y398800D01*
Y392200D02*
Y387400D01*
Y381000D02*
Y365400D01*
Y362400D02*
Y357600D01*
Y350800D02*
Y346200D01*
X133600Y467600D02*
Y463000D01*
Y456200D02*
Y451400D01*
Y448600D02*
Y433800D01*
Y426600D02*
Y420600D01*
Y414000D02*
Y399000D01*
Y392200D02*
Y387400D01*
Y380800D02*
Y365600D01*
Y362400D02*
Y357600D01*
Y350800D02*
Y346200D01*
X133400Y467600D02*
Y463000D01*
Y456200D02*
Y451400D01*
Y448400D02*
Y434000D01*
Y426400D02*
Y420600D01*
Y413800D02*
Y399000D01*
Y392200D02*
Y387400D01*
Y380600D02*
Y365800D01*
Y362400D02*
Y357600D01*
Y350800D02*
Y346200D01*
X133200Y467600D02*
Y463000D01*
Y456200D02*
Y451400D01*
Y448200D02*
Y434200D01*
Y426400D02*
Y420800D01*
Y413800D02*
Y399200D01*
Y392200D02*
Y387400D01*
Y380400D02*
Y366000D01*
Y362400D02*
Y357600D01*
Y350800D02*
Y346200D01*
X133000Y467600D02*
Y463000D01*
Y456200D02*
Y451400D01*
Y448000D02*
Y434400D01*
Y426200D02*
Y420800D01*
Y413600D02*
Y399400D01*
Y392200D02*
Y387400D01*
Y380200D02*
Y366200D01*
Y362400D02*
Y357600D01*
Y350800D02*
Y346200D01*
X132800Y467600D02*
Y463000D01*
Y456200D02*
Y451400D01*
Y447800D02*
Y434600D01*
Y426000D02*
Y421000D01*
Y413200D02*
Y399800D01*
Y392200D02*
Y387400D01*
Y380000D02*
Y366400D01*
Y362400D02*
Y357600D01*
Y350800D02*
Y346200D01*
X132600Y467600D02*
Y463000D01*
Y456200D02*
Y451400D01*
Y447600D02*
Y434800D01*
Y426000D02*
Y421200D01*
Y413000D02*
Y400000D01*
Y392200D02*
Y387400D01*
Y379800D02*
Y366600D01*
Y362400D02*
Y357600D01*
Y350800D02*
Y346200D01*
X132400Y467600D02*
Y463000D01*
Y456200D02*
Y451400D01*
Y447400D02*
Y435000D01*
Y425800D02*
Y421200D01*
Y412800D02*
Y400200D01*
Y392200D02*
Y387400D01*
Y379400D02*
Y367000D01*
Y362400D02*
Y357600D01*
Y350800D02*
Y346200D01*
X132200Y467600D02*
Y463000D01*
Y456200D02*
Y451400D01*
Y447000D02*
Y435200D01*
Y425800D02*
Y421400D01*
Y412400D02*
Y400600D01*
Y392200D02*
Y387400D01*
Y379200D02*
Y367200D01*
Y362400D02*
Y357600D01*
Y350800D02*
Y346200D01*
X132000Y467600D02*
Y463000D01*
Y456200D02*
Y451400D01*
Y446800D02*
Y435600D01*
Y425600D02*
Y421400D01*
Y412000D02*
Y400800D01*
Y392200D02*
Y387400D01*
Y378800D02*
Y367600D01*
Y362400D02*
Y357600D01*
Y350800D02*
Y346200D01*
X131800Y467600D02*
Y463000D01*
Y456200D02*
Y451400D01*
Y446400D02*
Y436000D01*
Y425400D02*
Y421600D01*
Y411600D02*
Y401200D01*
Y392200D02*
Y387400D01*
Y378400D02*
Y368000D01*
Y362400D02*
Y357600D01*
Y350800D02*
Y346200D01*
X131600Y467600D02*
Y463000D01*
Y456200D02*
Y451400D01*
Y446000D02*
Y436600D01*
Y425400D02*
Y421800D01*
Y411200D02*
Y401800D01*
Y392200D02*
Y387400D01*
Y378000D02*
Y368400D01*
Y362400D02*
Y357600D01*
Y350800D02*
Y346200D01*
X131400Y467600D02*
Y463000D01*
Y456200D02*
Y451400D01*
Y445400D02*
Y437000D01*
Y425200D02*
Y421800D01*
Y410800D02*
Y402200D01*
Y392200D02*
Y387400D01*
Y377400D02*
Y369000D01*
Y362400D02*
Y357600D01*
Y350800D02*
Y346200D01*
X131200Y444600D02*
Y437800D01*
Y410000D02*
Y403000D01*
Y376800D02*
Y369600D01*
X131000Y443600D02*
Y438800D01*
Y409200D02*
Y403800D01*
Y375800D02*
Y370600D01*
G74*
X0Y0D02*
M02*
