*
*
G04 PADS 9.5 Build Number: 522968 generated Gerber (RS-274-X) file*
G04 PC Version=2.1*
*
%IN "ICP Gang Adapter, M058S"*%
*
%MOIN*%
*
%FSLAX35Y35*%
*
*
*
*
G04 PC Standard Apertures*
*
*
G04 Thermal Relief Aperture macro.*
%AMTER*
1,1,$1,0,0*
1,0,$1-$2,0,0*
21,0,$3,$4,0,0,45*
21,0,$3,$4,0,0,135*
%
*
*
G04 Annular Aperture macro.*
%AMANN*
1,1,$1,0,0*
1,0,$2,0,0*
%
*
*
G04 Odd Aperture macro.*
%AMODD*
1,1,$1,0,0*
1,0,$1-0.005,0,0*
%
*
*
G04 PC Custom Aperture Macros*
*
*
*
*
*
*
G04 PC Aperture Table*
*
%ADD016C,0.01*%
%ADD017C,0.005*%
%ADD018C,0.012*%
%ADD024C,0.00787*%
%ADD049C,0.001*%
*
*
*
*
G04 PC Circuitry*
G04 Layer Name ICP Gang Adapter, M058S - circuitry*
%LPD*%
*
*
G04 PC Custom Flashes*
G04 Layer Name ICP Gang Adapter, M058S - flashes*
%LPD*%
*
*
G04 PC Circuitry*
G04 Layer Name ICP Gang Adapter, M058S - circuitry*
%LPD*%
*
G54D16*
G01X100000Y100000D02*
X887000D01*
Y494000*
X100000*
Y100000*
G54D17*
X222864Y158281D02*
Y155781D01*
X222977Y155312*
X222977D02*
X223091Y155156D01*
X223318Y155000*
X223545*
X223773Y155156*
X223886Y155312*
X223886D02*
X224000Y155781D01*
Y156094*
X221841Y158281D02*
Y155000D01*
Y158281D02*
X220818D01*
X220477Y158125*
X220364Y157969*
X220250Y157656*
Y157187*
X220250D02*
X220364Y156875D01*
X220477Y156719*
X220818Y156562*
X220818D02*
X221841D01*
X219227Y157656D02*
X219000Y157812D01*
X219000D02*
X218659Y158281D01*
Y155000*
X404864Y156281D02*
Y153781D01*
X404977Y153312*
X404977D02*
X405091Y153156D01*
X405318Y153000*
X405545*
X405773Y153156*
X405886Y153312*
X405886D02*
X406000Y153781D01*
Y154094*
X403841Y156281D02*
Y153000D01*
Y156281D02*
X402818D01*
X402477Y156125*
X402364Y155969*
X402250Y155656*
Y155187*
X402250D02*
X402364Y154875D01*
X402477Y154719*
X402818Y154562*
X402818D02*
X403841D01*
X401114Y155500D02*
Y155656D01*
X401000Y155969*
X400886Y156125*
X400659Y156281*
X400205*
X399977Y156125*
X399864Y155969*
X399750Y155656*
Y155344*
X399864Y155031*
X400091Y154562*
X400091D02*
X401227Y153000D01*
X399636*
X584864Y156281D02*
Y153781D01*
X584977Y153312*
X584977D02*
X585091Y153156D01*
X585318Y153000*
X585545*
X585773Y153156*
X585886Y153312*
X585886D02*
X586000Y153781D01*
Y154094*
X583841Y156281D02*
Y153000D01*
Y156281D02*
X582818D01*
X582477Y156125*
X582364Y155969*
X582250Y155656*
Y155187*
X582250D02*
X582364Y154875D01*
X582477Y154719*
X582818Y154562*
X582818D02*
X583841D01*
X581000Y156281D02*
X579750D01*
X580432Y155031*
X580091*
X579864Y154875*
X579750Y154719*
X579636Y154250*
Y153937*
X579636D02*
X579750Y153469D01*
X579977Y153156*
X580318Y153000*
X580659*
X581000Y153156*
X581114Y153312*
X581114D02*
X581227Y153625D01*
X766864Y158281D02*
Y155781D01*
X766977Y155312*
X766977D02*
X767091Y155156D01*
X767318Y155000*
X767545*
X767773Y155156*
X767886Y155312*
X767886D02*
X768000Y155781D01*
Y156094*
X765841Y158281D02*
Y155000D01*
Y158281D02*
X764818D01*
X764477Y158125*
X764364Y157969*
X764250Y157656*
Y157187*
X764250D02*
X764364Y156875D01*
X764477Y156719*
X764818Y156562*
X764818D02*
X765841D01*
X762091Y158281D02*
X763227Y156094D01*
X761523*
X762091Y158281D02*
Y155000D01*
X222864Y438281D02*
Y435781D01*
X222977Y435313*
X222977D02*
X223091Y435156D01*
X223318Y435000*
X223545*
X223773Y435156*
X223886Y435313*
X223886D02*
X224000Y435781D01*
Y436094*
X221841Y438281D02*
Y435000D01*
Y438281D02*
X220818D01*
X220477Y438125*
X220364Y437969*
X220250Y437656*
Y437188*
X220250D02*
X220364Y436875D01*
X220477Y436719*
X220818Y436563*
X220818D02*
X221841D01*
X217750Y438281D02*
X218886D01*
X219000Y436875*
X218886Y437031*
X218545Y437188*
X218545D02*
X218205D01*
X218205D02*
X217864Y437031D01*
X217636Y436719*
X217523Y436250*
X217636Y435938*
X217636D02*
X217750Y435469D01*
X217977Y435156*
X218318Y435000*
X218659*
X219000Y435156*
X219114Y435313*
X219114D02*
X219227Y435625D01*
X402864Y438281D02*
Y435781D01*
X402977Y435313*
X402977D02*
X403091Y435156D01*
X403318Y435000*
X403545*
X403773Y435156*
X403886Y435313*
X403886D02*
X404000Y435781D01*
Y436094*
X401841Y438281D02*
Y435000D01*
Y438281D02*
X400818D01*
X400477Y438125*
X400364Y437969*
X400250Y437656*
Y437188*
X400250D02*
X400364Y436875D01*
X400477Y436719*
X400818Y436563*
X400818D02*
X401841D01*
X397864Y437813D02*
X397977Y438125D01*
X398318Y438281*
X398545*
X398886Y438125*
X399114Y437656*
X399227Y436875*
Y436094*
X399114Y435469*
X398886Y435156*
X398545Y435000*
X398432*
X398091Y435156*
X397864Y435469*
X397750Y435938*
X397750D02*
Y436094D01*
X397864Y436563*
X397864D02*
X398091Y436875D01*
X398432Y437031*
X398545*
X398886Y436875*
X399114Y436563*
X399114D02*
X399227Y436094D01*
X586864Y436281D02*
Y433781D01*
X586977Y433313*
X586977D02*
X587091Y433156D01*
X587318Y433000*
X587545*
X587773Y433156*
X587886Y433313*
X587886D02*
X588000Y433781D01*
Y434094*
X585841Y436281D02*
Y433000D01*
Y436281D02*
X584818D01*
X584477Y436125*
X584364Y435969*
X584250Y435656*
Y435188*
X584250D02*
X584364Y434875D01*
X584477Y434719*
X584818Y434563*
X584818D02*
X585841D01*
X581636Y436281D02*
X582773Y433000D01*
X583227Y436281D02*
X581636D01*
X768864Y438281D02*
Y435781D01*
X768977Y435313*
X768977D02*
X769091Y435156D01*
X769318Y435000*
X769545*
X769773Y435156*
X769886Y435313*
X769886D02*
X770000Y435781D01*
Y436094*
X767841Y438281D02*
Y435000D01*
Y438281D02*
X766818D01*
X766477Y438125*
X766364Y437969*
X766250Y437656*
Y437188*
X766250D02*
X766364Y436875D01*
X766477Y436719*
X766818Y436563*
X766818D02*
X767841D01*
X764659Y438281D02*
X765000Y438125D01*
X765114Y437813*
X765114D02*
Y437500D01*
X765000Y437188*
X765000D02*
X764773Y437031D01*
X764318Y436875*
X763977Y436719*
X763750Y436406*
X763636Y436094*
Y435625*
X763750Y435313*
X763750D02*
X763864Y435156D01*
X764205Y435000*
X764659*
X765000Y435156*
X765114Y435313*
X765114D02*
X765227Y435625D01*
Y436094*
X765114Y436406*
X764886Y436719*
X764545Y436875*
X764091Y437031*
X763864Y437188*
X763864D02*
X763750Y437500D01*
Y437813*
X763750D02*
X763864Y438125D01*
X764205Y438281*
X764659*
G54D18*
X182000Y110000D02*
X262000D01*
Y150000*
X232000*
Y145000*
X212000*
Y150000*
X182000*
Y110000*
X363000D02*
X443000D01*
Y150000*
X413000*
Y145000*
X393000*
Y150000*
X363000*
Y110000*
X544000D02*
X624000D01*
Y150000*
X594000*
Y145000*
X574000*
Y150000*
X544000*
Y110000*
X725000D02*
X805000D01*
Y150000*
X775000*
Y145000*
X755000*
Y150000*
X725000*
Y110000*
X262000Y484000D02*
X182000D01*
Y444000*
X212000*
Y449000*
X232000*
Y444000*
X262000*
Y484000*
X443000D02*
X363000D01*
Y444000*
X393000*
Y449000*
X413000*
Y444000*
X443000*
Y484000*
X624000D02*
X544000D01*
Y444000*
X574000*
Y449000*
X594000*
Y444000*
X624000*
Y484000*
X805000D02*
X725000D01*
Y444000*
X755000*
Y449000*
X775000*
Y444000*
X805000*
Y484000*
G54D24*
X241764Y153898D02*
X237039Y158622D01*
X246488*
X241764Y153898*
X422764D02*
X418039Y158622D01*
X427488*
X422764Y153898*
X603764D02*
X599039Y158622D01*
X608488*
X603764Y153898*
X784764D02*
X780039Y158622D01*
X789488*
X784764Y153898*
X202236Y440102D02*
X206961Y435378D01*
X197512*
X202236Y440102*
X383236D02*
X387961Y435378D01*
X378512*
X383236Y440102*
X564236D02*
X568961Y435378D01*
X559512*
X564236Y440102*
X745236D02*
X749961Y435378D01*
X740512*
X745236Y440102*
G54D49*
X0Y0D02*
M02*
