*
*
G04 PADS 9.5 Build Number: 522968 generated Gerber (RS-274-X) file*
G04 PC Version=2.1*
*
%IN "ICP Gang Adapter, M058S"*%
*
%MOIN*%
*
%FSLAX35Y35*%
*
*
*
*
G04 PC Standard Apertures*
*
*
G04 Thermal Relief Aperture macro.*
%AMTER*
1,1,$1,0,0*
1,0,$1-$2,0,0*
21,0,$3,$4,0,0,45*
21,0,$3,$4,0,0,135*
%
*
*
G04 Annular Aperture macro.*
%AMANN*
1,1,$1,0,0*
1,0,$2,0,0*
%
*
*
G04 Odd Aperture macro.*
%AMODD*
1,1,$1,0,0*
1,0,$1-0.005,0,0*
%
*
*
G04 PC Custom Aperture Macros*
*
*
*
*
*
*
G04 PC Aperture Table*
*
%ADD016C,0.01*%
%ADD032C,0.06*%
%ADD033R,0.06X0.06*%
%ADD040C,0.07*%
%ADD041R,0.07X0.07*%
%ADD049C,0.001*%
%ADD066C,0.13*%
%ADD067R,0.05X0.04*%
%ADD068R,0.04X0.05*%
*
*
*
*
G04 PC Circuitry*
G04 Layer Name ICP Gang Adapter, M058S - circuitry*
%LPD*%
*
*
G04 PC Custom Flashes*
G04 Layer Name ICP Gang Adapter, M058S - flashes*
%LPD*%
*
*
G04 PC Circuitry*
G04 Layer Name ICP Gang Adapter, M058S - circuitry*
%LPD*%
*
G54D16*
G01X100000Y100000D02*
X887000D01*
Y494000*
X100000*
Y100000*
G54D32*
X194000Y169000D03*
X250000D03*
X375000D03*
X431000D03*
X556000D03*
X612000D03*
X737000D03*
X793000D03*
X212764Y267780D03*
X214732Y277780D03*
X216701Y257780D03*
X218669Y267780D03*
X220638Y277780D03*
X222606Y257780D03*
X224575Y267780D03*
X226543Y277780D03*
X228512Y257780D03*
X230480Y267780D03*
X232449Y277780D03*
X261307Y286638D03*
X251307Y288607D03*
X241622Y290575D03*
X261307Y292544D03*
X251307Y294512D03*
X241622Y296481D03*
X261307Y298449D03*
X251307Y300418D03*
X241622Y302386D03*
X261307Y304355D03*
X251307Y306323D03*
X241307Y308292D03*
X232449Y337150D03*
X230480Y327150D03*
X228512Y317150D03*
X226543Y337150D03*
X224575Y327150D03*
X222606Y317150D03*
X220638Y337150D03*
X218669Y327150D03*
X216701Y317150D03*
X214732Y337150D03*
X212764Y327150D03*
X210795Y317150D03*
X181937Y308292D03*
X191937Y306323D03*
X201937Y304355D03*
X181937Y302386D03*
X191937Y300418D03*
X201937Y298449D03*
X181937Y296481D03*
X191937Y294512D03*
X201937Y292544D03*
X181937Y290575D03*
X191937Y288607D03*
X201937Y286638D03*
X393764Y267780D03*
X395732Y277780D03*
X397701Y257780D03*
X399669Y267780D03*
X401638Y277780D03*
X403606Y257780D03*
X405575Y267780D03*
X407543Y277780D03*
X409512Y257780D03*
X411480Y267780D03*
X413449Y277780D03*
X442307Y286638D03*
X432307Y288607D03*
X422622Y290575D03*
X442307Y292544D03*
X432307Y294512D03*
X422622Y296481D03*
X442307Y298449D03*
X432307Y300418D03*
X422622Y302386D03*
X442307Y304355D03*
X432307Y306323D03*
X422307Y308292D03*
X413449Y337150D03*
X411480Y327150D03*
X409512Y317150D03*
X407543Y337150D03*
X405575Y327150D03*
X403606Y317150D03*
X401638Y337150D03*
X399669Y327150D03*
X397701Y317150D03*
X395732Y337150D03*
X393764Y327150D03*
X391795Y317150D03*
X362937Y308292D03*
X372937Y306323D03*
X382937Y304355D03*
X362937Y302386D03*
X372937Y300418D03*
X382937Y298449D03*
X362937Y296481D03*
X372937Y294512D03*
X382937Y292544D03*
X362937Y290575D03*
X372937Y288607D03*
X382937Y286638D03*
X574764Y267780D03*
X576732Y277780D03*
X578701Y257780D03*
X580669Y267780D03*
X582638Y277780D03*
X584606Y257780D03*
X586575Y267780D03*
X588543Y277780D03*
X590512Y257780D03*
X592480Y267780D03*
X594449Y277780D03*
X623307Y286638D03*
X613307Y288607D03*
X603622Y290575D03*
X623307Y292544D03*
X613307Y294512D03*
X603622Y296481D03*
X623307Y298449D03*
X613307Y300418D03*
X603622Y302386D03*
X623307Y304355D03*
X613307Y306323D03*
X603307Y308292D03*
X594449Y337150D03*
X592480Y327150D03*
X590512Y317150D03*
X588543Y337150D03*
X586575Y327150D03*
X584606Y317150D03*
X582638Y337150D03*
X580669Y327150D03*
X578701Y317150D03*
X576732Y337150D03*
X574764Y327150D03*
X572795Y317150D03*
X543937Y308292D03*
X553937Y306323D03*
X563937Y304355D03*
X543937Y302386D03*
X553937Y300418D03*
X563937Y298449D03*
X543937Y296481D03*
X553937Y294512D03*
X563937Y292544D03*
X543937Y290575D03*
X553937Y288607D03*
X563937Y286638D03*
X755764Y267780D03*
X757732Y277780D03*
X759701Y257780D03*
X761669Y267780D03*
X763638Y277780D03*
X765606Y257780D03*
X767575Y267780D03*
X769543Y277780D03*
X771512Y257780D03*
X773480Y267780D03*
X775449Y277780D03*
X804307Y286638D03*
X794307Y288607D03*
X784622Y290575D03*
X804307Y292544D03*
X794307Y294512D03*
X784622Y296481D03*
X804307Y298449D03*
X794307Y300418D03*
X784622Y302386D03*
X804307Y304355D03*
X794307Y306323D03*
X784307Y308292D03*
X775449Y337150D03*
X773480Y327150D03*
X771512Y317150D03*
X769543Y337150D03*
X767575Y327150D03*
X765606Y317150D03*
X763638Y337150D03*
X761669Y327150D03*
X759701Y317150D03*
X757732Y337150D03*
X755764Y327150D03*
X753795Y317150D03*
X724937Y308292D03*
X734937Y306323D03*
X744937Y304355D03*
X724937Y302386D03*
X734937Y300418D03*
X744937Y298449D03*
X724937Y296481D03*
X734937Y294512D03*
X744937Y292544D03*
X724937Y290575D03*
X734937Y288607D03*
X744937Y286638D03*
G54D33*
X194000Y179000D03*
X250000D03*
X375000D03*
X431000D03*
X556000D03*
X612000D03*
X737000D03*
X793000D03*
X210795Y257780D03*
X391795D03*
X572795D03*
X753795D03*
G54D40*
X242000Y125000D03*
X232000Y135000D03*
Y125000D03*
X222000Y135000D03*
Y125000D03*
X212000Y135000D03*
Y125000D03*
X202000Y135000D03*
Y125000D03*
X423000D03*
X413000Y135000D03*
Y125000D03*
X403000Y135000D03*
Y125000D03*
X393000Y135000D03*
Y125000D03*
X383000Y135000D03*
Y125000D03*
X604000D03*
X594000Y135000D03*
Y125000D03*
X584000Y135000D03*
Y125000D03*
X574000Y135000D03*
Y125000D03*
X564000Y135000D03*
Y125000D03*
X785000D03*
X775000Y135000D03*
Y125000D03*
X765000Y135000D03*
Y125000D03*
X755000Y135000D03*
Y125000D03*
X745000Y135000D03*
Y125000D03*
X202000Y469000D03*
X212000Y459000D03*
Y469000D03*
X222000Y459000D03*
Y469000D03*
X232000Y459000D03*
Y469000D03*
X242000Y459000D03*
Y469000D03*
X383000D03*
X393000Y459000D03*
Y469000D03*
X403000Y459000D03*
Y469000D03*
X413000Y459000D03*
Y469000D03*
X423000Y459000D03*
Y469000D03*
X564000D03*
X574000Y459000D03*
Y469000D03*
X584000Y459000D03*
Y469000D03*
X594000Y459000D03*
Y469000D03*
X604000Y459000D03*
Y469000D03*
X745000D03*
X755000Y459000D03*
Y469000D03*
X765000Y459000D03*
Y469000D03*
X775000Y459000D03*
Y469000D03*
X785000Y459000D03*
Y469000D03*
G54D41*
X242000Y135000D03*
X423000D03*
X604000D03*
X785000D03*
X202000Y459000D03*
X383000D03*
X564000D03*
X745000D03*
G54D49*
G54D66*
X184220Y260063D03*
X259024D03*
Y334867D03*
X184220D03*
X365220Y260063D03*
X440024D03*
Y334867D03*
X365220D03*
X546220Y260063D03*
X621024D03*
Y334867D03*
X546220D03*
X727220Y260063D03*
X802024D03*
Y334867D03*
X727220D03*
G54D67*
X299600Y293300D03*
Y287300D03*
X478100Y274600D03*
Y268600D03*
X659900Y293800D03*
Y287800D03*
X841900Y294700D03*
Y288700D03*
X137600Y298800D03*
Y304800D03*
X317500Y293900D03*
Y299900D03*
X497900Y294400D03*
Y300400D03*
X677200Y293600D03*
Y299600D03*
G54D68*
X142800Y274300D03*
Y280300D03*
X145100Y304800D03*
Y298800D03*
X324200Y268600D03*
Y274600D03*
X325100Y300000D03*
Y294000D03*
X503700Y266500D03*
Y272500D03*
X506200Y300100D03*
Y294100D03*
X686300Y268000D03*
Y274000D03*
X685200Y299500D03*
Y293500D03*
X0Y0D02*
M02*
